<svg xmlns="http://www.w3.org/2000/svg" xmlns:xlink="http://www.w3.org/1999/xlink" width="0" height="0" style="position:absolute">

    <symbol id="britt_icons-experience_britt" viewBox="0 0 207.3 207.3">
        <g fill="#231F20"><path d="M145.57 56.9c0-7.228-5.88-13.107-13.107-13.107-1.478 0-2.895.257-4.222.71-.81-6.452-6.322-11.464-12.992-11.464-1.622 0-3.17.31-4.604.85-1.547-5.516-6.608-9.577-12.61-9.577s-11.065 4.06-12.612 9.577c-1.435-.54-2.982-.85-4.604-.85-7.228 0-13.108 5.88-13.108 13.106v13.648c-6.82-3.636-14.783-1.884-15.768-1.645-2.017.49-3.437 2.296-3.437 4.372v53.52c0 21.74 12.5 31.8 18.205 35.258v24.9c0 2.484 2.015 4.5 4.5 4.5s4.5-2.016 4.5-4.5v-27.59c0-1.79-1.087-3.42-2.726-4.136-.632-.276-15.48-7.017-15.48-28.434V66.527c2.32-.006 5.13.367 7.087 1.92 2.07 1.642 3.12 4.59 3.12 8.765v11.482c0 2.484 2.014 4.5 4.5 4.5s4.5-2.016 4.5-4.5V46.146c0-2.265 1.842-4.107 4.107-4.107s4.107 1.842 4.107 4.106V75.636c0 2.484 2.015 4.5 4.5 4.5s4.5-2.016 4.5-4.5V37.42c0-2.265 1.843-4.108 4.108-4.108s4.108 1.843 4.108 4.108v38.216c0 2.484 2.015 4.5 4.5 4.5s4.5-2.016 4.5-4.5V46.145c0-2.265 1.843-4.107 4.107-4.107 2.265 0 4.108 1.842 4.108 4.106V75.635c0 2.485 2.015 4.5 4.5 4.5s4.5-2.015 4.5-4.5V56.9c0-2.265 1.843-4.107 4.107-4.107 2.265 0 4.108 1.843 4.108 4.107v38.896c-.013.14-.042.274-.042.417v19.45c.012 9.46-1.79 24.603-5.835 28.653-.626.627-.99.627-1.163.627-2.485 0-4.5 2.015-4.5 4.5V175.7c0 2.485 2.015 4.5 4.5 4.5s4.5-2.015 4.5-4.5v-22.816c1.084-.538 2.102-1.278 3.03-2.208 8.09-8.1 8.474-30.596 8.468-35.017v-13.1c.013-.14.042-.275.042-.418V56.9zM101.17 91.707c-1.868-1.87-4.423-2.857-7.39-2.857-4.38 0-9.234 2.236-12.98 5.98-6.586 6.587-7.958 15.535-3.123 20.37 1.87 1.87 4.424 2.857 7.39 2.857 4.383 0 9.235-2.236 12.98-5.98 6.587-6.587 7.96-15.534 3.124-20.37zm-17.187 6.306c2.92-2.92 6.583-4.663 9.798-4.663.75 0 1.69.104 2.6.48-3.48 1.276-8.033 3.825-8.686 8.535-.627 4.497-1.003 5.685-7.543 8.72-1.927-3.223-.37-8.87 3.833-13.072zm10.883 10.882c-2.86 2.86-6.434 4.58-9.602 4.65 4.564-2.545 6.106-4.95 6.888-10.56.394-2.843 4.468-4.61 7.222-5.408.676 3.274-.992 7.803-4.508 11.318zM121.772 118.775c-3.745-3.745-8.597-5.98-12.98-5.98-1.97 0-3.75.444-5.278 1.284-.045.025-.09.048-.134.076-.72.412-1.386.904-1.978 1.495-4.835 4.836-3.463 13.784 3.124 20.37 3.745 3.746 8.598 5.982 12.98 5.982 2.965 0 5.52-.988 7.39-2.857 4.835-4.835 3.462-13.783-3.124-20.37zm-3.182 3.182c2.936 2.937 4.583 6.58 4.654 9.61-2.546-4.57-4.952-6.113-10.564-6.896-2.845-.393-4.613-4.47-5.41-7.225.544-.113 1.068-.15 1.522-.15 3.215 0 6.878 1.742 9.798 4.662zm-10.883 10.882c-3.916-3.917-5.535-9.087-4.178-12.38 1.278 3.476 3.826 8.015 8.53 8.667 4.498.628 5.685 1.003 8.722 7.553-1.1.657-2.337.822-3.276.822-3.216 0-6.88-1.743-9.8-4.663z"/></g>
    </symbol>

    <symbol id="britt_icons_cart" viewBox="0 0 207.3 207.3">
        <g fill="#231F20"><path d="M184.672 51.35c-.854-.993-2.1-1.565-3.412-1.565H55.672l-1.927-9.91c-.41-2.115-2.263-3.642-4.417-3.642H26.05c-2.485 0-4.5 2.015-4.5 4.5s2.015 4.5 4.5 4.5h19.568l1.902 9.784c.007.045.002.09.01.134l15.204 77.6c.414 2.11 2.265 3.635 4.416 3.635h102.328c2.225 0 4.115-1.625 4.45-3.825l11.78-77.6c.198-1.297-.18-2.615-1.036-3.61zm-19.06 76.033H70.854l-3.78-19.292h93.288c1.242 0 2.25-1.006 2.25-2.25s-1.008-2.25-2.25-2.25h-94.17l-4.28-21.846h86.19c1.243 0 2.25-1.007 2.25-2.25s-1.007-2.25-2.25-2.25H61.032l-2.785-14.222v-.002l-.823-4.235h118.605l-10.416 68.598zM91.006 143.068c-7.72 0-14 6.28-14 14s6.28 14 14 14 14-6.28 14-14-6.28-14-14-14zm0 19c-2.757 0-5-2.243-5-5s2.243-5 5-5 5 2.243 5 5-2.243 5-5 5zM142.793 143.068c-7.72 0-14 6.28-14 14s6.28 14 14 14 14-6.28 14-14-6.28-14-14-14zm0 19c-2.757 0-5-2.243-5-5s2.243-5 5-5 5 2.243 5 5-2.244 5-5 5z"/></g>
    </symbol>

    <symbol id="britt_icons_cart_full" viewBox="0 0 207.3 207.3">
        <g fill="#231F20"><path d="M91.007 142.9c-7.72 0-14 6.28-14 14s6.28 14 14 14 14-6.28 14-14-6.28-14-14-14zm0 19c-2.757 0-5-2.242-5-5s2.243-5 5-5 5 2.244 5 5-2.243 5-5 5zM142.793 142.9c-7.72 0-14 6.28-14 14s6.28 14 14 14 14-6.28 14-14-6.28-14-14-14zm0 19c-2.757 0-5-2.242-5-5s2.243-5 5-5 5 2.244 5 5-2.243 5-5 5zM184.673 51.184c-.854-.994-2.1-1.566-3.412-1.566H55.67l-1.926-9.91c-.41-2.116-2.263-3.642-4.417-3.642H26.05c-2.485 0-4.5 2.015-4.5 4.5s2.015 4.5 4.5 4.5h19.568l1.903 9.788c.008.043.003.086.012.13l4.33 22.094h96.243c1.242 0 2.25 1.007 2.25 2.25s-1.008 2.25-2.25 2.25H52.742l4.28 21.847h103.34c1.24 0 2.25 1.007 2.25 2.25s-1.01 2.25-2.25 2.25H57.903l4.83 24.657c.415 2.11 2.266 3.635 4.417 3.635h102.33c2.224 0 4.114-1.625 4.448-3.825l11.78-77.6c.198-1.295-.18-2.613-1.035-3.608z"/></g>
    </symbol>

    <symbol id="britt_icons_chocolate_process" viewBox="0 0 207.3 207.3">
        <g fill="#231F20"><path d="M158.553 52.468c-.252-2.05-1.866-3.664-3.916-3.917-.217-.026-5.406-.654-13.375-.654-17.278 0-49.312 3.047-69.717 23.452-29.074 29.074-23.068 80.9-22.798 83.092.252 2.05 1.866 3.664 3.916 3.917.217.027 5.405.654 13.373.654 17.28 0 49.313-3.046 69.72-23.45 29.073-29.074 23.067-80.9 22.797-83.092zM77.908 77.713C96.02 59.6 125.376 56.897 141.262 56.897c1.656 0 3.178.03 4.554.076l-88.52 91.347c-.685-13.246-.428-49.567 20.612-70.607zm51.484 51.482c-18.112 18.112-47.47 20.816-63.355 20.816-1.457 0-2.81-.022-4.053-.06l88.05-90.863c.664 13.62.188 49.278-20.642 70.108zM72.585 114.472c.436.412.99.616 1.547.616.596 0 1.19-.236 1.634-.703l31.498-33.273c.854-.902.815-2.327-.087-3.18s-2.326-.817-3.18.086l-31.5 33.273c-.853.904-.814 2.328.088 3.182zM138.566 88.443c-.902-.854-2.325-.816-3.18.087l-31.5 33.273c-.854.902-.815 2.327.087 3.18.436.413.99.617 1.547.617.596 0 1.19-.236 1.634-.703l31.5-33.273c.854-.903.815-2.327-.088-3.18z"/></g>
    </symbol>

    <symbol id="britt_icons_coffee_lovers_1" viewBox="0 0 207.3 207.3">
        <g fill="#231F20"><path d="M182.06 98.874l-15.358-15.877 3.093-21.874c.5-3.54-1.896-6.84-5.417-7.456L142.62 49.85l-10.354-19.514c-1.675-3.158-5.55-4.42-8.766-2.848l-19.846 9.7-19.846-9.7c-3.213-1.572-7.09-.312-8.766 2.848L64.686 49.85l-21.758 3.816c-3.52.617-5.918 3.917-5.417 7.456l3.094 21.874-15.36 15.878c-2.486 2.57-2.486 6.647 0 9.217l15.36 15.88-3.094 21.872c-.5 3.54 1.896 6.838 5.417 7.456l21.76 3.817L75.04 176.63c1.676 3.158 5.556 4.416 8.766 2.848l19.847-9.7 19.847 9.7c.936.457 1.928.674 2.906.674 2.378 0 4.672-1.284 5.86-3.522l10.353-19.514 21.758-3.817c3.52-.62 5.918-3.918 5.417-7.457l-3.093-21.873 15.36-15.878c2.485-2.57 2.485-6.65 0-9.218zm-27.14 18.206c-1.42 1.47-2.084 3.513-1.798 5.537l2.65 18.73-18.636 3.27c-2.013.355-3.75 1.617-4.71 3.423l-8.866 16.712-16.997-8.31c-.918-.447-1.915-.672-2.91-.672s-1.993.225-2.912.673l-16.996 8.31-8.867-16.713c-.958-1.806-2.696-3.068-4.71-3.422l-18.634-3.27 2.65-18.73c.286-2.025-.378-4.068-1.8-5.538L39.23 103.482l13.154-13.597c1.42-1.47 2.085-3.513 1.8-5.536l-2.65-18.734 18.634-3.27c2.014-.353 3.752-1.615 4.71-3.42l8.867-16.714 16.997 8.31c1.837.897 3.985.897 5.822 0l16.997-8.31 8.868 16.713c.958 1.806 2.696 3.068 4.71 3.422l18.634 3.27-2.65 18.732c-.286 2.022.378 4.066 1.8 5.535l13.154 13.597-13.155 13.598zM113.923 69.703c-10.21 0-21.492 5.186-30.178 13.872-7.183 7.182-11.945 15.965-13.41 24.73-1.51 9.042.645 17.008 6.066 22.43 4.272 4.27 10.144 6.527 16.982 6.527 10.21 0 21.492-5.186 30.178-13.872 7.183-7.183 11.945-15.965 13.41-24.73 1.51-9.042-.645-17.008-6.066-22.43-4.27-4.27-10.143-6.527-16.98-6.527zm-39.148 39.343c1.31-7.848 5.626-15.764 12.152-22.29 7.86-7.86 17.953-12.553 26.996-12.553 4.41 0 8.285 1.125 11.402 3.25-8.314 2.43-22.118 8.295-23.842 20.73-1.944 13.938-5.51 18.345-23.946 26.87-2.82-4.206-3.804-9.766-2.762-16.007zM132.53 97.92c-1.31 7.848-5.625 15.764-12.15 22.29-7.862 7.86-17.954 12.553-26.997 12.553-5.04 0-9.388-1.46-12.693-4.218 17.606-8.288 23.04-13.904 25.25-29.743 1.545-11.145 16.61-16.07 23.244-17.712 3.27 4.29 4.458 10.174 3.347 16.83z"/></g>
    </symbol>

    <symbol id="britt_icons_coffee_lovers_2" viewBox="0 0 207.3 207.3">
        <g fill="#231F20"><path d="M103.663 115.83c26.18 0 47.48-21.3 47.48-47.48s-21.3-47.48-47.48-47.48-47.48 21.3-47.48 47.48 21.3 47.48 47.48 47.48zm0-9.615c-6.15 0-11.957-1.483-17.097-4.096l50.866-50.867c2.613 5.14 4.096 10.947 4.096 17.097 0 20.88-16.986 37.865-37.865 37.865zm31.24-59.23L82.297 99.59c-3.87-2.653-7.222-6.006-9.876-9.875l52.607-52.606c3.87 2.653 7.222 6.006 9.876 9.875zm-31.24-16.5c6.15 0 11.956 1.483 17.096 4.096L69.892 85.447c-2.613-5.14-4.096-10.946-4.096-17.096 0-20.88 16.987-37.865 37.866-37.865zM117.447 120.34c-5.082 1.53-10.354 2.308-15.672 2.308-10.143 0-20.044-2.824-28.634-8.17-.305-.19-.687-.212-1.015-.06-.327.15-.555.46-.606.816l-8.267 57.663c-.192 1.34.226 2.15.61 2.594.766.884 2.09 1.076 3.453.466l18.52-8.327c.436-.196.978-.3 1.566-.3 1.1 0 2.203.36 2.88.938l15.435 13.19c.69.588 1.435.9 2.156.9 1.35 0 2.37-1.06 2.603-2.696l8.337-58.147c.052-.36-.084-.724-.36-.96-.28-.24-.657-.322-1.006-.214zM138.226 112.087c-.075-.352-.322-.642-.658-.77-.336-.133-.714-.084-1.006.125-3.476 2.48-7.234 4.543-11.173 6.134-.354.143-.605.462-.658.84l-4.527 31.572c-.075.527.25 1.03.762 1.178 1.39.4 22.282 6.583 22.493 6.646.398.118.79.178 1.16.178.893 0 1.662-.346 2.17-.974.564-.7.747-1.682.514-2.767l-9.078-42.163z"/></g>
    </symbol>

    <symbol id="britt_icons_coffee_lovers_3" viewBox="0 0 207.3 207.3">
        <path fill="#221F1F" d="M173.376 85.02c-2.586-36.435-33.035-65.294-70.117-65.294-37.15 0-67.64 28.96-70.132 65.49-7.583 2.616-12.777 9.99-12.777 19.183v8.548c0 11.527 8.155 20.22 18.968 20.22s18.967-8.692 18.967-20.22v-8.55c0-9.468-5.506-17.013-13.462-19.41 2.573-29.992 27.79-53.616 58.437-53.616 30.704 0 55.958 23.714 58.45 53.785-7.667 2.57-12.928 9.986-12.928 19.24v8.55c0 9.763 5.86 17.47 14.218 19.608-2.03 13.1-11.404 23.802-23.768 27.76-2.37-3.4-6.302-5.63-10.76-5.63-7.242 0-13.113 5.872-13.113 13.114 0 7.24 5.87 13.112 13.112 13.112 5.786 0 10.687-3.752 12.428-8.952 18.237-4.995 32.027-20.856 33.93-40.165 7.095-2.872 11.885-10.022 11.885-18.85v-8.548c-.002-9.418-5.45-16.94-13.34-19.377zm-126.74 27.928c0 4.268-2.263 8.574-7.32 8.574s-7.32-4.307-7.32-8.574v-8.55c0-4.076 2.072-8.177 6.662-8.54.036.002.072.006.108.006.215 0 .427-.014.637-.036 4.995.05 7.234 4.327 7.234 8.57v8.55zm128.43 0c0 3.86-1.858 7.74-5.952 8.448-.348.007-.69.04-1.02.107-.117.005-.227.02-.347.02-5.057 0-7.32-4.308-7.32-8.575v-8.55c0-4.154 2.153-8.333 6.93-8.553.13.01.262.02.395.02.132 0 .26-.01.39-.02 4.774.223 6.925 4.4 6.925 8.554v8.548z"/>
    </symbol>

    <symbol id="britt_icons_coffee_process" viewBox="0 0 207.3 207.3">
        <path fill="#231F20" d="M157.268 50.03c-8.003-8.002-19.062-12.233-31.98-12.233-20.034 0-42.368 10.373-59.742 27.748-14.113 14.113-23.59 31.256-26.682 48.27-3.202 17.62.764 33.052 11.168 43.455 8.003 8.003 19.062 12.234 31.98 12.234 20.034 0 42.37-10.373 59.743-27.748 14.113-14.113 23.59-31.256 26.68-48.27 3.203-17.62-.763-33.05-11.167-43.455zm-109.55 65.394c2.77-15.23 11.36-30.685 24.19-43.516 15.725-15.724 35.68-25.112 53.38-25.112 10.48 0 19.337 3.32 25.616 9.6 1.203 1.202 2.282 2.507 3.263 3.887-4.93 1.2-12.538 3.39-20.41 6.945-17.72 8.006-28.044 19.157-29.858 32.244-3.97 28.46-9.836 35.407-46.79 52.11-.24-.225-.484-.445-.716-.678-8.252-8.252-11.334-20.853-8.675-35.48zm111.863-23.548c-2.767 15.23-11.357 30.684-24.188 43.515-15.725 15.725-35.68 25.113-53.38 25.113-8.097 0-15.218-1.99-20.937-5.785 36.644-16.76 43.138-24.917 47.282-54.625 3.23-23.298 36.712-33.06 48.253-35.748 3.81 7.558 4.882 17.015 2.97 27.53z"/>
    </symbol>

    <symbol id="britt_icons_coffee_tour" viewBox="0 0 207.3 207.3">
        <g fill="#231F20"><path d="M171.086 117.257c-4.397-4.356-9.638-6.563-15.58-6.563h-.156c-11.25.073-16.845 9.408-21.782 17.644-5.865 9.782-10.048 15.722-18.665 15.722-7.316 0-10.058-12.158-13.132-29.333-3.246-18.138-6.925-38.693-23.747-38.693h-.05c-14.943.036-29.014 15.46-41.82 45.843-9.108 21.613-14.247 42.84-14.462 43.732-.58 2.416.91 4.844 3.326 5.425.354.084.707.125 1.055.125 2.033 0 3.877-1.387 4.373-3.45.05-.212 5.207-21.49 14.043-42.43 10.94-25.928 22.842-40.22 33.51-40.247h.02c8.628 0 11.617 12.966 14.896 31.28 3.233 18.065 6.577 36.747 21.99 36.747 14.338 0 21.018-11.142 26.385-20.094 4.918-8.204 8.23-13.233 14.122-13.27h.094c3.532 0 6.558 1.292 9.243 3.95 9.752 9.652 11.975 34.334 12.008 43.027.008 2.48 2.02 4.487 4.5 4.487h.014c2.484-.007 4.492-2.028 4.485-4.513-.005-1.43-.27-35.126-14.67-49.39zM133.757 51.173c1.242 0 2.25-1.007 2.25-2.25v-8.615c0-1.243-1.008-2.25-2.25-2.25s-2.25 1.007-2.25 2.25v8.615c0 1.243 1.007 2.25 2.25 2.25zM131.507 91.886v8.615c0 1.244 1.008 2.25 2.25 2.25s2.25-1.006 2.25-2.25v-8.614c0-1.243-1.008-2.25-2.25-2.25s-2.25 1.008-2.25 2.25zM152.988 70.405c0 1.243 1.008 2.25 2.25 2.25h8.615c1.242 0 2.25-1.007 2.25-2.25s-1.008-2.25-2.25-2.25h-8.615c-1.242 0-2.25 1.007-2.25 2.25zM103.66 72.655h8.615c1.242 0 2.25-1.007 2.25-2.25s-1.008-2.25-2.25-2.25h-8.615c-1.242 0-2.25 1.007-2.25 2.25s1.008 2.25 2.25 2.25zM153.447 93.277c.44.44 1.015.66 1.59.66s1.152-.22 1.592-.66c.878-.878.878-2.303 0-3.182l-6.092-6.09c-.88-.88-2.303-.88-3.182 0-.88.877-.88 2.302 0 3.18l6.09 6.092zM116.976 56.806c.44.44 1.015.66 1.59.66s1.152-.22 1.592-.66c.88-.878.88-2.303 0-3.182l-6.092-6.09c-.88-.88-2.303-.88-3.182 0-.88.877-.88 2.302 0 3.18l6.092 6.092zM116.976 84.004l-6.092 6.09c-.88.88-.88 2.304 0 3.183.44.44 1.015.66 1.59.66s1.152-.22 1.592-.66l6.092-6.09c.88-.88.88-2.304 0-3.183-.88-.88-2.303-.88-3.182 0zM148.947 57.465c.576 0 1.15-.22 1.59-.66l6.092-6.09c.878-.878.878-2.303 0-3.182-.88-.88-2.304-.88-3.183 0l-6.09 6.09c-.88.88-.88 2.304 0 3.183.44.44 1.014.66 1.59.66zM133.757 82.783c6.825 0 12.378-5.553 12.378-12.378s-5.553-12.378-12.378-12.378-12.378 5.553-12.378 12.378 5.55 12.378 12.377 12.378zm0-20.256c4.344 0 7.878 3.534 7.878 7.878s-3.534 7.878-7.878 7.878-7.878-3.534-7.878-7.878 3.533-7.878 7.877-7.878z"/></g>
    </symbol>

    <symbol id="britt_icons_date" viewBox="0 0 207.3 207.3">
        <path d="M169.567 51.91h-27.345v-8.438c0-2.485-2.015-4.5-4.5-4.5s-4.5 2.015-4.5 4.5v8.438h-60.17v-8.438c0-2.485-2.015-4.5-4.5-4.5s-4.5 2.015-4.5 4.5v8.438H37.744c-2.485 0-4.5 2.015-4.5 4.5V163.828c0 2.485 2.015 4.5 4.5 4.5h131.823c2.485 0 4.5-2.015 4.5-4.5V56.41c0-2.486-2.015-4.5-4.5-4.5zm-127.323 9h21.81v8.438c0 2.485 2.014 4.5 4.5 4.5s4.5-2.015 4.5-4.5V60.91h60.17v8.438c0 2.485 2.014 4.5 4.5 4.5s4.5-2.015 4.5-4.5V60.91h22.844v16.812H42.244V60.91zm122.823 98.418H42.244V86.72h122.823v72.608zM52.913 137.245c-1.242 0-2.25 1.008-2.25 2.25s1.008 2.25 2.25 2.25h13.39v9.266c0 1.243 1.008 2.25 2.25 2.25s2.25-1.007 2.25-2.25v-9.265h29.662v9.266c0 1.243 1.008 2.25 2.25 2.25s2.25-1.007 2.25-2.25v-9.265h30.508v9.382c0 1.242 1.008 2.25 2.25 2.25s2.25-1.008 2.25-2.25v-9.382h14.44c1.24 0 2.25-1.008 2.25-2.25s-1.01-2.25-2.25-2.25h-14.44V113.94h14.44c1.24 0 2.25-1.007 2.25-2.25s-1.01-2.25-2.25-2.25h-14.44V95.694c0-1.242-1.008-2.25-2.25-2.25s-2.25 1.008-2.25 2.25v13.748h-30.508V95.578c0-1.242-1.008-2.25-2.25-2.25s-2.25 1.008-2.25 2.25v13.864H70.802V95.578c0-1.242-1.008-2.25-2.25-2.25s-2.25 1.008-2.25 2.25v13.864h-13.39c-1.242 0-2.25 1.01-2.25 2.25s1.008 2.25 2.25 2.25h13.39v23.305h-13.39zm82.56-23.304v23.305h-30.51V113.94h30.51zm-64.67 0h29.66v23.305h-29.66V113.94z"/>
    </symbol>

    <symbol id="britt_icons_find" viewBox="0 0 207.3 207.3">
        <path fill="#231F20" d="M170.167 148.347c-.047-.047-.096-.093-.145-.14l-34.382-34.38c4.44-7.933 6.982-17.064 6.982-26.782 0-30.34-24.682-55.02-55.02-55.02s-55.02 24.682-55.02 55.02 24.682 55.02 55.02 55.02c9.326 0 18.113-2.34 25.818-6.45l34.344 34.343c.114.148.24.29.375.425 2.94 2.94 6.852 4.56 11.012 4.56 8.59 0 15.58-6.99 15.58-15.58-.002-4.16-1.622-8.073-4.565-11.016zm-82.565-25.633c-19.67 0-35.67-16-35.67-35.67s16-35.668 35.67-35.668c19.668 0 35.67 16 35.67 35.67s-16.002 35.668-35.67 35.668z"/>
    </symbol>

    <symbol id="britt_icons_free_coffee_1" viewBox="0 0 207.3 207.3">
        <g fill="#231F20"><path d="M104.216 34.752c-37.835 0-68.617 30.78-68.617 68.617s30.78 68.616 68.616 68.616 68.617-30.78 68.617-68.617-30.78-68.618-68.617-68.618zm0 128.234c-32.873 0-59.617-26.744-59.617-59.617S71.342 43.75 104.215 43.75s59.617 26.744 59.617 59.617-26.744 59.616-59.617 59.616zM130.596 84.632l.46-3.035c.097-.648-.092-1.307-.52-1.804-.427-.497-1.05-.783-1.706-.783H74.145c-.672 0-1.31.3-1.737.82s-.6 1.202-.47 1.862l6.375 32.63c.015.08.035.157.06.234 1.89 6.108 11.573 12.7 23.92 12.7 12.35 0 21.968-6.726 23.797-12.957.03-.1.05-.198.066-.298l.47-3.11c.693.11 1.394.177 2.105.177 7.33 0 13.292-5.963 13.292-13.292 0-6.696-4.98-12.235-11.426-13.146zm-8.864 28.53c-1.293 3.97-8.852 9.595-19.438 9.595-10.24 0-18.252-5.457-19.59-9.43L76.877 83.51h49.337l-.443 2.93v.016l-3.213 21.248-.006.037-.818 5.422zm7-6.594c-.485 0-.963-.045-1.434-.122l2.626-17.37c4.283.585 7.598 4.26 7.598 8.7 0 4.848-3.944 8.792-8.79 8.792z"/></g>
    </symbol>

    <symbol id="britt_icons_free_coffee_2" viewBox="0 0 207.3 207.3">
        <g fill="#231F20"><path d="M130.1 89.076l-2.624 17.37c.47.077.948.122 1.432.122 4.848 0 8.79-3.944 8.79-8.79 0-4.443-3.313-8.117-7.597-8.702zM82.882 113.328c1.337 3.972 9.35 9.43 19.59 9.43 10.585 0 18.144-5.626 19.438-9.596l.817-5.408c.003-.02.005-.04.01-.06l3.21-21.242v-.008l.444-2.934H77.055l5.828 29.818zM104.393 34.752c-37.835 0-68.616 30.78-68.616 68.617s30.78 68.616 68.616 68.616 68.616-30.78 68.616-68.617-30.782-68.618-68.617-68.618zm24.515 76.316c-.71 0-1.412-.066-2.104-.177l-.47 3.11c-.015.102-.037.2-.065.3-1.832 6.23-11.45 12.957-23.798 12.957-12.35 0-22.03-6.593-23.922-12.702-.023-.077-.043-.155-.06-.233l-6.376-32.63c-.13-.66.044-1.343.47-1.862.43-.52 1.066-.82 1.738-.82h54.685c.655 0 1.278.286 1.706.783.427.497.616 1.155.52 1.804l-.46 3.035c6.447.91 11.426 6.45 11.426 13.145 0 7.328-5.963 13.29-13.292 13.29z"/></g>
    </symbol>

    <symbol id="britt_icons_go_green" viewBox="0 0 207.3 207.3">
        <g fill="#231F20"><path d="M106.595 38.538c-1.69-1.458-4.19-1.458-5.88 0-2.14 1.847-52.422 45.58-52.422 75.39 0 30.525 24.835 55.36 55.36 55.36 30.528 0 55.363-24.835 55.363-55.36 0-29.81-50.28-73.543-52.42-75.39zm-2.94 121.75c-25.563 0-46.36-20.797-46.36-46.36 0-19.946 31.106-52.188 46.36-65.976 15.257 13.782 46.362 46.012 46.362 65.975 0 25.563-20.798 46.36-46.362 46.36zM121.99 115.584l-16.065 16.066.074-53.8c0-1.243-1.005-2.25-2.248-2.253h-.003c-1.242 0-2.25 1.005-2.25 2.247l-.035 24.775L87.247 88.4c-.88-.878-2.303-.878-3.182 0-.88.88-.88 2.304 0 3.183l17.39 17.39-.05 37.467c-.002 1.243 1.004 2.25 2.247 2.253h.003c1.24 0 2.248-1.005 2.25-2.247l.012-8.69c.28-.11.542-.275.768-.502l18.487-18.488c.88-.878.88-2.303 0-3.182-.88-.88-2.302-.88-3.18 0z"/></g>
    </symbol>

    <symbol id="britt_icons_go_green_carbon_neutral" viewBox="0 0 207.3 207.3">
        <g fill="#231F20"><path d="M85.09 112c1.703 0 3.207 1.078 3.908 2.43l3.057-1.502c-1.178-2.104-3.307-4.084-6.965-4.084-5.036 0-8.92 3.482-8.92 8.644 0 5.137 3.884 8.645 8.92 8.645 3.658 0 5.787-2.03 6.965-4.11l-3.057-1.478c-.7 1.354-2.205 2.43-3.908 2.43-3.057 0-5.262-2.33-5.262-5.486 0-3.16 2.205-5.49 5.262-5.49zM102.132 108.843c-5.062 0-8.744 3.607-8.744 8.644s3.683 8.645 8.744 8.645c5.036 0 8.72-3.608 8.72-8.645s-3.684-8.644-8.72-8.644zm0 14.13c-3.107 0-5.087-2.38-5.087-5.486 0-3.132 1.98-5.486 5.087-5.486 3.08 0 5.06 2.355 5.06 5.487 0 3.107-1.98 5.487-5.06 5.487zM131.778 114.205c0-3.332-2.807-5.337-6.39-5.337-2.33 0-4.81.853-6.438 2.73l2.03 2.356c1.126-1.178 2.58-1.93 4.483-1.93 1.378 0 2.706.702 2.706 2.18 0 2.055-2.005 3.76-8.845 8.82v2.806h12.577v-3.132h-6.814c4.335-3.156 6.69-5.637 6.69-8.493zM161.478 91.958c-4.542-23.73-25.468-41.246-49.94-41.246-12.816 0-25.06 4.783-34.472 13.47-7.976 7.358-13.332 16.96-15.412 27.464-2.377-.542-4.816-.815-7.296-.815-18.037 0-32.712 14.676-32.712 32.714s14.675 32.713 32.712 32.713h98.584c18.037 0 32.712-14.675 32.712-32.713 0-14.997-9.987-27.794-24.176-31.586zm-8.536 55.297H54.358c-13.075 0-23.712-10.638-23.712-23.713S41.283 99.83 54.358 99.83c3.206 0 6.316.63 9.243 1.868 1.326.56 2.843.455 4.078-.29 1.234-.742 2.038-2.032 2.16-3.468C71.685 76.503 90 59.71 111.54 59.71c21.032 0 38.88 15.718 41.517 36.56.25 1.98 1.772 3.556 3.74 3.877 11.507 1.878 19.86 11.717 19.86 23.396 0 13.075-10.638 23.712-23.713 23.712z"/></g>
    </symbol>

    <symbol id="britt_icons_go_green_energy" viewBox="0 0 207.3 207.3">
        <g fill="#231F20"><path d="M155.635 70.805h-12.423v-30.23c0-2.486-2.015-4.5-4.5-4.5h-18.678c-2.485 0-4.5 2.014-4.5 4.5v30.23H92.32v-30.23c0-2.486-2.015-4.5-4.5-4.5H69.142c-2.485 0-4.5 2.014-4.5 4.5v30.23H51.665c-2.485 0-4.5 2.015-4.5 4.5v69.463c0 2.485 2.015 4.5 4.5 4.5h30.313v18.003c0 2.486 2.015 4.5 4.5 4.5h33.557c2.485 0 4.5-2.014 4.5-4.5V149.27h31.1c2.486 0 4.5-2.015 4.5-4.5V75.305c0-2.485-2.014-4.5-4.5-4.5zm-31.1-25.73h9.678v25.73h-9.678v-25.73zm-50.893 0h9.678v25.73h-9.678v-25.73zm41.893 117.696H90.978V149.27h24.557v13.503zm35.6-22.502H56.165V79.805h94.971v60.463zM69.142 123.86c-1.242 0-2.25 1.008-2.25 2.25s1.008 2.25 2.25 2.25h69.57c1.242 0 2.25-1.006 2.25-2.25s-1.008-2.25-2.25-2.25h-69.57z"/></g>
    </symbol>

    <symbol id="britt_icons_go_green_recycling" viewBox="0 0 207.3 207.3">
        <g fill="#231F20"><path d="M115.762 70.148c.785 0 1.552-.15 2.29-.452 1.5-.617 2.704-1.833 3.31-3.348l7.007-17.66c1.2-3.048-.22-6.452-3.244-7.752-8.092-3.45-16.683-5.2-25.566-5.2-12.425 0-24.342 3.454-34.738 10.033l-3.493-5.043c-1.377-1.982-3.894-2.967-6.257-2.444-2.39.53-4.206 2.434-4.632 4.867l-5.943 34.793c-.317 1.836.216 3.68 1.448 5.045 1.14 1.274 2.777 2.005 4.49 2.005.06 0 .15-.002.226-.005.052 0 .103-.004.154-.007l34.33-2.168c2.405-.158 4.48-1.73 5.282-3.994.82-2.3.18-4.84-1.59-6.44l-2.987-2.764c4.298-1.887 8.956-2.87 13.724-2.87 4.766 0 9.396.973 13.77 2.896.766.338 1.58.507 2.418.508zm-16.19-12.403c-8.525.004-16.772 2.49-23.853 7.187-1.15.763-1.888 2.013-1.998 3.39s.417 2.727 1.43 3.664l2.474 2.286L54 75.765l4.085-23.914 1.883 2.72c.692.998 1.76 1.674 2.958 1.874 1.197.2 2.427-.093 3.407-.813 9.692-7.126 21.183-10.893 33.262-10.893 6.656 0 13.14 1.147 19.308 3.41l-4.807 12.113c-4.662-1.67-9.534-2.515-14.525-2.515zM107.165 151.137l-18.154-29.23c-1.27-2.023-3.61-3.12-6.013-2.756-2.398.366-4.333 2.12-4.923 4.45l-1.02 3.938c-3.694-2.894-6.763-6.534-9.02-10.735-2.258-4.203-3.59-8.743-3.962-13.472-.12-1.627-.913-3.16-2.172-4.196-1.25-1.033-2.855-1.53-4.52-1.34l-18.883 2.18c-3.257.39-5.58 3.253-5.29 6.523.788 8.77 3.313 17.174 7.505 24.974 5.88 10.954 14.562 19.824 25.28 25.875l-2.78 5.445c-1.13 2.2-.813 4.83.798 6.685 1.146 1.328 2.808 2.09 4.56 2.09h.002c.646 0 1.286-.104 1.916-.312l33.487-11.227c1.765-.596 3.13-1.94 3.732-3.642.593-1.616.462-3.413-.394-4.994-.036-.07-.094-.166-.148-.253zM74.537 160.4l1.502-2.94c.552-1.084.643-2.343.252-3.494-.39-1.15-1.23-2.094-2.327-2.617-10.867-5.173-19.624-13.52-25.323-24.138-3.152-5.868-5.21-12.127-6.136-18.64l12.942-1.495c.734 4.893 2.295 9.584 4.658 13.984 4.035 7.512 10.127 13.605 17.616 17.618 1.22.653 2.67.71 3.932.156 1.265-.554 2.205-1.66 2.55-2.996l.844-3.257 12.49 20.11-23 7.71zM172.362 89.7l-26.474-23.377c-1.102-.967-2.512-1.5-3.972-1.5-.367 0-.737.034-1.04.09-1.687.29-3.175 1.293-4.085 2.75-.035.06-.078.132-.11.19-.018.03-.07.126-.085.154L120.38 98.34c-1.138 2.14-.89 4.737.618 6.6 1.15 1.435 2.86 2.258 4.695 2.258.55 0 1.1-.076 1.615-.22l3.92-1.09c-.657 4.65-2.272 9.127-4.78 13.182-2.508 4.057-5.772 7.482-9.71 10.187-1.324.915-2.242 2.352-2.527 4-.25 1.583.147 3.23 1.11 4.55l11.33 15.247c1.133 1.518 2.938 2.424 4.83 2.424h.002c1.244 0 2.442-.38 3.468-1.1 7.195-5.066 13.208-11.457 17.868-18.993 6.543-10.572 9.878-22.527 9.754-34.832l6.102-.32c2.474-.12 4.592-1.71 5.39-4.026.812-2.323.145-4.877-1.702-6.508zm-14.72 2.098c-1.213.063-2.35.615-3.15 1.53-.8.913-1.196 2.112-1.1 3.323.96 11.994-1.884 23.75-8.227 33.998-3.506 5.67-7.896 10.584-13.07 14.642l-7.77-10.457c3.87-3.084 7.152-6.783 9.78-11.03 4.48-7.25 6.707-15.57 6.438-24.064-.044-1.38-.72-2.665-1.832-3.483-1.11-.817-2.537-1.08-3.87-.71l-3.242.9 11.162-20.88 18.186 16.058-3.303.173z"/></g>
    </symbol>

    <symbol id="britt_icons_go_green_reforest" viewBox="0 0 207.3 207.3">
        <path fill="#231F20" d="M159.576 86.81c0-31.167-25.355-56.523-56.522-56.523-31.166 0-56.52 25.356-56.52 56.522 0 25.782 17.36 47.573 41 54.336v40.13c0 2.286 1.854 4.14 4.14 4.14h23.992c2.287 0 4.14-1.854 4.14-4.14v-40.48c23.013-7.155 39.77-28.65 39.77-53.987zm-48.05 56.52v33.805H95.814V143.33h15.712zm-6.356-8.334l.037-20.614c.534-.03 1.06-.24 1.468-.647L125.37 95.04c.88-.88.88-2.304 0-3.183-.877-.88-2.303-.88-3.18 0l-16.973 16.972.087-48.05c.002-1.242-1.003-2.252-2.246-2.254h-.004c-1.24 0-2.248 1.005-2.25 2.246l-.037 20.265-15.442-15.445c-.878-.88-2.304-.88-3.182 0-.88.88-.88 2.303 0 3.182l18.613 18.614-.086 47.6c-25.497-1.246-45.857-22.38-45.857-48.18 0-26.6 21.64-48.24 48.24-48.24 26.602 0 48.243 21.64 48.243 48.24 0 25.89-20.504 47.076-46.126 48.188z"/>
    </symbol>

    <symbol id="britt_icons_go_green_water" viewBox="0 0 207.3 207.3">
        <g fill="#231F20"><path d="M107.417 39.094c-1.69-1.458-4.19-1.458-5.88 0-2.14 1.847-52.423 45.58-52.423 75.39 0 30.525 24.835 55.36 55.362 55.36 30.526 0 55.36-24.835 55.36-55.36.002-29.81-50.28-73.543-52.42-75.39zm-2.94 121.75c-25.565 0-46.363-20.798-46.363-46.36 0-19.947 31.108-52.188 46.363-65.976 15.256 13.782 46.36 46.012 46.36 65.975 0 25.563-20.797 46.36-46.36 46.36zM143.144 112.437c-1.242 0-2.25 1.007-2.25 2.25 0 14.548-8.566 27.828-21.824 33.83-1.133.514-1.635 1.847-1.122 2.98.376.83 1.194 1.32 2.05 1.32.312 0 .627-.063.928-.2 14.864-6.73 24.47-21.62 24.47-37.93-.002-1.243-1.01-2.25-2.252-2.25z"/></g>
    </symbol>

    <symbol id="britt_icons_go_people" viewBox="0 0 207.3 207.3">
        <g fill="#231F20"><path d="M123.723 84.67c.62-1.077.247-2.453-.83-3.072-1.078-.617-2.453-.247-3.072.83-3.11 5.42-8.923 8.786-15.165 8.786S92.602 87.848 89.49 82.43c-.62-1.08-1.995-1.45-3.073-.832-1.077.62-1.45 1.995-.83 3.072 3.913 6.812 11.22 11.044 19.068 11.044s15.155-4.232 19.068-11.044zM167.153 165.793c-.19-27.392-17.958-50.67-42.557-59.135 11.117-6.76 18.56-18.988 18.56-32.922 0-21.23-17.272-38.5-38.5-38.5s-38.5 17.27-38.5 38.5c0 13.788 7.29 25.9 18.212 32.7-25.07 8.32-43.213 31.973-43.213 59.8 0 2.485 2.015 4.5 4.5 4.5h117.02c2.485 0 4.5-2.015 4.5-4.5 0-.15-.007-.298-.022-.443zM75.155 73.736c0-16.267 13.233-29.5 29.5-29.5s29.5 13.233 29.5 29.5-13.233 29.5-29.5 29.5-29.5-13.234-29.5-29.5zm-24.814 88c2.296-27.678 25.556-49.5 53.815-49.5s51.52 21.822 53.814 49.5H50.34z"/></g>
    </symbol>

    <symbol id="britt_icons_go_people_character" viewBox="0 0 207.3 207.3">
        <path fill="#231F20" d="M154.24 90.44c-.522-1.58-1.44-3.778-2.738-6.186V53.32c0-8.81-7.168-15.978-15.978-15.978-2.95 0-5.708.82-8.083 2.22-2.15-6.288-8.102-10.828-15.108-10.828-7.376 0-13.584 5.032-15.414 11.838-2.304-1.29-4.955-2.034-7.78-2.034-7.33 0-13.51 4.97-15.38 11.716-2.256-1.22-4.835-1.913-7.573-1.913-8.81 0-15.977 7.17-15.977 15.98v36.58c0 .97.1 1.913.267 2.835-.006.092-.028.18-.028.274 0 3.018.108 29.785 3.86 40.04 3.45 9.428 8.4 30.813 8.45 31.028.48 2.08 2.33 3.49 4.38 3.49.335 0 .676-.04 1.016-.117 2.422-.558 3.932-2.974 3.373-5.395-.208-.9-5.126-22.146-8.767-32.096-1.804-4.93-2.672-16.187-3.053-25.467 1.982.883 4.17 1.385 6.477 1.385 7.332 0 13.51-4.972 15.383-11.716 2.255 1.22 4.833 1.913 7.57 1.913 8.03 0 14.677-5.96 15.794-13.686 2.82.648 6.015 1.172 9.626 1.57v14.44c-5.698 2.875-17.548 10.847-20.62 28.462-.428 2.448 1.21 4.78 3.66 5.206 2.45.433 4.778-1.21 5.205-3.66 3.058-17.52 17.114-22.608 17.688-22.808 1.833-.615 3.068-2.333 3.068-4.267v-21.47c0-2.348-1.805-4.3-4.146-4.486-19.867-1.57-21.477-5.99-21.49-6.034-.226-.72.66-2.213 1.76-3.426 5.275.042 20.804.143 29.856-.097 7.983-.203 14.353 10.99 16.165 16.46.063.19 6.126 18.997-1.39 41.54-8.293 24.88-7.9 38.105-7.88 38.655.093 2.425 2.087 4.32 4.494 4.32h.156c2.478-.086 4.42-2.166 4.345-4.644-.003-.12-.276-12.385 7.424-35.484 8.51-25.526 1.68-46.374 1.39-47.226zM73.163 100.9c0 3.848-3.13 6.978-6.978 6.978-3.847 0-6.977-3.13-6.977-6.978V64.318c0-3.848 3.13-6.978 6.977-6.978 3.848 0 6.978 3.13 6.978 6.978V100.9zm22.953-9.803c0 3.847-3.13 6.977-6.977 6.977s-6.977-3.13-6.977-6.977V54.514c0-3.847 3.13-6.977 6.978-6.977s6.977 3.13 6.977 6.977v13.78c-.36.156-.704.346-1.014.594-.83.665-8.052 6.712-5.784 14.094.92 2.994 3.164 5.42 6.8 7.333v.782zm9.24-23.143V44.71c0-3.847 3.13-6.977 6.977-6.977 3.847 0 6.977 3.13 6.977 6.978V67.96c-4.88.027-9.968.015-13.956-.004zm24.417-.137c-.156 0-.314.002-.472.007l-.753.018V53.32c0-3.848 3.13-6.978 6.977-6.978 3.848 0 6.978 3.13 6.978 6.977v19.5c-3.528-2.94-7.782-5.003-12.73-5.003z"/>
    </symbol>

    <symbol id="britt_icons_go_people_commitment" viewBox="0 0 207.3 207.3">
        <g fill="#231F20"><path d="M198.54 91.54l-24.897-44.795c-1.208-2.172-3.948-2.955-6.12-1.747l-20.417 11.348c-2.172 1.208-2.954 3.947-1.747 6.12l1.423 2.562-2.34 1.357c-5.51-1.32-21.704-4.498-33.71.24-.688-.664-1.347-1.303-1.956-1.9-8.443-8.285-20.635-4.502-28.704-2-1.438.447-2.796.87-3.89 1.143-3.982.994-21.89-.19-35.376-1.498v-4.527c0-2.485-2.015-4.5-4.5-4.5h-23.6c-2.486 0-4.5 2.015-4.5 4.5v52.248c0 2.486 2.014 4.5 4.5 4.5h23.6c2.485 0 4.5-2.014 4.5-4.5v-3.96h.29c4.145 5.954 8.923 7.57 12.364 7.828.314.024.626.03.936.034.004 2.185.613 4.393 1.89 6.356 1.65 2.533 4.122 4.21 6.838 4.925-.02 2.225.588 4.48 1.89 6.48 1.88 2.888 4.83 4.656 7.992 5.16.075 2.05.675 4.107 1.874 5.95 1.91 2.933 4.923 4.716 8.143 5.185.133 1.925.737 3.842 1.862 5.57 1.71 2.626 4.337 4.428 7.4 5.075.813.172 1.63.257 2.44.257 2.196 0 4.353-.627 6.283-1.845l.976 1.73c.03.053.06.105.093.157 1.65 2.663 4.236 4.524 7.285 5.24.898.212 1.805.316 2.705.316 2.155 0 4.273-.6 6.15-1.762 2.26-1.4 3.933-3.478 4.828-5.936.432.048.866.08 1.303.08 2.105 0 4.236-.565 6.153-1.753 2.344-1.45 3.99-3.6 4.852-6.013.47.057.94.09 1.41.09 2.154 0 4.272-.6 6.15-1.763 2.285-1.415 3.974-3.524 4.86-6.02.464.055.93.087 1.398.087 2.105 0 4.236-.566 6.153-1.754 5.477-3.392 7.186-10.593 3.83-16.082l-1.904-3.272c3.015-3.474 3.943-7.548 4.188-10.317l7.976-4.28.904 1.52c.84 1.413 2.334 2.202 3.872 2.202.74 0 1.49-.184 2.183-.567l20.417-11.348c1.043-.58 1.812-1.55 2.14-2.698.33-1.147.188-2.377-.39-3.42zM47.495 99.412c-.798-1.41-2.295-2.283-3.916-2.283h-7.125c-.025 0-.05.007-.074.008-.024 0-.048-.008-.073-.008-2.485 0-4.5 2.015-4.5 4.5v3.96h-14.6V62.34h14.6v4.11c0 2.35 1.808 4.258 4.106 4.46.024.003.045.012.07.014 5.758.61 34.864 3.55 42.384 1.672 1.337-.334 2.812-.792 4.373-1.276 8.276-2.567 15.476-4.354 19.734-.174 6.463 6.34 17.896 16.847 21.787 20.41-.023 1.56-.363 3.316-1.04 3.706-.04.027-4.214 2.18-19.845-10.222-1.688-1.338-4.09-1.295-5.726.108C86.624 94.598 76.72 97.6 74.48 95.598c-.925-.826-2.15-1.23-3.392-1.122-1.236.108-2.376.726-3.145 1.7-1.903 2.412-8.567 9.21-13.827 8.803-.897-.067-3.628-.276-6.622-5.567zm128.328-.398l-.872-1.466c-.062-.105-.142-.19-.21-.286-.09-.126-.174-.256-.273-.37-.1-.114-.212-.212-.32-.315-.106-.1-.207-.202-.32-.29-.122-.093-.252-.17-.382-.25-.117-.072-.23-.148-.352-.21-.137-.067-.28-.117-.42-.17-.13-.05-.254-.102-.385-.14-.142-.04-.29-.06-.435-.086-.138-.024-.274-.053-.415-.064-.145-.012-.29-.005-.437-.002-.145.002-.288 0-.433.017-.146.017-.288.053-.433.084-.144.03-.287.056-.43.102-.142.046-.28.113-.42.174-.11.048-.223.08-.33.137l-14.102 7.57c-1.622.87-2.55 2.64-2.344 4.47.007.052.473 5.23-3.536 7.936-2.06 1.39-2.604 4.186-1.214 6.246.052.077.112.145.168.218l3.476 5.973.063.105c.79 1.277.396 2.96-.88 3.75-1.276.792-2.96.397-3.75-.874l-6.352-10.29c-1.305-2.117-4.078-2.773-6.192-1.467-.533.33-.973.754-1.313 1.235-1.092 1.438-1.26 3.45-.255 5.08l6.33 10.255c.383.618.502 1.35.336 2.057s-.598 1.31-1.218 1.693c-.618.384-1.35.502-2.057.336-.708-.166-1.31-.6-1.69-1.212l-6.232-10.1c-.988-1.602-2.82-2.362-4.567-2.07-.617.078-1.227.277-1.79.625-2.115 1.304-2.77 4.077-1.466 6.19l6.274 10.166c.79 1.277.395 2.96-.882 3.75-1.275.79-2.96.396-3.748-.875l-6.196-10.04c-1.306-2.115-4.08-2.77-6.192-1.465-2.115 1.305-2.77 4.077-1.466 6.192l6.2 10.047c.383.618.502 1.35.336 2.057s-.6 1.31-1.22 1.694c-.618.384-1.35.502-2.056.336-.686-.16-1.27-.57-1.655-1.158l-4.78-8.47c-1.22-2.164-3.964-2.93-6.13-1.708-1.806 1.02-2.618 3.098-2.133 5.017l-.526.354c-.61.398-1.338.534-2.05.383s-1.323-.57-1.72-1.18-.533-1.338-.383-2.05c.124-.582.43-1.088.83-1.447l.692-.422c.17-.104.316-.232.468-.354l.786-.49c2.108-1.314 2.753-4.09 1.438-6.2-1.313-2.108-4.09-2.752-6.2-1.438l-1.745 1.09c-.166.107-.318.23-.477.345l-1.534.936c-.038.022-.075.046-.112.07-1.26.82-2.95.46-3.77-.797-.81-1.244-.47-2.91.752-3.74l2.354-1.43c2.124-1.29 2.802-4.057 1.512-6.182-1.29-2.124-4.06-2.802-6.182-1.512l-.823.5c-.378.108-.75.25-1.104.463l-2.49 1.513-.115.073c-1.26.823-2.95.462-3.77-.796-.662-1.018-.546-2.31.184-3.204l2.016-1.222c.35-.21.643-.474.912-.756 2.068-1.307 2.722-4.03 1.448-6.13-1.287-2.125-4.055-2.804-6.18-1.515l-2.372 1.438c-.04.025-.082.05-.122.077-.405.264-.78.554-1.142.858-1.217.595-2.714.212-3.47-.95-.82-1.26-.464-2.95.795-3.77.174-.113.34-.238.497-.375l3.452-3c.162-.14.295-.302.432-.46 1.352-1.116 2.527-2.235 3.47-3.21 9.217 3.042 22.042-5.56 28.17-10.314 12.5 9.39 21.147 12.165 27.07 8.752 6.688-3.858 5.522-13.205 5.367-14.258-.15-1.027-.653-1.97-1.42-2.67-.1-.09-6.69-6.1-13.374-12.353 9.23-1.786 21.025.462 25.588 1.75 1.173.332 2.43.176 3.486-.438l7.422-4.305c1.542-.894 2.34-2.565 2.214-4.23.09-.885-.074-1.803-.538-2.638l-1.053-1.895 12.55-6.976 20.524 36.928-12.66 7.04zM36.455 73.888c-1.242 0-2.25 1.008-2.25 2.25v17.186c0 1.242 1.008 2.25 2.25 2.25s2.25-1.008 2.25-2.25V76.138c0-1.242-1.008-2.25-2.25-2.25zM156.396 74.162c-1.09.595-1.494 1.96-.9 3.053l8.532 15.673c.408.75 1.18 1.174 1.98 1.174.362 0 .73-.088 1.073-.273 1.092-.596 1.495-1.962.9-3.054l-8.53-15.673c-.596-1.092-1.962-1.496-3.054-.9z"/></g>
    </symbol>

    <symbol id="britt_icons_go_people_comunication" viewBox="0 0 207.3 207.3">
        <path d="M181.42 41.722h-77.448c-2.502 0-4.53 2.027-4.53 4.53v12.665c0 2.502 2.028 4.53 4.53 4.53s4.53-2.028 4.53-4.53V50.78h68.39v39.383h-12.21c-1.203 0-2.356.48-3.206 1.33s-1.326 2.006-1.323 3.21l.008 3.782-6.92-6.98c-.85-.86-2.01-1.342-3.217-1.342H141.3c-2.502 0-4.53 2.027-4.53 4.53s2.028 4.528 4.53 4.528h6.835l13.36 13.48c.868.876 2.033 1.342 3.22 1.342.58 0 1.168-.112 1.727-.344 1.698-.7 2.805-2.358 2.8-4.196l-.02-10.28h12.2c2.502 0 4.53-2.028 4.53-4.53v-48.44c-.002-2.502-2.03-4.53-4.53-4.53zM129.9 65.722H26.637c-2.502 0-4.53 2.027-4.53 4.53v64.588c0 2.502 2.028 4.53 4.53 4.53h21.346v21.345c0 1.835 1.106 3.488 2.803 4.188.56.23 1.145.343 1.726.343 1.185 0 2.35-.465 3.216-1.338L80.1 139.37h49.803c2.502 0 4.53-2.027 4.53-4.53V70.253c-.002-2.502-2.03-4.53-4.532-4.53zm-4.528 64.59h-47.16c-1.206 0-2.362.48-3.213 1.336l-17.96 18.08V134.84c0-2.502-2.027-4.53-4.53-4.53H31.166V74.78h94.207v55.53z"/>
    </symbol>

    <symbol id="britt_icons_go_people_creativity" viewBox="0 0 207.3 207.3">
        <g fill="#231F20"><path d="M103.393 86.403c-5.247 0-9.5 4.253-9.5 9.5 0 4.47 3.09 8.21 7.25 9.22v24.402c0 1.242 1.008 2.25 2.25 2.25s2.25-1.008 2.25-2.25v-24.4c4.16-1.013 7.25-4.752 7.25-9.222 0-5.247-4.253-9.5-9.5-9.5zM90.132 161.092h26.88c1.242 0 2.25-1.008 2.25-2.25s-1.008-2.25-2.25-2.25h-26.88c-1.242 0-2.25 1.008-2.25 2.25s1.008 2.25 2.25 2.25zM103.655 31.946c-26.985 0-48.94 21.955-48.94 48.94 0 11.045 3.785 21.874 10.658 30.49.144.18.3.352.465.51 7.735 7.423 19.922 22.383 20.326 31.483H77.8c-2.485 0-4.5 2.014-4.5 4.5v21.943c0 2.485 2.015 4.5 4.5 4.5h51.48c2.484 0 4.5-2.015 4.5-4.5V147.87c0-2.485-2.016-4.5-4.5-4.5h-8.106c.4-9.077 12.59-24.05 20.326-31.486.285-.273.533-.572.743-.893 6.68-8.552 10.353-19.223 10.353-30.103 0-26.986-21.955-48.94-48.94-48.94zm21.124 133.368H82.3V152.37h42.48v12.944zm9.14-60.588c-3.635 3.546-22.795 22.976-23.162 38.644h-14.18c-.374-15.826-19.916-35.488-23.267-38.742-5.353-6.828-8.182-15.03-8.182-23.74 0-21.244 17.283-38.527 38.526-38.527s38.525 17.284 38.525 38.527c0 8.753-2.855 16.99-8.26 23.84z"/></g>
    </symbol>

    <symbol id="britt_icons_go_social" viewBox="0 0 207.3 207.3">
        <g fill="#231F20"><path d="M189.864 76.944c-.415-13.087-5.594-24.005-14.98-31.574-7.93-6.395-18.428-9.916-29.56-9.916-22.003 0-39.904 17.9-39.904 39.904 0 3.744 2.318 7.097 5.82 8.42 1.036.39 2.112.58 3.178.58 2.536 0 5.013-1.072 6.755-3.05l.116-.13c.768-.874 1.36-1.887 1.743-2.985 3.205-9.185 6.713-10.668 13.867-10.668 8.007 0 9.358 2.596 9.358 8.416.075 24.626-23.56 34.444-24.565 34.85-.496.194-.935.417-1.387.695l-7.277 3.14c-.168.073-.334.15-.496.233-3.434 1.737-5.986 4.707-7.186 8.364-1.2 3.656-.904 7.562.833 10.996.866 1.71 2.033 3.193 3.42 4.397.147 1.842.654 3.656 1.513 5.354.865 1.71 2.032 3.19 3.42 4.396.146 1.842.653 3.656 1.512 5.354.855 1.69 2.007 3.16 3.373 4.357.154 1.82.658 3.614 1.508 5.294 2.467 4.877 7.395 7.907 12.86 7.907 2.245 0 4.492-.537 6.5-1.552.09-.046.18-.094.27-.143l3.585-1.97c.337-.183.66-.39.97-.614.485-.354 12.006-8.832 23.21-24 14.98-20.27 22.428-43.11 21.544-66.054zm-50.053 82.78l-3.584 1.97c-.783.396-1.616.583-2.437.583-1.976 0-3.88-1.086-4.83-2.968-.575-1.135-.688-2.37-.45-3.524l10.764-5.257c1.116-.546 1.58-1.894 1.034-3.01-.545-1.116-1.892-1.578-3.01-1.035L126.21 151.9c-.885-.507-1.64-1.264-2.134-2.242-.597-1.18-.696-2.47-.417-3.663l11.138-5.44c1.116-.545 1.58-1.893 1.034-3.01-.544-1.115-1.892-1.577-3.01-1.034l-11.544 5.64c-.885-.508-1.64-1.266-2.135-2.244-.576-1.14-.688-2.38-.445-3.54l.03-.01 11.825-5.775c1.116-.544 1.58-1.892 1.034-3.008-.544-1.116-1.892-1.58-3.01-1.035l-11.825 5.775c-.094.046-.176.105-.26.16-.948-.504-1.76-1.286-2.282-2.317-1.348-2.665-.28-5.918 2.385-7.266l7.884-3.405.536-.332s30.336-11.89 30.24-43.213c0-11.892-6.466-17.416-18.358-17.416s-18.202 4.774-22.364 16.703l-.116.13c0-17.067 13.836-30.903 30.904-30.903 17.068 0 34.844 10.19 35.545 32.806 1.988 51.09-41.056 82.465-41.056 82.465zM94.765 114.858c-.163-.082-.328-.16-.495-.232l-7.277-3.14c-.454-.28-.932-.518-1.428-.712-.966-.39-24.6-10.208-24.524-34.806 0-2.25.318-5.19 1.83-6.585 1.296-1.198 3.97-1.858 7.53-1.858 7.154 0 10.662 1.482 13.867 10.668.383 1.098.975 2.112 1.744 2.984l.117.13c1.743 1.98 4.22 3.052 6.755 3.052 1.066 0 2.14-.19 3.178-.582 3.503-1.323 5.82-4.676 5.82-8.42 0-22.003-17.9-39.904-39.904-39.904-20.823 0-43.637 12.983-44.54 41.49-.882 22.943 6.566 45.784 21.542 66.055 11.205 15.166 22.726 23.644 23.21 23.998.31.226.634.43.97.615l3.585 1.97c.09.048.18.096.27.142 2.008 1.016 4.255 1.552 6.5 1.552 5.465 0 10.393-3.03 12.86-7.906.85-1.68 1.355-3.472 1.508-5.293 1.368-1.197 2.52-2.666 3.374-4.357.86-1.7 1.366-3.512 1.513-5.354 1.387-1.205 2.555-2.687 3.42-4.397.858-1.7 1.365-3.513 1.512-5.355 1.386-1.205 2.554-2.687 3.418-4.397 1.737-3.434 2.033-7.34.833-10.996-1.2-3.657-3.75-6.627-7.185-8.364zm-1.678 15.297c-.522 1.03-1.334 1.813-2.282 2.318-.084-.057-.167-.116-.26-.16l-11.826-5.776c-1.116-.545-2.465-.082-3.01 1.035-.546 1.117-.082 2.464 1.034 3.01l11.826 5.774c.01.005.02.006.03.01.242 1.16.13 2.4-.446 3.54-.495.98-1.25 1.736-2.135 2.243l-11.546-5.64c-1.115-.544-2.464-.08-3.01 1.036-.545 1.117-.08 2.464 1.035 3.01l11.138 5.44c.28 1.193.18 2.482-.417 3.662-.494.978-1.248 1.735-2.133 2.242l-11.09-5.415c-1.114-.544-2.463-.082-3.008 1.035-.547 1.117-.083 2.464 1.033 3.01l10.764 5.256c.238 1.155.125 2.39-.45 3.523-.95 1.88-2.854 2.967-4.83 2.967-.82 0-1.653-.188-2.436-.583l-3.584-1.97S24.442 128.35 26.426 77.26c.702-22.615 18.478-32.806 35.546-32.806 17.068 0 30.904 13.836 30.904 30.904l-.116-.13c-4.162-11.93-10.472-16.704-22.364-16.704S52.04 64.048 52.04 75.94c-.095 31.323 30.24 43.213 30.24 43.213l.538.332 7.884 3.404c2.665 1.347 3.733 4.6 2.385 7.265z"/></g>
    </symbol>

    <symbol id="britt_icons_gourmet_accessories" viewBox="0 0 207.3 207.3">
        <path fill="#231F20" d="M187.96 116.29c0-15.93-12.283-29.04-27.875-30.373l.026-20.67c0-.013-.003-.025-.003-.04 0-.012.004-.025.004-.038 0-7.908-2.56-14.45-7.615-19.444-11.312-11.18-32.062-11.402-44.208-11.277v-4.03h2.104c2.486 0 4.5-2.015 4.5-4.5s-2.014-4.5-4.5-4.5H97.47c-2.485 0-4.5 2.015-4.5 4.5s2.015 4.5 4.5 4.5h1.818v4.027c-11.615-.116-33.04.18-44.453 11.453-3.975 3.927-6.398 8.792-7.248 14.5H26.298c-2.485 0-4.5 2.015-4.5 4.5 0 15.182 11.222 27.79 25.808 29.97v86.177c0 2.485 2.015 4.5 4.5 4.5h103.36c2.484 0 4.498-2.01 4.5-4.495l.044-34.382c15.628-1.298 27.95-14.423 27.95-30.38zm-27.886-21.08c9.64 1.894 16.717 10.47 16.717 21.08 0 10.227-7.184 18.793-16.768 20.954l.052-42.035zm-59.172-51.744c1.075.013 2.044.025 2.885.025.912 0 1.947-.01 3.082-.024 10.546-.127 30.173-.356 39.3 8.662 3.324 3.287 4.94 7.553 4.94 13.042 0 .012.004.022.004.034 0 .012-.003.022-.003.034l-.108 87.808H106.18v-85.93h23.624c1.242 0 2.25-1.007 2.25-2.25s-1.008-2.25-2.25-2.25h-73.42c.444-4.18 2.007-7.58 4.773-10.313 9.326-9.21 29.866-8.96 39.745-8.837zM31.277 69.4h16.33v16.328c-8.146-1.757-14.574-8.184-16.33-16.33zm25.33 107.146V67.116h45.072v85.93H71.49c-1.243 0-2.25 1.006-2.25 2.25s1.007 2.25 2.25 2.25h79.507l-.023 19H56.606z"/>
    </symbol>

    <symbol id="britt_icons_gourmet_chocolates" viewBox="0 0 207.3 207.3">
        <g fill="#231F20"><path d="M103.65 35.124c-37.76 0-68.482 30.72-68.482 68.482s30.722 68.482 68.482 68.482 68.482-30.72 68.482-68.482-30.72-68.482-68.482-68.482zm0 129.463c-33.625 0-60.98-27.356-60.98-60.98s27.355-60.982 60.98-60.982 60.98 27.356 60.98 60.98-27.355 60.982-60.98 60.982zM103.65 65.692c-20.94 0-37.914 16.975-37.914 37.914 0 20.94 16.975 37.914 37.914 37.914 20.94 0 37.914-16.975 37.914-37.914 0-20.94-16.975-37.914-37.914-37.914zm29.68 39.933c-.17.038-.337.057-.502.057-1.027 0-1.955-.708-2.192-1.75-3.065-13.484-13.822-23.86-27.403-26.433-1.22-.232-2.023-1.41-1.792-2.63.233-1.222 1.42-2.023 2.63-1.792 15.342 2.907 27.492 14.626 30.955 29.855.274 1.21-.484 2.417-1.696 2.692z"/></g>
    </symbol>

    <symbol id="britt_icons_gourmet_coffee" viewBox="0 0 207.3 207.3">
        <path fill="#231F20" d="M174.84 127.723c-1.737-10.408-6.725-20.818-14.23-29.917 4.712-18.703 1.694-36.637-10-48.332-8.004-8.003-19.063-12.234-31.98-12.234-20.035 0-42.37 10.373-59.743 27.748-14.115 14.112-23.59 31.255-26.683 48.27-3.202 17.617.764 33.05 11.168 43.453 8.003 8.004 19.062 12.235 31.98 12.235 11.274 0 23.276-3.285 34.713-9.254 9.936 6.457 20.94 10.11 31.206 10.11h.005c9.93 0 18.473-3.294 24.705-9.526 7.9-7.9 11.047-19.46 8.86-32.55zM41.06 114.867c2.768-15.23 11.358-30.685 24.19-43.516 15.724-15.723 35.68-25.11 53.38-25.11 10.478 0 19.336 3.318 25.615 9.598 1.21 1.21 2.292 2.514 3.27 3.887-4.93 1.2-12.54 3.39-20.415 6.946-17.72 8.007-28.045 19.158-29.86 32.245-3.968 28.458-9.834 35.407-46.788 52.11-.24-.225-.483-.446-.716-.678-8.254-8.253-11.336-20.854-8.676-35.48zm13.356 39.293c36.644-16.76 43.138-24.917 47.28-54.625 3.233-23.306 36.737-33.067 48.267-35.75 9.562 18.893 1.333 48.484-21.23 71.048-15.725 15.724-35.68 25.112-53.38 25.112-8.096 0-15.218-1.99-20.937-5.785zm86.856 6.642c-7.273 0-15.055-2.25-22.423-6.305 5.715-3.787 11.19-8.244 16.245-13.3.38-.38.743-.772 1.117-1.157 3.468 6.04 9.54 12.186 20.085 16.566-4.108 2.746-9.213 4.195-15.022 4.195 0 .002-.002.002-.003.002zm18.925-7.514c-7.154-2.67-16.077-7.68-20.753-16.727 7.875-8.867 13.846-18.56 17.765-28.327 4.532 6.646 7.56 13.833 8.753 20.972 1.636 9.793-.418 18.3-5.766 24.083z"/>
    </symbol>

    <symbol id="britt_icons_gourmet_gifts" viewBox="0 0 207.3 207.3">
        <path fill="#231F20" d="M174.718 51.72h-43.303c.905-2.092 1.39-4.362 1.39-6.71 0-4.515-1.76-8.76-4.95-11.953-3.194-3.193-7.44-4.952-11.956-4.952s-8.763 1.76-11.955 4.952c-.066.066-.126.14-.19.207-.064-.068-.124-.14-.19-.207-3.193-3.193-7.44-4.952-11.955-4.952s-8.762 1.76-11.954 4.952c-5.038 5.038-6.212 12.486-3.55 18.663H32.603c-2.485 0-4.5 2.015-4.5 4.5v23.695c0 2.485 2.015 4.5 4.5 4.5h6.928v90.282c0 2.485 2.015 4.5 4.5 4.5h119.26c2.486 0 4.5-2.015 4.5-4.5V84.414h6.928c2.485 0 4.5-2.015 4.5-4.5V56.22c0-2.487-2.015-4.5-4.5-4.5zm-64.41-12.3c1.494-1.493 3.48-2.315 5.59-2.315s4.098.822 5.592 2.316c1.493 1.494 2.315 3.48 2.315 5.59 0 1.87-.644 3.64-1.826 5.056-2.182.806-7.234 1.388-13.213 1.534-.403-5.213.027-10.666 1.542-12.18zM85.63 50.183c-2.687-3.103-2.557-7.816.39-10.763 1.494-1.493 3.48-2.315 5.59-2.315 2.113 0 4.1.822 5.593 2.316 1.516 1.517 1.94 7.046 1.527 12.3H95.24c-5.006-.18-8.14-.85-9.612-1.537zm73.163 120.013h-52.88V159.35h45.144c1.242 0 2.25-1.008 2.25-2.25s-1.008-2.25-2.25-2.25H105.91V91.76c0-1.243-1.008-2.25-2.25-2.25s-2.25 1.007-2.25 2.25v63.087H56.465c-1.242 0-2.25 1.006-2.25 2.25s1.008 2.25 2.25 2.25h44.945v10.846H48.53V84.414h110.26v85.782zm11.428-94.782H37.103V60.72h57.923c.93.03 1.892.047 2.89.047 1.135 0 2.14-.02 2.958-.048h69.344v14.694z"/>
    </symbol>

    <symbol id="britt_icons_heart" viewBox="0 0 207.3 207.3">
        <path fill="#231F20" d="M103.69 172.837h-.007c-.705 0-1.38-.164-1.98-.46-2.095-.94-20.962-9.603-39.874-24.856-26.33-21.236-40.21-45.343-40.135-69.713 0-23.816 19.387-43.203 43.217-43.203 16.963 0 31.674 9.822 38.744 24.08 7.07-14.257 21.78-24.08 38.744-24.08 23.83 0 43.216 19.387 43.216 43.216.075 24.355-13.792 48.462-40.102 69.7-19.616 15.834-39.185 24.567-40.008 24.932-.58.256-1.197.384-1.816.384zM64.91 43.604c-18.866 0-34.216 15.35-34.216 34.216-.146 48.02 61.52 80.015 72.99 85.546 11.467-5.535 73.078-37.53 72.93-85.532 0-18.88-15.35-34.23-34.215-34.23-18.868 0-34.218 15.35-34.218 34.216 0 2.485-2.015 4.5-4.5 4.5s-4.556-2.015-4.556-4.5c0-18.867-15.348-34.216-34.215-34.216zM166.442 78.757c-1.242 0-2.25-1.007-2.25-2.25 0-11.268-9.166-20.434-20.434-20.434-1.242 0-2.25-1.007-2.25-2.25s1.008-2.25 2.25-2.25c13.748 0 24.934 11.186 24.934 24.934 0 1.243-1.008 2.25-2.25 2.25z"/><path stroke="#231F20" stroke-width="9" stroke-linecap="round" stroke-linejoin="round" stroke-miterlimit="10" d="M92.943 48.92M117.61 48.92" fill="none"/>
    </symbol>

    <symbol id="britt_icons_heart_full" viewBox="0 0 207.3 207.3">
        <g stroke-linecap="round" stroke-linejoin="round" stroke-miterlimit="10"><path fill="#231F20" stroke="#231F20" stroke-width="9" d="M103.69 168.337S26.023 134.14 26.195 77.82c0-21.382 17.334-38.716 38.716-38.716s38.717 17.334 38.717 38.716h.056c0-21.382 17.334-38.716 38.716-38.716s38.715 17.334 38.715 38.716c.172 56.32-77.433 90.517-77.433 90.517h.008z"/><path stroke="#fff" stroke-width="4.5" d="M143.758 53.823c12.528 0 22.684 10.156 22.684 22.684" fill="none"/><path stroke="#231F20" stroke-width="9" d="M92.943 48.92M117.61 48.92" fill="none"/></g>
    </symbol>

    <symbol id="britt_icons_hour" viewBox="0 0 207.3 207.3">
        <path d="M103.65 35.034c-37.836 0-68.617 30.78-68.617 68.616s30.78 68.616 68.617 68.616c37.835 0 68.616-30.78 68.616-68.616s-30.78-68.616-68.616-68.616zm0 128.232c-32.873 0-59.617-26.744-59.617-59.616s26.744-59.616 59.617-59.616c32.872 0 59.616 26.744 59.616 59.616s-26.744 59.616-59.616 59.616zM108.144 101.786v-34.44c0-2.485-2.015-4.5-4.5-4.5s-4.5 2.015-4.5 4.5v36.305c0 1.194.474 2.34 1.318 3.183l14.66 14.66c.88.88 2.03 1.32 3.183 1.32s2.304-.44 3.182-1.32c1.758-1.756 1.758-4.605 0-6.362l-13.343-13.344z"/>
    </symbol>

    <symbol id="britt_icons_leaf_1" viewBox="0 0 207.3 207.3">
        <path fill="#231F20" d="M116.514 69.094c6.55 0 13.406-3.1 18.81-8.504 4.425-4.425 7.347-9.898 8.228-15.413.95-5.96-.635-11.51-4.35-15.224-3.026-3.027-7.116-4.627-11.83-4.627-6.548 0-13.403 3.1-18.81 8.504-3.944 3.946-6.538 8.52-7.75 13.062-.523.736-.838 1.63-.838 2.6v39.152c-.43-.49-.87-.97-1.337-1.437-4.95-4.952-11.242-7.792-17.262-7.792-4.304 0-8.2 1.526-10.973 4.298-6.935 6.937-5.4 19.338 3.494 28.234 4.952 4.95 11.244 7.79 17.26 7.79 3.285 0 6.327-.894 8.817-2.546v59.95c0 2.485 2.015 4.5 4.5 4.5s4.5-2.015 4.5-4.5v-19.318c2.006.88 4.247 1.36 6.62 1.36 6.02 0 12.31-2.84 17.26-7.79 4.054-4.053 6.73-9.07 7.54-14.13.88-5.513-.595-10.653-4.045-14.102-2.77-2.772-6.668-4.3-10.973-4.3-5.674 0-11.592 2.528-16.402 6.97V67.47c2.245 1.06 4.782 1.624 7.54 1.624zm18.15-25.336c-.575 3.603-2.654 7.418-5.705 10.468-3.674 3.674-8.326 5.868-12.445 5.868-1.24 0-2.877-.222-4.32-1.103l21.88-20.89c.94 2.008.808 4.284.59 5.658zm-19.737-3.564c3.675-3.674 8.327-5.868 12.445-5.868.998 0 2.254.14 3.457.65l-21.382 20.415c-1.332-4.236.74-10.454 5.48-15.196zM92.273 93.572c2.683 2.682 4.51 6.03 5.015 9.186.13.812.218 1.99.006 3.203L80.58 88.456c.28-.024.548-.04.795-.04 3.596 0 7.67 1.928 10.898 5.157zM80.26 105.584c-4.913-4.915-6.583-11.6-3.896-15.03l18.41 19.283c-1.204.72-2.574.9-3.617.9-3.594 0-7.668-1.926-10.896-5.153zm51.247 30.26c-.505 3.154-2.332 6.502-5.016 9.185-3.227 3.227-7.3 5.154-10.895 5.154-.816 0-1.832-.11-2.81-.5l18.578-17.74c.406 1.444.298 2.932.144 3.9zm-17.028-2.827c3.228-3.23 7.302-5.156 10.896-5.156.893 0 2.027.137 3.09.627l-18.772 17.923c-1.262-3.65.568-9.175 4.785-13.393z"/>
    </symbol>

    <symbol id="britt_icons_leaf_2" viewBox="0 0 207.3 207.3">
        <path fill="#231F20" d="M185.537 122.492c-.88-5.513-3.803-10.986-8.23-15.413-5.398-5.398-12.246-8.495-18.79-8.5-.283-.057-.574-.09-.872-.09h-39.153c.49-.428.97-.87 1.438-1.336 4.053-4.052 6.73-9.07 7.54-14.13.88-5.512-.595-10.652-4.046-14.104-2.77-2.77-6.668-4.296-10.97-4.296-6.02 0-12.31 2.84-17.263 7.79-4.05 4.054-6.728 9.073-7.536 14.13-.714 4.467.143 8.67 2.32 11.948H25.997c-2.485 0-4.5 2.015-4.5 4.5s2.015 4.5 4.5 4.5H47.31c-1.257 2.872-1.663 6.234-1.102 9.75.808 5.06 3.485 10.08 7.538 14.13 4.95 4.952 11.242 7.792 17.26 7.792 4.304 0 8.2-1.526 10.97-4.297 3.453-3.45 4.927-8.59 4.046-14.104-.753-4.71-3.142-9.377-6.738-13.27h64.395c-1.498 3.184-1.995 6.968-1.36 10.937.88 5.514 3.803 10.987 8.228 15.41 5.403 5.405 12.26 8.504 18.81 8.505 4.712 0 8.802-1.6 11.827-4.625 3.72-3.72 5.305-9.268 4.352-15.228zm-8.887 1.42c.21 1.324.337 3.48-.493 5.43L155.75 107.97c.976-.3 1.946-.39 2.748-.39 4.12 0 8.772 2.192 12.446 5.864 3.05 3.05 5.13 6.866 5.706 10.47zm-58.068-42.308c-.504 3.155-2.332 6.503-5.016 9.186-3.227 3.228-7.3 5.155-10.896 5.155-.45 0-.962-.038-1.494-.132l17.5-16.71c.083.955.01 1.848-.094 2.5zm-22.04 6.36c.503-3.155 2.33-6.503 5.013-9.186 3.23-3.228 7.302-5.155 10.898-5.155 1.196 0 2.824.233 4.136 1.253l-19.283 18.41c-1.08-1.805-.973-4.027-.766-5.322zM76.654 126.99L58.74 108.225c.877-.292 1.76-.384 2.484-.384 3.596 0 7.67 1.927 10.897 5.154 2.684 2.683 4.51 6.032 5.015 9.187.19 1.172.304 3.11-.48 4.806zm-5.65 3.174c-3.594 0-7.667-1.927-10.895-5.155-2.683-2.683-4.51-6.03-5.015-9.187-.177-1.107-.28-2.893.365-4.517l17.73 18.57c-.776.217-1.542.288-2.184.288zm98.354 3.18c-4.12 0-8.773-2.195-12.448-5.87-3.05-3.048-5.13-6.863-5.705-10.465-.243-1.524-.368-4.15.945-6.293l20.88 21.87c-1.268.592-2.614.756-3.673.756z"/>
    </symbol>

    <symbol id="britt_icons_live_chat" viewBox="0 0 207.3 207.3">
        <g fill="#231F20"><path d="M169.82 179.826c-.142-31.332-22.085-57.594-51.405-64.413 4.586-1.815 8.757-4.462 12.322-7.756-2.225-.023-4.546-.093-6.964-.173-5.65 3.898-12.493 6.188-19.862 6.188-19.336 0-35.068-15.732-35.068-35.07s15.732-35.068 35.07-35.068 35.067 15.732 35.067 35.07c0 5.768-1.127 10.37-3.605 15.176 1.966-.07 3.683-.468 5.188-.765 2.032-4.76 2.916-8.918 2.916-14.412 0-21.818-17.75-39.57-39.57-39.57s-39.568 17.75-39.568 39.57c0 16.55 10.216 30.75 24.67 36.647-29.77 6.58-52.11 33.164-52.11 64.882 0 1.243 1.007 2.25 2.25 2.25h128.44c1.243 0 2.25-1.007 2.25-2.25 0-.104-.008-.206-.02-.306zm-128.38-1.944c1.19-33.127 28.51-59.71 61.922-59.71s60.732 26.583 61.92 59.71H41.442zM56.877 79.225c.084-.345.142-.7.142-1.07 0-25.633 20.853-46.486 46.486-46.486s46.486 20.853 46.486 46.485c0 10.337-3.084 13.705-7.715 15.582-6.143 2.49-16.28 2.493-29.174 2.483h-1.598c-2.485 0-4.5 2.015-4.5 4.5s2.015 4.5 4.5 4.5h3.106c13.135 0 23.56-.108 31.048-3.143 9.097-3.688 13.334-11.29 13.334-23.923 0-30.595-24.89-55.486-55.486-55.486-23.472 0-43.573 14.658-51.667 35.294-2.59-2.33-5.98-3.71-9.798-3.71-8.538 0-14.977 6.868-14.977 15.976v6.814c0 9.108 6.438 15.977 14.977 15.977 7.84 0 13.894-5.798 14.835-13.795zm-20.81-2.183v-6.814c0-3.473 1.847-6.977 5.976-6.977s5.977 3.505 5.977 6.978v6.814c0 3.473-1.848 6.977-5.977 6.977s-5.977-3.505-5.977-6.978z"/></g>
    </symbol>

    <symbol id="britt_icons_loading_1" viewBox="0 0 207.3 207.3">
        <path d="M159.244 60.576l1.206-7.977c.196-1.298-.183-2.614-1.038-3.608-.854-.994-2.1-1.565-3.41-1.565H26.687c-1.345 0-2.62.602-3.474 1.64s-1.2 2.403-.942 3.724l15.08 77.16c.03.157.068.313.116.467 4.384 14.167 26.958 29.457 55.783 29.457 28.823 0 51.242-15.6 55.484-30.054.058-.195.102-.394.132-.595l1.233-8.16c1.857.35 3.75.526 5.666.526 16.878 0 30.608-13.73 30.608-30.608.002-15.702-11.884-28.673-27.13-30.406zm-19.228 66.983c-4.31 13.753-28.005 23.313-46.765 23.313-23.437 0-43.54-12.026-47.117-22.905l-13.98-71.54H150.77l-1.19 7.866c0 .01-.003.02-.004.03l-7.6 50.27-.013.09-1.947 12.875zm15.75-14.97c-1.463 0-2.905-.157-4.318-.444l6.45-42.667c10.918 1.073 19.477 10.305 19.477 21.5 0 11.917-9.693 21.61-21.608 21.61z"/>
    </symbol>

    <symbol id="britt_icons_loading_2" viewBox="0 0 207.3 207.3">
        <path d="M159.244 60.577l1.206-7.978c.196-1.298-.183-2.614-1.038-3.608-.854-.994-2.1-1.565-3.41-1.565H26.687c-1.345 0-2.62.602-3.474 1.64s-1.2 2.403-.942 3.724l15.08 77.16c.03.157.068.313.116.467 4.384 14.167 26.958 29.458 55.783 29.458 28.823 0 51.242-15.6 55.484-30.055.058-.195.102-.394.132-.595l1.233-8.158c1.857.348 3.75.525 5.666.525 16.878 0 30.608-13.73 30.608-30.61.002-15.702-11.884-28.673-27.13-30.405zm-127.09-4.15h118.615l-1.19 7.87c-.003.01-.005.023-.006.034l-7.485 49.516H43.373l-11.22-57.42zm123.613 56.164c-1.464 0-2.906-.157-4.32-.444l6.45-42.667c10.92 1.073 19.48 10.305 19.48 21.5 0 11.917-9.695 21.61-21.61 21.61z"/>
    </symbol>

    <symbol id="britt_icons_loading_3" viewBox="0 0 207.3 207.3">
        <path d="M158.617 60.577l1.206-7.978c.196-1.298-.183-2.614-1.038-3.608-.854-.994-2.1-1.565-3.41-1.565H26.06c-1.344 0-2.618.602-3.473 1.64s-1.2 2.403-.942 3.724l15.08 77.16c.03.157.068.313.116.467 4.385 14.167 26.96 29.458 55.784 29.458 28.82 0 51.24-15.6 55.483-30.055.058-.195.102-.394.132-.595l1.232-8.158c1.858.348 3.75.525 5.667.525 16.877 0 30.607-13.73 30.607-30.61.002-15.702-11.884-28.673-27.13-30.405zm-8.474-4.15l-1.19 7.872-.005.032-2.032 13.443H35.698l-4.172-21.35h118.617zm4.998 56.164c-1.463 0-2.905-.157-4.318-.444l6.45-42.667c10.918 1.073 19.478 10.305 19.478 21.5 0 11.917-9.694 21.61-21.61 21.61z"/>
    </symbol>

    <symbol id="britt_icons_loading_4" viewBox="0 0 207.3 207.3">
        <path d="M158.617 60.577l1.206-7.978c.196-1.298-.183-2.614-1.038-3.608-.854-.994-2.1-1.565-3.41-1.565H26.06c-1.344 0-2.618.602-3.473 1.64s-1.2 2.403-.942 3.724l15.08 77.16c.03.157.068.313.116.467 4.385 14.167 26.96 29.458 55.784 29.458 28.82 0 51.24-15.6 55.483-30.055.058-.195.102-.394.132-.595l1.232-8.158c1.858.348 3.75.525 5.667.525 16.877 0 30.607-13.73 30.607-30.61.002-15.702-11.884-28.673-27.13-30.405zm-3.476 52.014c-1.463 0-2.905-.157-4.318-.444l6.45-42.667c10.918 1.073 19.478 10.305 19.478 21.5 0 11.917-9.694 21.61-21.61 21.61z"/>
    </symbol>

    <symbol id="britt_icons_mail" viewBox="0 0 207.3 207.3">
        <path d="M181.317 47.317H25.983c-2.485 0-4.5 2.015-4.5 4.5v103.666c0 2.485 2.015 4.5 4.5 4.5h155.333c2.485 0 4.5-2.015 4.5-4.5V51.817c0-2.485-2.014-4.5-4.5-4.5zM30.483 58.49l54.14 45.08-54.14 45.223V58.49zm4.397 92.493l53.26-44.487 14.07 11.716c.418.347.93.52 1.44.52s1.022-.173 1.44-.52l14.363-11.96 53.037 44.73H34.88zm68.77-37.427l-68.746-57.24h137.49l-68.744 57.24zm19.316-10.228l53.85-44.837v90.254l-53.85-45.416z"/>
    </symbol>

    <symbol id="britt_icons_nuts_and_sweets" viewBox="0 0 207.3 207.3">
        <g fill="#231F20"><path d="M70.215 61.553c.58 0 1.16-.224 1.602-.67l2.543-2.578c.873-.884.863-2.31-.02-3.182-.886-.873-2.31-.864-3.183.02l-2.543 2.58c-.873.883-.863 2.308.02 3.18.44.434 1.01.65 1.58.65zM88.234 73.797c.58 0 1.16-.224 1.602-.67l2.543-2.578c.872-.885.862-2.31-.022-3.183-.884-.873-2.308-.864-3.182.02l-2.543 2.58c-.873.883-.863 2.308.02 3.18.44.434 1.01.65 1.58.65zM99.323 91.585c.58 0 1.162-.224 1.602-.67l2.543-2.578c.873-.885.863-2.31-.02-3.182-.885-.872-2.31-.862-3.183.022l-2.543 2.578c-.873.885-.863 2.31.02 3.182.44.433 1.01.648 1.58.648zM180.75 129.504c-1.717-2.275-2.9-4.394-3.55-6.69l.01-9.7c.734-3.563 2.135-7.836 4.222-13.283.89-2.32-.27-4.922-2.592-5.81-.34-.132-.688-.205-1.035-.25-.07-.01-.14-.007-.21-.014-.198-.016-.395-.034-.59-.024-1.18.04-2.343.537-3.194 1.485l-24.15 26.927c-3.77-13.762-14.955-24.48-28.965-27.547.15-13.032-8.906-27.29-13.885-34.128 3.935-2.98 9.13-8.368 10.824-16.84.488-2.436-1.093-4.807-3.53-5.294-2.433-.485-4.807 1.093-5.294 3.53-1.29 6.445-5.645 10.28-8.31 12.08-19.673-13.97-34.966-18.54-45.477-13.558-8.892 4.212-11.27 13.664-11.89 17.715-2.85 2.84-9.996 10.506-15.376 20.904-8.565 16.553-8.752 32.494-.616 46.347l-2.152 2.153c-1.758 1.757-1.758 4.607 0 6.364.878.88 2.03 1.32 3.182 1.32s2.304-.44 3.182-1.32l1.97-1.97c2.608 1.657 6.61 3.674 11.948 4.875 1.128 1.703 1.943 3.36 2.442 5.122l-.012 9.7c-.733 3.563-2.134 7.836-4.22 13.283-.89 2.32.27 4.923 2.59 5.812.53.203 1.075.3 1.61.3.014 0 .03-.004.043-.004l.025.002c.052 0 .103-.014.154-.016.184-.01.366-.025.545-.056.18-.028.354-.07.53-.12l.056-.02c.768-.228 1.49-.643 2.065-1.284l24.148-26.924c4.48 16.376 19.46 28.45 37.208 28.45 17.744 0 32.72-12.068 37.204-28.438l24.136 26.912c.057.064.127.108.187.168.14.14.284.276.443.397.107.08.22.148.33.22.143.09.286.175.44.25.137.065.276.118.418.17.09.032.17.08.264.106.078.023.156.033.235.05.073.018.146.036.22.05.273.05.546.084.817.084.258 0 .513-.026.763-.07.08-.013.155-.04.233-.056.17-.04.336-.08.498-.137.1-.034.192-.08.288-.12.142-.063.28-.127.415-.202.09-.05.18-.108.268-.167.14-.09.27-.19.4-.295.044-.037.094-.064.138-.103.03-.026.048-.057.076-.083.158-.15.303-.31.44-.482.037-.048.082-.093.118-.142.16-.218.3-.45.42-.7.03-.066.048-.134.076-.2.065-.154.134-.307.183-.472.81-2.75 7.667-27.184-.71-38.256zM58.878 48.52c9.97-4.718 28.046 6.634 38.24 14.078 4.653 5.65 14.36 19.947 14.598 31.124-5.39.102-10.514 1.315-15.15 3.424-16.51-24.91-36.214-35.994-44.13-39.676.74-2.878 2.466-7.065 6.442-8.95zm-1.7 100.72c.707-7.05-.93-12.963-5.838-19.46-3.135-4.143-2.644-13.817-1.153-22.118l22.14 24.686-15.15 16.892zm-6.063-54.023c-.066-.074-.145-.127-.214-.195-.123-.12-.245-.242-.382-.348-.114-.09-.236-.16-.356-.237-.126-.08-.248-.16-.383-.23-.15-.074-.307-.13-.464-.188-.095-.036-.182-.086-.28-.115-.03-.008-.057-.008-.085-.016-.158-.044-.32-.066-.482-.092-.134-.02-.268-.05-.4-.06-.14-.01-.276.002-.414.005-.153.004-.307 0-.458.02-.136.016-.27.056-.403.085-.146.033-.293.057-.435.103-.136.046-.265.113-.398.17-.134.06-.27.112-.398.183-.114.064-.22.148-.33.223-.136.094-.274.184-.4.293-.023.018-.05.03-.072.05-.077.07-.134.153-.206.226-.116.12-.233.236-.336.368-.09.117-.165.242-.244.366-.078.123-.158.243-.224.375-.076.15-.13.307-.19.464-.034.095-.084.18-.114.28-.62 2.105-4.774 16.914-2.934 28.712-2.252-1.115-3.673-2.21-4.233-2.68-7.928-11.664-8.143-24.997-.638-39.634 4.222-8.233 9.848-14.7 12.8-17.798 6.63 3.088 24.978 13.207 40.406 36.26-6.503 5.06-11.355 12.155-13.596 20.322L51.114 95.217zm61.34 66.803c-16.31 0-29.582-13.304-29.582-29.657 0-6.54 2.128-12.59 5.72-17.5l41.38 41.38c-4.908 3.627-10.966 5.777-17.517 5.777zm29.584-29.655c0 6.54-2.128 12.59-5.72 17.498l-41.38-41.38c4.908-3.627 10.966-5.777 17.517-5.777 16.312 0 29.582 13.303 29.583 29.655v.005zm32.685 24.684l-22.14-24.688 15.15-16.892c-.706 7.05.932 12.963 5.84 19.46 3.132 4.144 2.642 13.82 1.15 22.12z"/></g>
    </symbol>

    <symbol id="britt_icons_pdf" viewBox="0 0 207.3 207.3">
        <text transform="translate(85.219 93.876)" font-family="'ProximaNova-Bold'" font-size="25.062">PDF</text><path d="M160.895 121.29c1.193 0 2.34-.474 3.183-1.318s1.318-1.99 1.317-3.184l-.035-69.945c0-2.484-2.016-4.498-4.5-4.498H57.69c-2.486 0-4.5 2.015-4.5 4.5v112.657c0 1.195.475 2.342 1.32 3.186.845.84 1.987 1.314 3.18 1.314h.01l61.62-.154c2.48-.006 4.488-2.018 4.49-4.498l.016-38.07 37.07.01zm-41.566-9.01c-2.486 0-4.5 2.013-4.502 4.497l-.017 38.083-52.62.13V51.346h94.172l.03 60.943-37.063-.01zM165.552 130.854c-.696-1.682-2.337-2.778-4.157-2.778H134.39c-2.485 0-4.5 2.015-4.5 4.5v27.005c0 1.82 1.097 3.462 2.778 4.158.557.23 1.14.343 1.72.343 1.172 0 2.323-.456 3.184-1.317l27.005-27.005c1.286-1.287 1.67-3.223.975-4.904zm-26.662 17.863v-11.64h11.64l-11.64 11.64zM94.69 77.165h-7.817v16.71h3.558v-5.962h4.26c3.608 0 5.612-2.456 5.612-5.362 0-2.93-1.98-5.385-5.613-5.385zm-.502 7.617H90.43v-4.485h3.758c1.403 0 2.48.852 2.48 2.255 0 1.378-1.076 2.23-2.48 2.23zM109.126 77.165h-6.59v16.71h6.614c5.212 0 8.845-3.306 8.845-8.367 0-5.01-3.633-8.343-8.87-8.343zm0 13.58h-3.032V80.297h3.057c3.41 0 5.213 2.28 5.213 5.21 0 2.857-1.93 5.238-5.237 5.238zM120.53 93.876h3.558v-6.94h8.093v-3.132h-8.092v-3.507h8.268v-3.132H120.53zM147.013 60.545h-74.63c-1.243 0-2.25 1.007-2.25 2.25s1.007 2.25 2.25 2.25h74.63c1.242 0 2.25-1.007 2.25-2.25s-1.008-2.25-2.25-2.25z"/>
    </symbol>

    <symbol id="britt_icons_phone" viewBox="0 0 207.3 207.3">
        <path fill="#231F20" stroke="#231F20" stroke-width="9" stroke-linecap="round" stroke-linejoin="round" stroke-miterlimit="10" d="M101 26.025l13.363 36.714-23.107 8.41 26.993 73.757 22.975-8.363 12.873 35.37-9.363 3.407c-40.286 14.664-62.817-14.12-77.48-54.406S50.95 44.242 91.236 29.58L101 26.024z"/>
    </symbol>

    <symbol id="britt_icons_place" viewBox="0 0 207.3 207.3">
        <g fill="#231F20"><path d="M103.65 37.728c-30.526 0-55.362 24.835-55.362 55.36 0 29.81 50.28 73.543 52.422 75.39.844.73 1.892 1.094 2.94 1.094s2.096-.364 2.94-1.093c2.14-1.85 52.42-45.583 52.42-75.39 0-30.527-24.833-55.362-55.36-55.362zm0 121.336c-15.257-13.782-46.362-46.012-46.362-65.975 0-25.564 20.798-46.362 46.362-46.362s46.36 20.798 46.36 46.36c0 19.947-31.106 52.19-46.36 65.976zM103.65 61.607c-13.924 0-25.253 11.328-25.253 25.253s11.33 25.253 25.253 25.253 25.253-11.328 25.253-25.253-11.33-25.253-25.253-25.253zm0 46.006c-11.443 0-20.753-9.31-20.753-20.753s9.31-20.753 20.753-20.753 20.753 9.31 20.753 20.753-9.31 20.753-20.753 20.753z"/></g>
    </symbol>

    <symbol id="britt_icons_play" viewBox="0 0 207.3 207.3">
        <path d="M137.23 101.378L83.858 74.494c-.694-.35-1.526-.316-2.19.094-.666.41-1.07 1.135-1.07 1.916v53.42c0 .778.4 1.5 1.063 1.912.362.224.773.337 1.186.337.342 0 .686-.078 1.002-.235l53.374-26.535c.763-.38 1.246-1.157 1.248-2.01s-.477-1.632-1.24-2.015zM85.096 126.29V80.157l46.097 23.218-46.097 22.917zM103.795 34.867c-37.835 0-68.616 30.78-68.616 68.617 0 37.835 30.78 68.616 68.615 68.616s68.616-30.78 68.616-68.616-30.78-68.617-68.615-68.617zm0 128.233c-32.872 0-59.616-26.744-59.616-59.616s26.743-59.617 59.615-59.617 59.616 26.744 59.616 59.617-26.743 59.616-59.615 59.616z"/>
    </symbol>

    <symbol id="britt_icons_refer_a_friend" viewBox="0 0 207.3 207.3">
        <g fill="#231F20"><path d="M77.508 141.112c8.168-4.196 13.773-12.702 13.773-22.5 0-13.94-11.34-25.28-25.28-25.28-13.942 0-25.284 11.34-25.284 25.28 0 9.7 5.495 18.14 13.533 22.377-17.563 4.98-30.47 21.15-30.47 40.285 0 1.243 1.01 2.25 2.25 2.25h79.28c1.243 0 2.25-1.007 2.25-2.25 0-.105-.007-.208-.02-.31-.14-18.843-12.788-34.757-30.032-39.853zm-32.293-22.5c0-11.458 9.323-20.78 20.783-20.78s20.782 9.322 20.782 20.78-9.323 20.783-20.782 20.783c-11.46 0-20.783-9.322-20.783-20.782zm-16.868 60.413c1.166-19.568 17.456-35.13 37.312-35.13s36.145 15.562 37.31 35.13H28.348zM134.78 21.86c-23.746 0-43.065 19.32-43.065 43.067 0 9.137 2.795 17.797 8.1 25.148l-.005 14.222c0 1.385.637 2.694 1.73 3.547.798.625 1.776.955 2.77.955.363 0 .728-.045 1.087-.134l14.026-3.492c4.896 1.872 10.057 2.82 15.358 2.82 23.748 0 43.068-19.32 43.068-43.067S158.528 21.86 134.78 21.86zm0 77.134c-4.614 0-9.09-.906-13.297-2.692-.558-.237-1.15-.354-1.744-.354-.464 0-.926.07-1.37.212l-9.558 2.38.004-9.97c0-1.066-.38-2.084-1.047-2.884-4.616-5.993-7.056-13.168-7.056-20.76 0-18.785 15.282-34.067 34.066-34.067 18.785 0 34.067 15.282 34.067 34.066s-15.28 34.068-34.066 34.068z"/></g>
    </symbol>

    <symbol id="britt_icons_review_1" viewBox="0 0 207.3 207.3">
        <path fill="#231F20" d="M148.108 129.983c.058-.195.102-.394.132-.595l1.233-8.158c1.857.348 3.75.525 5.666.525 16.877 0 30.608-13.73 30.608-30.61 0-15.7-11.886-28.672-27.132-30.405l1.206-7.978c.196-1.296-.183-2.613-1.038-3.607-.854-.994-2.1-1.565-3.41-1.565H26.06c-1.345 0-2.62.602-3.474 1.64-.854 1.037-1.2 2.403-.942 3.723l15.078 77.16c.03.158.07.313.117.467 2.23 7.203 9.17 14.692 19.234 20.32h-30.05c-2.485 0-4.5 2.014-4.5 4.5s2.015 4.5 4.5 4.5h62.02c1.51.085 3.034.137 4.58.137 1.53 0 3.035-.053 4.525-.138h58.188c2.485 0 4.5-2.016 4.5-4.5s-2.015-4.5-4.5-4.5H128.75c10.186-5.76 17.178-13.488 19.358-20.917zm28.64-38.837c0 11.915-9.693 21.61-21.608 21.61-1.464 0-2.905-.16-4.318-.445l6.45-42.666c10.918 1.074 19.477 10.307 19.477 21.502zM150.144 56.59l-1.19 7.87-.005.032-1.67 11.048H35.228l-3.702-18.95h118.617zM96.56 150.9h-8.293c-21.53-1.363-39.406-12.57-42.76-22.767L36.11 80.04h110.488l-5.25 34.72-.01.08-1.948 12.882c-4.016 12.81-24.838 21.977-42.83 23.178z"/>
    </symbol>

    <symbol id="britt_icons_review_2" viewBox="0 0 207.3 207.3">
        <path fill="#231F20" d="M170.558 77.516c-.03-.158-.07-.314-.117-.468-2.23-7.203-9.168-14.692-19.233-20.32h30.05c2.484 0 4.5-2.014 4.5-4.5s-2.016-4.5-4.5-4.5h-62.02c-1.51-.085-3.034-.137-4.58-.137-1.53 0-3.035.054-4.525.14H51.944c-2.485 0-4.5 2.014-4.5 4.5s2.015 4.5 4.5 4.5H78.53c-10.185 5.76-17.176 13.486-19.357 20.916-.058.195-.102.394-.132.595L57.81 86.4c-1.858-.35-3.75-.526-5.667-.526-16.877 0-30.607 13.73-30.607 30.61 0 15.7 11.886 28.672 27.132 30.405l-1.206 7.977c-.197 1.296.182 2.613 1.037 3.607.854.994 2.1 1.565 3.41 1.565H181.22c1.345 0 2.62-.603 3.474-1.64.854-1.038 1.2-2.404.942-3.724l-15.078-77.16zm-102.666 2.39C71.908 67.1 92.73 57.93 110.722 56.73h8.293c21.53 1.362 39.406 12.568 42.76 22.767l9.4 48.093H60.684l5.248-34.72.012-.08 1.947-12.883zm-37.36 36.576c0-11.915 9.694-21.61 21.61-21.61 1.464 0 2.905.16 4.318.445l-6.45 42.667c-10.918-1.073-19.477-10.306-19.477-21.502zm26.607 34.556l1.19-7.87c0-.01.002-.02.004-.03l1.67-11.05h112.05l3.702 18.95H57.14z"/>
    </symbol>

    <symbol id="britt_icons_sing_in" viewBox="0 0 207.3 207.3">
        <path fill="#231F20" d="M166.648 166.457c-.19-27.392-17.958-50.67-42.557-59.135 11.118-6.76 18.56-18.988 18.56-32.922 0-21.23-17.27-38.5-38.5-38.5s-38.5 17.27-38.5 38.5c0 13.788 7.29 25.9 18.213 32.7-25.07 8.32-43.213 31.973-43.213 59.8 0 2.485 2.015 4.5 4.5 4.5h117.02c2.485 0 4.5-2.015 4.5-4.5 0-.15-.007-.297-.022-.443zM74.65 74.4c0-16.267 13.233-29.5 29.5-29.5s29.5 13.233 29.5 29.5-13.233 29.5-29.5 29.5-29.5-13.234-29.5-29.5zm-24.814 88c.203-2.448.578-4.846 1.098-7.19.046.002.09.013.135.013h91.42c1.24 0 2.25-1.007 2.25-2.25s-1.01-2.25-2.25-2.25H52.14c6.89-21.894 27.37-37.822 51.51-37.822 28.26 0 51.52 21.823 53.814 49.5H49.836z"/>
    </symbol>

    <symbol id="britt_icons_single_cup" viewBox="0 0 207.3 207.3">
        <path stroke="#231F20" stroke-width="9" stroke-linecap="round" stroke-linejoin="round" stroke-miterlimit="10" d="M105.04 25.872s4.95 4.775 0 11.466c-4.94 6.688-6.91 20.97 2.193 25.505m-28.94-36.97s4.95 4.774 0 11.465c-4.94 6.688-6.91 20.97 2.193 25.505" fill="none"/><path fill="#231F20" d="M158.58 86.6l1.207-7.977c.196-1.296-.183-2.613-1.038-3.607-.855-.994-2.102-1.565-3.412-1.565H26.025c-1.345 0-2.62.603-3.474 1.64-.853 1.038-1.2 2.404-.94 3.724l15.078 77.16c.03.158.07.313.117.467C41.19 170.61 63.763 185.9 92.588 185.9c28.822 0 51.24-15.6 55.483-30.055.06-.195.103-.394.133-.595l1.233-8.158c1.858.348 3.75.525 5.667.525 16.878 0 30.608-13.73 30.608-30.61.002-15.7-11.883-28.672-27.13-30.404zm-19.227 66.982c-4.312 13.755-28.005 23.316-46.765 23.316-23.438 0-43.54-12.026-47.118-22.906L36.072 105.9h80.512c1.242 0 2.25-1.007 2.25-2.25s-1.008-2.25-2.25-2.25h-81.39L31.49 82.45h118.616l-1.19 7.87c0 .01-.003.02-.005.03l-7.597 50.265-.014.093-1.947 12.874zm15.75-14.966c-1.463 0-2.905-.158-4.318-.445l6.45-42.666c10.918 1.074 19.477 10.307 19.477 21.503 0 11.915-9.693 21.61-21.608 21.61z"/>
    </symbol>

    <symbol id="britt_icons_specials" viewBox="0 0 207.3 207.3">
        <g fill="#231F20"><path d="M159.993 64.837c0-.14-.03-.274-.042-.412V26.12c0-2.486-2.014-4.5-4.5-4.5H52.09c-2.486 0-4.5 2.014-4.5 4.5v155.125c0 2.485 2.014 4.5 4.5 4.5h103.36c2.486 0 4.5-2.015 4.5-4.5V65.25c.014-.14.043-.272.043-.413zM86.658 30.62h34.162v44.905H86.658V30.62zm-4.5 0v49.405h43.162V30.62h25.632v29.718h-8.38c-2.485 0-4.5 2.015-4.5 4.5s2.015 4.5 4.5 4.5h8.38v83.698H56.59v-83.7h8.42c2.485 0 4.5-2.014 4.5-4.5s-2.015-4.5-4.5-4.5h-8.42V30.62h25.568zm-25.57 146.125v-19.21h94.363v19.21H56.59zM91.76 121.954l11.894-6.254 11.894 6.254-2.27-13.245 9.622-9.38-13.3-1.933-5.946-12.05-5.947 12.05-13.3 1.932 9.624 9.38z"/></g>
    </symbol>

    <symbol id="britt_icons_star_empty" viewBox="0 0 207.3 207.3">
        <path fill="#231F20" d="M77.845 144.712c-.448 0-.897-.134-1.285-.403-.818-.57-1.164-1.61-.85-2.557l10.353-31.158L63.415 92.47c-.746-.6-1.033-1.602-.717-2.503s1.168-1.505 2.123-1.505h28.597l8.085-24.334c.305-.92 1.165-1.54 2.134-1.54.97 0 1.83.62 2.136 1.538l8.102 24.336h28.542c.955 0 1.807.604 2.123 1.504.315.9.028 1.904-.717 2.502l-22.59 18.104 10.38 31.18c.315.946-.03 1.987-.85 2.557-.816.57-1.91.534-2.69-.09l-24.427-19.55-24.394 19.55c-.41.326-.908.492-1.407.492zm25.8-25.176c.498 0 .995.164 1.406.493l19.887 15.916-8.468-25.438c-.3-.894-.008-1.878.727-2.467l18.813-15.077h-23.76c-.968 0-1.828-.62-2.134-1.54l-6.478-19.455-6.464 19.454c-.305.92-1.165 1.54-2.135 1.54H71.232l18.864 15.1c.735.59 1.026 1.572.73 2.466l-8.445 25.416 19.855-15.913c.412-.33.91-.494 1.408-.494z"/>
    </symbol>

    <symbol id="britt_icons_star_full" viewBox="0 0 207.3 207.3">
        <path fill="#231F20" d="M144.46 89.966c-.317-.9-1.17-1.504-2.124-1.504h-28.543l-8.1-24.336c-.307-.92-1.167-1.54-2.136-1.54-.97 0-1.83.622-2.135 1.542l-8.086 24.334H64.742c-.955 0-1.807.604-2.123 1.505s-.03 1.904.716 2.502l22.647 18.125-10.353 31.158c-.314.946.03 1.986.85 2.556.388.27.837.402 1.285.402.5 0 .997-.166 1.407-.494l24.393-19.55 24.427 19.55c.78.625 1.875.66 2.692.09.818-.57 1.164-1.61.85-2.557l-10.38-31.18 22.59-18.103c.744-.596 1.032-1.6.715-2.5z"/>
    </symbol>

    <symbol id="britt_icons_star_half" viewBox="0 0 207.3 207.3">
        <path fill="#231F20" d="M144.57 89.966c-.316-.9-1.168-1.504-2.123-1.504h-28.543l-8.1-24.336c-.027-.08-.063-.152-.097-.226-.013-.028-.022-.057-.036-.084-.06-.12-.13-.232-.21-.337-.02-.026-.042-.048-.062-.072-.065-.078-.132-.152-.206-.22-.034-.032-.07-.06-.106-.09-.07-.058-.145-.11-.223-.16-.038-.024-.074-.048-.114-.07-.115-.062-.233-.116-.357-.16-.005 0-.01-.004-.014-.005h-.003c-.13-.044-.263-.072-.4-.09-.052-.008-.103-.01-.154-.013-.05-.004-.102-.012-.154-.012h-.002c-.03 0-.06.006-.09.007-.06.002-.12.007-.18.014-.074.008-.147.022-.22.038-.056.013-.112.024-.167.04-.085.027-.167.062-.25.098-.044.02-.09.037-.133.06-.104.054-.203.117-.296.186-.04.03-.078.066-.117.1-.062.053-.122.107-.177.167-.037.038-.072.08-.106.12-.054.068-.103.138-.15.21-.026.042-.053.08-.076.123-.063.114-.117.232-.16.358l-.007.017-8.086 24.335H64.854c-.955 0-1.807.604-2.123 1.505s-.03 1.904.717 2.502l22.647 18.125-10.353 31.158c-.313.946.032 1.986.85 2.556.39.27.838.402 1.286.402.5 0 .997-.166 1.407-.494l24.393-19.55 24.427 19.55c.78.625 1.875.66 2.692.09.818-.57 1.164-1.61.85-2.557l-10.38-31.18 22.59-18.103c.744-.596 1.03-1.6.715-2.5zm-27.342 18.075c-.734.59-1.025 1.574-.728 2.468l8.47 25.44-19.858-15.894s-.002 0-.002-.002l-.03-.023c-.103-.084-.213-.157-.327-.22-.03-.016-.065-.026-.097-.042-.092-.045-.185-.086-.28-.118-.05-.016-.1-.025-.15-.038-.082-.02-.163-.04-.246-.05-.056-.01-.11-.01-.167-.015-.046-.003-.092-.01-.138-.01l-.006-47.566v-.003l6.477 19.456c.306.92 1.166 1.54 2.135 1.54h23.76l-18.814 15.078z"/>
    </symbol>
</svg>