<svg xmlns="http://www.w3.org/2000/svg" xmlns:xlink="http://www.w3.org/1999/xlink" width="0" height="0" style="position:absolute">

<symbol id="icons_pdf" viewBox="0 0 50 50">
        <path d="M1.85 49.968c-.49 0-.96-.194-1.305-.54C.197 49.084 0 48.612 0 48.12V1.848C0 .828.83 0 1.85 0h42.374c1.02 0 1.847.826 1.85 1.847l.013 28.73c0 .49-.194.96-.542 1.308-.348.346-.817.54-1.307.54l-15.227-.002-.002 15.635c-.003 1.02-.826 1.845-1.844 1.848l-25.31.062H1.85zM3.7 3.696v42.572l21.612-.055.003-15.64c.003-1.022.83-1.848 1.85-1.848l15.224.003-.012-25.032H3.698zM33.35 50c-.237 0-.477-.046-.706-.14-.69-.287-1.142-.96-1.142-1.708V37.06c0-1.02.83-1.848 1.85-1.848h11.093c.748 0 1.42.45 1.707 1.14.287.692.128 1.487-.4 2.016l-11.094 11.09c-.354.355-.826.542-1.307.542zm1.85-11.092v4.783l4.783-4.782H35.2zM13.834 21.167v-6.86h3.21c1.49 0 2.3 1.01 2.3 2.213 0 1.19-.82 2.2-2.3 2.2h-1.75v2.447h-1.46zm4.02-4.647c0-.577-.44-.925-1.016-.925h-1.542v1.838h1.542c.576 0 1.017-.348 1.017-.913zM20.27 21.167v-6.86h2.705c2.148 0 3.638 1.37 3.638 3.424 0 2.08-1.49 3.436-3.63 3.436H20.27zm4.852-3.435c0-1.203-.74-2.136-2.14-2.136H21.73v4.287h1.246c1.357 0 2.148-.977 2.148-2.15zM27.66 21.167v-6.86h4.852v1.288H29.12v1.438h3.322v1.287H29.12v2.847h-1.46zM38.537 9.324H7.882c-.51 0-.925-.415-.925-.925s.415-.926.925-.926h30.655c.51 0 .925.415.925.925s-.415.924-.925.924z"/>
</symbol>

<symbol id="icons_phone" viewBox="0 0 50 50">
        <path d="M22.012 50c-8.144 0-14.35-6.176-18.973-18.882C.895 25.233-5.624 7.328 11.26 1.18L14.27.086c.72-.267 1.514.11 1.778.83l4.12 11.318c.262.72-.11 1.515-.83 1.778L13.52 16.13l7.37 20.134 5.78-2.104c.343-.127.726-.11 1.06.046.336.156.593.437.72.783l3.968 10.904c.126.347.11.728-.046 1.062-.157.333-.437.592-.783.717l-2.886 1.05C26.37 49.57 24.12 50 22.012 50z"/>
</symbol>

<symbol id="icons_place" viewBox="0 0 50 50">
        <path d="M20.993 50c-.396 0-.795-.14-1.116-.415C19.067 48.885 0 32.298 0 20.995 0 9.42 9.418 0 20.993 0 32.57 0 41.99 9.418 41.99 20.996c0 11.302-19.07 27.888-19.88 28.59-.322.275-.72.414-1.117.414zm0-46.585c-9.694 0-17.578 7.887-17.578 17.58 0 7.57 11.795 19.793 17.578 25.02 5.784-5.23 17.58-17.455 17.58-25.02.002-9.693-7.886-17.58-17.58-17.58zM20.993 28.21c-5.28 0-9.576-4.297-9.576-9.577s4.296-9.576 9.576-9.576 9.576 4.296 9.576 9.576-4.296 9.576-9.577 9.576zm0-17.446c-4.338 0-7.87 3.53-7.87 7.87s3.53 7.868 7.87 7.868 7.87-3.53 7.87-7.87-3.53-7.868-7.87-7.868z"/>
</symbol>

<symbol id="icons_play" viewBox="0 0 50 50">
        <path d="M17.367 35.453c-.15 0-.3-.04-.432-.123-.242-.15-.388-.413-.388-.697V15.17c0-.284.15-.55.39-.698.243-.15.546-.163.798-.033l19.447 9.793c.278.14.453.423.453.734-.003.31-.177.593-.455.732l-19.447 9.667c-.117.057-.24.086-.366.086zm.82-18.953v16.81l16.796-8.35-16.796-8.46zM25 50C11.213 50 0 38.783 0 25S11.214 0 25 0s25 11.214 25 25-11.216 25-25 25zm0-46.722c-11.976 0-21.72 9.744-21.72 21.72C3.28 36.975 13.025 46.72 25 46.72c11.976 0 21.72-9.744 21.72-21.722 0-11.975-9.744-21.72-21.72-21.72z"/>
</symbol>

<symbol id="icons_plus" viewBox="0 0 612 502.2">
        <path d="M510.3 204.4H352.5V46.6c0-25.7-20.9-46.6-46.6-46.6-25.7 0-46.6 20.9-46.6 46.6v157.8H101.5c-25.7 0-46.6 20.9-46.6 46.6 0 25.7 20.9 46.6 46.6 46.6h157.8v157.8c0 25.7 20.9 46.6 46.6 46.6 25.7 0 46.6-20.9 46.6-46.6V297.6h157.8c25.7 0 46.6-20.9 46.6-46.6 0-25.7-20.9-46.6-46.6-46.6z"/>
</symbol>
</svg>