<?xml version="1.0" encoding="utf-8"?>
<!-- Generator: Adobe Illustrator 17.0.0, SVG Export Plug-In . SVG Version: 6.00 Build 0)  -->
<!DOCTYPE svg PUBLIC "-//W3C//DTD SVG 1.1//EN" "http://www.w3.org/Graphics/SVG/1.1/DTD/svg11.dtd">
<svg version="1.1" id="Layer_1" xmlns="http://www.w3.org/2000/svg" xmlns:xlink="http://www.w3.org/1999/xlink" x="0px" y="0px"
	 width="207.3px" height="207.3px" viewBox="0 0 207.3 207.3" enable-background="new 0 0 207.3 207.3" xml:space="preserve">
<g>
	<path fill="#231F20" d="M130.101,89.076l-2.625,17.37c0.471,0.077,0.948,0.122,1.432,0.122c4.848,0,8.791-3.944,8.791-8.791
		C137.699,93.335,134.385,89.661,130.101,89.076z"/>
	<path fill="#231F20" d="M82.882,113.328c1.337,3.972,9.349,9.429,19.59,9.429c10.585,0,18.144-5.625,19.438-9.595l0.817-5.408
		c0.003-0.02,0.005-0.039,0.009-0.059l3.211-21.243c0-0.003,0.001-0.005,0.001-0.008l0.443-2.934H77.054L82.882,113.328z"/>
	<path fill="#231F20" d="M104.393,34.752c-37.835,0-68.616,30.781-68.616,68.617s30.781,68.617,68.616,68.617
		s68.616-30.781,68.616-68.617S142.228,34.752,104.393,34.752z M128.908,111.068c-0.71,0-1.412-0.066-2.104-0.177l-0.47,3.11
		c-0.015,0.101-0.037,0.2-0.065,0.298c-1.831,6.232-11.449,12.958-23.797,12.958c-12.349,0-22.031-6.593-23.922-12.702
		c-0.023-0.077-0.043-0.155-0.059-0.233l-6.377-32.63c-0.129-0.66,0.044-1.343,0.471-1.862c0.428-0.519,1.065-0.82,1.737-0.82
		h54.685c0.655,0,1.278,0.286,1.706,0.783c0.427,0.497,0.616,1.155,0.519,1.804l-0.459,3.035c6.447,0.911,11.426,6.45,11.426,13.145
		C142.199,105.105,136.237,111.068,128.908,111.068z"/>
</g>
</svg>
