<?xml version="1.0" encoding="utf-8"?>
<!-- Generator: Adobe Illustrator 17.0.0, SVG Export Plug-In . SVG Version: 6.00 Build 0)  -->
<!DOCTYPE svg PUBLIC "-//W3C//DTD SVG 1.1//EN" "http://www.w3.org/Graphics/SVG/1.1/DTD/svg11.dtd">
<svg version="1.1" id="Layer_1" xmlns="http://www.w3.org/2000/svg" xmlns:xlink="http://www.w3.org/1999/xlink" x="0px" y="0px"
	 width="207.3px" height="207.3px" viewBox="0 0 207.3 207.3" enable-background="new 0 0 207.3 207.3" xml:space="preserve">
<g>
	<path fill="#231F20" d="M115.762,70.148c0.785,0,1.552-0.15,2.289-0.452c1.5-0.617,2.705-1.833,3.311-3.348l7.007-17.659
		c1.2-3.049-0.219-6.453-3.243-7.753c-8.092-3.451-16.683-5.201-25.566-5.201c-12.425,0-24.342,3.455-34.738,10.034l-3.493-5.042
		c-1.376-1.982-3.893-2.967-6.256-2.444c-2.389,0.531-4.206,2.434-4.632,4.867l-5.944,34.793c-0.317,1.836,0.216,3.681,1.448,5.045
		c1.141,1.274,2.777,2.005,4.49,2.005c0.06,0,0.15-0.002,0.226-0.005c0.051-0.001,0.102-0.004,0.153-0.007l34.33-2.169
		c2.405-0.158,4.479-1.729,5.282-3.994c0.819-2.3,0.181-4.841-1.589-6.441l-2.988-2.763c4.299-1.887,8.957-2.869,13.725-2.871
		c4.766,0,9.396,0.974,13.771,2.897C114.11,69.978,114.923,70.147,115.762,70.148C115.762,70.148,115.762,70.148,115.762,70.148z
		 M99.571,57.745c-8.524,0.004-16.771,2.489-23.852,7.187c-1.15,0.763-1.887,2.013-1.997,3.389s0.417,2.728,1.431,3.665l2.473,2.286
		l-23.627,1.493l4.086-23.914l1.883,2.718c0.692,0.999,1.76,1.675,2.958,1.875c1.197,0.201,2.427-0.093,3.407-0.813
		c9.692-7.127,21.183-10.894,33.262-10.894c6.656,0,13.141,1.147,19.308,3.411l-4.807,12.112
		C109.434,58.589,104.562,57.745,99.571,57.745z"/>
	<path fill="#231F20" d="M107.165,151.137L107.165,151.137l-18.154-29.23c-1.271-2.023-3.61-3.119-6.014-2.756
		c-2.398,0.365-4.333,2.12-4.923,4.449l-1.019,3.938c-3.695-2.894-6.764-6.534-9.021-10.735c-2.258-4.203-3.591-8.743-3.962-13.472
		c-0.12-1.628-0.913-3.16-2.172-4.197c-1.249-1.033-2.855-1.53-4.521-1.339l-18.882,2.18c-3.257,0.39-5.58,3.252-5.29,6.522
		c0.788,8.771,3.313,17.174,7.505,24.974c5.879,10.953,14.562,19.823,25.28,25.874l-2.779,5.445
		c-1.132,2.201-0.814,4.83,0.797,6.685c1.146,1.328,2.808,2.09,4.561,2.09c0,0,0,0,0.001,0c0.646,0,1.286-0.104,1.916-0.312
		l33.487-11.227c1.765-0.596,3.131-1.941,3.732-3.642c0.593-1.616,0.462-3.413-0.394-4.994
		C107.277,151.321,107.219,151.224,107.165,151.137z M74.537,160.401l1.502-2.942c0.553-1.083,0.644-2.342,0.253-3.493
		c-0.391-1.151-1.229-2.094-2.327-2.617c-10.867-5.172-19.624-13.518-25.323-24.137c-3.152-5.868-5.211-12.127-6.136-18.641
		l12.942-1.494c0.734,4.893,2.295,9.584,4.658,13.984c4.035,7.511,10.127,13.604,17.616,17.617c1.22,0.653,2.669,0.71,3.932,0.156
		c1.265-0.554,2.205-1.659,2.551-2.996l0.843-3.257l12.489,20.109L74.537,160.401z"/>
	<path fill="#231F20" d="M172.362,89.699l-26.474-23.376c-1.102-0.967-2.512-1.5-3.972-1.5c-0.367,0-0.737,0.034-1.041,0.091
		c-1.686,0.29-3.174,1.292-4.084,2.75c-0.036,0.058-0.079,0.131-0.112,0.19c-0.017,0.028-0.069,0.125-0.084,0.153l-16.216,30.334
		c-1.137,2.139-0.889,4.736,0.619,6.6c1.149,1.434,2.86,2.257,4.695,2.257c0.551,0,1.1-0.076,1.615-0.221l3.92-1.088
		c-0.657,4.648-2.272,9.126-4.779,13.181c-2.509,4.057-5.773,7.482-9.71,10.187c-1.325,0.915-2.243,2.352-2.528,4
		c-0.252,1.583,0.146,3.231,1.11,4.551l11.329,15.246c1.133,1.518,2.938,2.424,4.831,2.424c0,0,0,0,0.001,0
		c1.244,0,2.442-0.379,3.468-1.099c7.195-5.067,13.208-11.458,17.868-18.994c6.543-10.572,9.878-22.527,9.754-34.832l6.102-0.32
		c2.474-0.12,4.592-1.71,5.389-4.026C174.876,93.884,174.209,91.33,172.362,89.699z M157.643,91.798
		c-1.214,0.063-2.35,0.615-3.15,1.529c-0.8,0.914-1.197,2.113-1.1,3.324c0.96,11.993-1.885,23.748-8.228,33.997
		c-3.506,5.669-7.896,10.584-13.069,14.642l-7.771-10.457c3.871-3.084,7.152-6.783,9.78-11.03c4.481-7.25,6.707-15.571,6.438-24.064
		c-0.044-1.38-0.72-2.664-1.832-3.482c-1.112-0.817-2.538-1.079-3.87-0.711l-3.243,0.9l11.162-20.88l18.186,16.059L157.643,91.798z"
		/>
</g>
</svg>
