<?xml version="1.0" encoding="utf-8"?>
<!-- Generator: Adobe Illustrator 17.0.0, SVG Export Plug-In . SVG Version: 6.00 Build 0)  -->
<!DOCTYPE svg PUBLIC "-//W3C//DTD SVG 1.1//EN" "http://www.w3.org/Graphics/SVG/1.1/DTD/svg11.dtd">
<svg version="1.1" id="Layer_1" xmlns="http://www.w3.org/2000/svg" xmlns:xlink="http://www.w3.org/1999/xlink" x="0px" y="0px"
	 width="207.3px" height="207.3px" viewBox="0 0 207.3 207.3" enable-background="new 0 0 207.3 207.3" xml:space="preserve">
<g>
	<g>
		<path fill="none" stroke="#231F20" stroke-width="9" stroke-linecap="round" stroke-linejoin="round" stroke-miterlimit="10" d="
			M105.04,25.872c0,0,4.951,4.775,0,11.466c-4.941,6.688-6.911,20.97,2.193,25.505 M78.293,25.872c0,0,4.951,4.775,0,11.466
			c-4.94,6.688-6.911,20.97,2.193,25.505"/>
	</g>
	<path fill="#231F20" d="M158.581,86.601l1.206-7.978c0.196-1.296-0.183-2.613-1.038-3.607c-0.854-0.994-2.101-1.565-3.411-1.565
		H26.025c-1.345,0-2.619,0.602-3.474,1.639c-0.854,1.038-1.201,2.404-0.942,3.724l15.079,77.16c0.03,0.158,0.069,0.313,0.117,0.467
		c4.385,14.167,26.958,29.457,55.783,29.457c28.822,0,51.241-15.601,55.483-30.055c0.058-0.195,0.102-0.394,0.132-0.595l1.233-8.158
		c1.858,0.348,3.751,0.525,5.667,0.525c16.878,0,30.608-13.731,30.608-30.609C185.712,101.305,173.827,88.333,158.581,86.601z
		 M139.353,153.582c-4.312,13.755-28.005,23.316-46.765,23.316c-23.438,0-43.54-12.026-47.118-22.906L36.072,105.9h80.512
		c1.242,0,2.25-1.007,2.25-2.25s-1.008-2.25-2.25-2.25H35.193L31.49,82.451h118.616l-1.19,7.869
		c-0.001,0.011-0.003,0.021-0.005,0.031l-7.598,50.264c-0.005,0.031-0.009,0.062-0.014,0.093L139.353,153.582z M155.104,138.616
		c-1.464,0-2.906-0.158-4.319-0.445l6.45-42.667c10.918,1.074,19.477,10.307,19.477,21.503
		C176.712,128.922,167.019,138.616,155.104,138.616z"/>
</g>
</svg>
