<?xml version="1.0" encoding="utf-8"?>
<!-- Generator: Adobe Illustrator 17.0.0, SVG Export Plug-In . SVG Version: 6.00 Build 0)  -->
<!DOCTYPE svg PUBLIC "-//W3C//DTD SVG 1.1//EN" "http://www.w3.org/Graphics/SVG/1.1/DTD/svg11.dtd">
<svg version="1.1" id="Layer_1" xmlns="http://www.w3.org/2000/svg" xmlns:xlink="http://www.w3.org/1999/xlink" x="0px" y="0px"
	 width="207.3px" height="207.3px" viewBox="0 0 207.3 207.3" enable-background="new 0 0 207.3 207.3" xml:space="preserve">
<g>
	<path fill="#231F20" d="M159.993,64.837c0-0.141-0.029-0.274-0.042-0.412V26.119c0-2.485-2.015-4.5-4.5-4.5H52.089
		c-2.485,0-4.5,2.015-4.5,4.5v155.126c0,2.485,2.015,4.5,4.5,4.5h103.362c2.485,0,4.5-2.015,4.5-4.5V65.249
		C159.964,65.111,159.993,64.978,159.993,64.837z M86.658,30.619h34.162v44.906H86.658V30.619z M82.158,30.619v49.406h43.162V30.619
		h25.632v29.719h-8.38c-2.485,0-4.5,2.015-4.5,4.5s2.015,4.5,4.5,4.5h8.38v83.698H56.589V69.337h8.421c2.485,0,4.5-2.015,4.5-4.5
		s-2.015-4.5-4.5-4.5h-8.421V30.619H82.158z M56.589,176.745v-19.21h94.362v19.21H56.589z"/>
	<polygon fill="#231F20" points="91.759,121.954 103.654,115.7 115.548,121.954 113.277,108.709 122.9,99.329 109.601,97.397 
		103.654,85.346 97.707,97.397 84.408,99.329 94.031,108.709 	"/>
</g>
</svg>
