<?xml version="1.0" encoding="utf-8"?>
<!-- Generator: Adobe Illustrator 17.0.0, SVG Export Plug-In . SVG Version: 6.00 Build 0)  -->
<!DOCTYPE svg PUBLIC "-//W3C//DTD SVG 1.1//EN" "http://www.w3.org/Graphics/SVG/1.1/DTD/svg11.dtd">
<svg version="1.1" id="Layer_1" xmlns="http://www.w3.org/2000/svg" xmlns:xlink="http://www.w3.org/1999/xlink" x="0px" y="0px"
	 width="207.3px" height="207.3px" viewBox="0 0 207.3 207.3" enable-background="new 0 0 207.3 207.3" xml:space="preserve">
<g>
	<path fill="#231F20" d="M103.65,37.728c-30.526,0-55.362,24.835-55.362,55.361c0,29.808,50.281,73.542,52.422,75.39
		c0.844,0.729,1.892,1.093,2.94,1.093s2.096-0.364,2.94-1.093c2.141-1.848,52.421-45.582,52.421-75.39
		C159.011,62.563,134.177,37.728,103.65,37.728z M103.649,159.064c-15.256-13.782-46.361-46.012-46.361-65.975
		c0-25.563,20.798-46.361,46.362-46.361s46.361,20.798,46.361,46.361C150.011,113.035,118.904,145.277,103.649,159.064z"/>
	<path fill="#231F20" d="M103.65,61.607c-13.924,0-25.253,11.328-25.253,25.253s11.329,25.253,25.253,25.253
		s25.253-11.328,25.253-25.253S117.574,61.607,103.65,61.607z M103.65,107.613c-11.443,0-20.753-9.31-20.753-20.753
		s9.31-20.753,20.753-20.753s20.753,9.31,20.753,20.753S115.094,107.613,103.65,107.613z"/>
</g>
</svg>
