<?xml version="1.0" encoding="utf-8"?>
<!-- Generator: Adobe Illustrator 17.0.0, SVG Export Plug-In . SVG Version: 6.00 Build 0)  -->
<!DOCTYPE svg PUBLIC "-//W3C//DTD SVG 1.1//EN" "http://www.w3.org/Graphics/SVG/1.1/DTD/svg11.dtd">
<svg version="1.1" id="Layer_1" xmlns="http://www.w3.org/2000/svg" xmlns:xlink="http://www.w3.org/1999/xlink" x="0px" y="0px"
	 width="207.3px" height="207.3px" viewBox="0 0 207.3 207.3" enable-background="new 0 0 207.3 207.3" xml:space="preserve">
<g>
	<path fill="#231F20" d="M91.007,142.901c-7.72,0-14,6.28-14,14s6.28,14,14,14s14-6.28,14-14S98.726,142.901,91.007,142.901z
		 M91.007,161.901c-2.757,0-5-2.243-5-5s2.243-5,5-5s5,2.243,5,5S93.764,161.901,91.007,161.901z"/>
	<path fill="#231F20" d="M142.793,142.901c-7.72,0-14,6.28-14,14s6.28,14,14,14s14-6.28,14-14S150.513,142.901,142.793,142.901z
		 M142.793,161.901c-2.757,0-5-2.243-5-5s2.243-5,5-5s5,2.243,5,5S145.55,161.901,142.793,161.901z"/>
	<path fill="#231F20" d="M184.673,51.184c-0.854-0.994-2.101-1.566-3.412-1.566H55.671l-1.927-9.911
		c-0.411-2.115-2.263-3.641-4.417-3.641H26.05c-2.485,0-4.5,2.015-4.5,4.5s2.015,4.5,4.5,4.5h19.568l1.903,9.788
		c0.007,0.043,0.002,0.086,0.011,0.13l4.329,22.094h96.244c1.242,0,2.25,1.007,2.25,2.25s-1.008,2.25-2.25,2.25H52.742l4.28,21.847
		h103.339c1.242,0,2.25,1.007,2.25,2.25s-1.008,2.25-2.25,2.25H57.904l4.831,24.657c0.414,2.111,2.265,3.635,4.416,3.635h102.328
		c2.225,0,4.115-1.625,4.449-3.825l11.781-77.599C185.906,53.497,185.528,52.179,184.673,51.184z"/>
</g>
</svg>
