<?xml version="1.0" encoding="utf-8"?>
<!-- Generator: Adobe Illustrator 17.0.0, SVG Export Plug-In . SVG Version: 6.00 Build 0)  -->
<!DOCTYPE svg PUBLIC "-//W3C//DTD SVG 1.1//EN" "http://www.w3.org/Graphics/SVG/1.1/DTD/svg11.dtd">
<svg version="1.1" id="Layer_1" xmlns="http://www.w3.org/2000/svg" xmlns:xlink="http://www.w3.org/1999/xlink" x="0px" y="0px"
	 width="207.3px" height="207.3px" viewBox="0 0 207.3 207.3" enable-background="new 0 0 207.3 207.3" xml:space="preserve">
<g>
	<path fill="#231F20" d="M104.216,34.752c-37.835,0-68.617,30.781-68.617,68.617s30.781,68.617,68.617,68.617
		s68.617-30.781,68.617-68.617S142.052,34.752,104.216,34.752z M104.216,162.986c-32.873,0-59.617-26.744-59.617-59.617
		s26.744-59.617,59.617-59.617s59.617,26.744,59.617,59.617S137.089,162.986,104.216,162.986z"/>
	<path fill="#231F20" d="M130.596,84.632l0.459-3.035c0.098-0.648-0.091-1.307-0.519-1.804c-0.427-0.497-1.05-0.783-1.706-0.783
		H74.145c-0.672,0-1.31,0.301-1.737,0.82s-0.601,1.202-0.471,1.862l6.376,32.63c0.015,0.079,0.035,0.157,0.059,0.234
		c1.891,6.108,11.574,12.701,23.922,12.701c12.349,0,21.967-6.727,23.796-12.958c0.029-0.098,0.051-0.197,0.066-0.297l0.47-3.11
		c0.693,0.11,1.394,0.177,2.105,0.177c7.329,0,13.291-5.962,13.291-13.291C142.022,91.082,137.042,85.543,130.596,84.632z
		 M121.732,113.162c-1.293,3.969-8.852,9.595-19.438,9.595c-10.241,0-18.252-5.457-19.59-9.429L76.877,83.51h49.337l-0.443,2.93
		c-0.001,0.005-0.002,0.01-0.002,0.016l-3.212,21.248c-0.002,0.012-0.004,0.025-0.006,0.037L121.732,113.162z M128.731,106.568
		c-0.484,0-0.962-0.045-1.433-0.122l2.626-17.37c4.283,0.585,7.598,4.259,7.598,8.701
		C137.522,102.624,133.578,106.568,128.731,106.568z"/>
</g>
</svg>
