<?xml version="1.0" encoding="utf-8"?>
<!-- Generator: Adobe Illustrator 17.0.0, SVG Export Plug-In . SVG Version: 6.00 Build 0)  -->
<!DOCTYPE svg PUBLIC "-//W3C//DTD SVG 1.1//EN" "http://www.w3.org/Graphics/SVG/1.1/DTD/svg11.dtd">
<svg version="1.1" id="Layer_1" xmlns="http://www.w3.org/2000/svg" xmlns:xlink="http://www.w3.org/1999/xlink" x="0px" y="0px"
	 width="207.3px" height="207.3px" viewBox="0 0 207.3 207.3" enable-background="new 0 0 207.3 207.3" xml:space="preserve">
<path fill="#231F20" d="M144.57,89.966c-0.316-0.9-1.168-1.504-2.123-1.504h-28.543l-8.101-24.336
	c-0.026-0.079-0.062-0.152-0.096-0.226c-0.013-0.028-0.022-0.057-0.036-0.084c-0.061-0.12-0.132-0.232-0.211-0.337
	c-0.019-0.025-0.042-0.047-0.062-0.071c-0.065-0.078-0.132-0.152-0.206-0.22c-0.034-0.032-0.07-0.06-0.106-0.09
	c-0.071-0.058-0.145-0.111-0.223-0.16c-0.038-0.024-0.074-0.048-0.114-0.069c-0.114-0.063-0.232-0.117-0.356-0.16
	c-0.005-0.002-0.009-0.005-0.014-0.006c-0.001,0-0.002,0-0.002-0.001c-0.129-0.043-0.263-0.071-0.4-0.09
	c-0.052-0.007-0.103-0.009-0.154-0.012c-0.051-0.004-0.102-0.012-0.154-0.012c0,0,0,0-0.001,0c-0.03,0-0.059,0.006-0.089,0.007
	c-0.061,0.002-0.121,0.007-0.18,0.014c-0.075,0.009-0.148,0.023-0.221,0.039c-0.056,0.013-0.112,0.024-0.167,0.041
	c-0.086,0.026-0.168,0.061-0.25,0.097c-0.045,0.02-0.09,0.037-0.134,0.06c-0.104,0.054-0.203,0.117-0.296,0.186
	c-0.042,0.031-0.079,0.066-0.118,0.1c-0.062,0.053-0.122,0.107-0.177,0.167c-0.037,0.039-0.072,0.08-0.106,0.122
	c-0.054,0.067-0.103,0.137-0.15,0.21c-0.026,0.041-0.053,0.08-0.076,0.122c-0.063,0.114-0.117,0.232-0.16,0.358
	c-0.002,0.006-0.005,0.01-0.007,0.016l-8.086,24.335H64.853c-0.955,0-1.807,0.604-2.123,1.505s-0.029,1.904,0.717,2.502
	l22.647,18.126l-10.353,31.158c-0.314,0.946,0.031,1.986,0.85,2.556c0.388,0.27,0.837,0.403,1.285,0.403
	c0.499,0,0.997-0.166,1.407-0.494l24.393-19.55l24.427,19.551c0.78,0.624,1.875,0.66,2.692,0.089
	c0.818-0.569,1.164-1.61,0.849-2.557l-10.379-31.18l22.589-18.104C144.599,91.871,144.886,90.868,144.57,89.966z M117.228,108.041
	c-0.734,0.589-1.025,1.573-0.728,2.467l8.469,25.439l-19.857-15.893c-0.001-0.001-0.002-0.001-0.002-0.002l-0.029-0.023
	c-0.104-0.083-0.214-0.156-0.328-0.218c-0.031-0.017-0.065-0.027-0.097-0.043c-0.092-0.045-0.185-0.086-0.281-0.118
	c-0.049-0.016-0.099-0.025-0.149-0.038c-0.082-0.021-0.163-0.04-0.246-0.051c-0.056-0.008-0.111-0.01-0.167-0.014
	c-0.046-0.003-0.092-0.011-0.138-0.011l-0.006-47.565l0.001-0.004l6.477,19.456c0.306,0.919,1.166,1.539,2.135,1.539h23.76
	L117.228,108.041z"/>
</svg>
