<?xml version="1.0" encoding="utf-8"?>
<!-- Generator: Adobe Illustrator 17.0.0, SVG Export Plug-In . SVG Version: 6.00 Build 0)  -->
<!DOCTYPE svg PUBLIC "-//W3C//DTD SVG 1.1//EN" "http://www.w3.org/Graphics/SVG/1.1/DTD/svg11.dtd">
<svg version="1.1" id="Layer_1" xmlns="http://www.w3.org/2000/svg" xmlns:xlink="http://www.w3.org/1999/xlink" x="0px" y="0px"
	 width="207.3px" height="207.3px" viewBox="0 0 207.3 207.3" enable-background="new 0 0 207.3 207.3" xml:space="preserve">
<g>
	<path fill="#231F20" d="M103.69,172.837h-0.007c-0.705,0-1.379-0.164-1.98-0.459c-2.095-0.94-20.962-9.604-39.874-24.857
		c-26.33-21.237-40.208-45.344-40.134-69.714c0-23.816,19.387-43.203,43.217-43.203c16.963,0,31.674,9.822,38.744,24.08
		c7.069-14.257,21.781-24.08,38.744-24.08c23.829,0,43.216,19.387,43.216,43.216c0.075,24.355-13.792,48.462-40.102,69.7
		c-19.616,15.834-39.185,24.567-40.008,24.932c-0.579,0.256-1.197,0.384-1.816,0.384V172.837z M64.911,43.604
		c-18.867,0-34.217,15.35-34.217,34.216c-0.146,48.019,61.521,80.015,72.991,85.546c11.466-5.535,73.077-37.529,72.93-85.532
		c0-18.88-15.35-34.23-34.216-34.23c-18.867,0-34.217,15.35-34.217,34.216c0,2.485-2.015,4.5-4.5,4.5s-4.556-2.015-4.556-4.5
		C99.127,58.953,83.778,43.604,64.911,43.604z"/>
	<path fill="#231F20" d="M166.442,78.757c-1.242,0-2.25-1.007-2.25-2.25c0-11.268-9.166-20.434-20.434-20.434
		c-1.242,0-2.25-1.007-2.25-2.25s1.008-2.25,2.25-2.25c13.748,0,24.934,11.186,24.934,24.934
		C168.692,77.75,167.684,78.757,166.442,78.757z"/>
	<path fill="none" stroke="#231F20" stroke-width="9" stroke-linecap="round" stroke-linejoin="round" stroke-miterlimit="10" d="
		M92.943,48.919"/>
	<path fill="none" stroke="#231F20" stroke-width="9" stroke-linecap="round" stroke-linejoin="round" stroke-miterlimit="10" d="
		M117.609,48.919"/>
</g>
</svg>
