<?xml version="1.0" encoding="utf-8"?>
<!-- Generator: Adobe Illustrator 17.0.0, SVG Export Plug-In . SVG Version: 6.00 Build 0)  -->
<!DOCTYPE svg PUBLIC "-//W3C//DTD SVG 1.1//EN" "http://www.w3.org/Graphics/SVG/1.1/DTD/svg11.dtd">
<svg version="1.1" id="Layer_1" xmlns="http://www.w3.org/2000/svg" xmlns:xlink="http://www.w3.org/1999/xlink" x="0px" y="0px"
	 width="207.3px" height="207.3px" viewBox="0 0 207.3 207.3" enable-background="new 0 0 207.3 207.3" xml:space="preserve">
<path fill="#231F20" d="M187.961,116.29c0-15.931-12.284-29.04-27.876-30.373l0.026-20.669c0-0.014-0.004-0.026-0.004-0.04
	c0-0.013,0.004-0.026,0.004-0.039c0-7.907-2.562-14.449-7.616-19.443c-11.312-11.18-32.062-11.402-44.208-11.277V30.42h2.104
	c2.485,0,4.5-2.015,4.5-4.5s-2.015-4.5-4.5-4.5H97.468c-2.485,0-4.5,2.015-4.5,4.5s2.015,4.5,4.5,4.5h1.818v4.027
	c-11.615-0.116-33.041,0.18-44.453,11.453c-3.975,3.927-6.398,8.792-7.248,14.5H26.298c-2.485,0-4.5,2.015-4.5,4.5
	c0,15.182,11.222,27.791,25.808,29.971v86.176c0,2.485,2.015,4.5,4.5,4.5h103.361c2.483,0,4.497-2.011,4.5-4.495l0.043-34.382
	C175.638,145.372,187.961,132.247,187.961,116.29z M160.074,95.209c9.64,1.895,16.717,10.471,16.717,21.081
	c0,10.227-7.185,18.793-16.769,20.954L160.074,95.209z M100.902,43.466c1.075,0.013,2.044,0.025,2.885,0.025
	c0.912,0,1.947-0.012,3.082-0.025c10.547-0.127,30.174-0.356,39.3,8.662c3.325,3.287,4.942,7.553,4.942,13.042
	c0,0.012,0.003,0.022,0.003,0.034c0,0.012-0.003,0.022-0.003,0.034l-0.109,87.808h-44.823V67.116h23.625
	c1.242,0,2.25-1.007,2.25-2.25s-1.008-2.25-2.25-2.25H56.383c0.445-4.181,2.008-7.58,4.774-10.313
	C70.483,43.092,91.023,43.342,100.902,43.466z M31.277,69.399h16.329v16.329C39.461,83.971,33.033,77.544,31.277,69.399z
	 M56.606,176.546v-85.84V67.116h45.073v85.929h-30.19c-1.242,0-2.25,1.007-2.25,2.25s1.008,2.25,2.25,2.25h79.508l-0.023,19.001
	H56.606z"/>
</svg>
