<?xml version="1.0" encoding="utf-8"?>
<!-- Generator: Adobe Illustrator 17.0.0, SVG Export Plug-In . SVG Version: 6.00 Build 0)  -->
<!DOCTYPE svg PUBLIC "-//W3C//DTD SVG 1.1//EN" "http://www.w3.org/Graphics/SVG/1.1/DTD/svg11.dtd">
<svg version="1.1" id="Layer_1" xmlns="http://www.w3.org/2000/svg" xmlns:xlink="http://www.w3.org/1999/xlink" x="0px" y="0px"
	 width="207.3px" height="207.3px" viewBox="0 0 207.3 207.3" enable-background="new 0 0 207.3 207.3" xml:space="preserve">
<path fill="#231F20" d="M144.459,89.966c-0.316-0.9-1.168-1.504-2.123-1.504h-28.543l-8.101-24.336
	c-0.306-0.919-1.166-1.539-2.135-1.539c0,0,0,0-0.001,0c-0.969,0-1.829,0.621-2.134,1.541l-8.086,24.334H64.742
	c-0.955,0-1.807,0.604-2.123,1.505s-0.029,1.904,0.717,2.502l22.647,18.126l-10.353,31.158c-0.314,0.946,0.031,1.986,0.85,2.556
	c0.388,0.27,0.837,0.403,1.285,0.403c0.499,0,0.997-0.166,1.407-0.494l24.393-19.55l24.427,19.551
	c0.78,0.624,1.875,0.66,2.692,0.089c0.818-0.569,1.164-1.61,0.849-2.557l-10.379-31.18l22.589-18.104
	C144.488,91.871,144.776,90.868,144.459,89.966z"/>
</svg>
