<?xml version="1.0" encoding="utf-8"?>
<!-- Generator: Adobe Illustrator 17.0.0, SVG Export Plug-In . SVG Version: 6.00 Build 0)  -->
<!DOCTYPE svg PUBLIC "-//W3C//DTD SVG 1.1//EN" "http://www.w3.org/Graphics/SVG/1.1/DTD/svg11.dtd">
<svg version="1.1" id="Layer_1" xmlns="http://www.w3.org/2000/svg" xmlns:xlink="http://www.w3.org/1999/xlink" x="0px" y="0px"
	 width="207.3px" height="207.3px" viewBox="0 0 207.3 207.3" enable-background="new 0 0 207.3 207.3" xml:space="preserve">
<g>
	<path fill="#231F20" d="M155.635,70.805h-12.423V40.574c0-2.485-2.015-4.5-4.5-4.5h-18.678c-2.485,0-4.5,2.015-4.5,4.5v30.231
		H92.32V40.574c0-2.485-2.015-4.5-4.5-4.5H69.142c-2.485,0-4.5,2.015-4.5,4.5v30.231H51.665c-2.485,0-4.5,2.015-4.5,4.5v69.463
		c0,2.485,2.015,4.5,4.5,4.5h30.313v18.003c0,2.485,2.015,4.5,4.5,4.5h33.557c2.485,0,4.5-2.015,4.5-4.5v-18.003h31.101
		c2.485,0,4.5-2.015,4.5-4.5V75.305C160.135,72.82,158.121,70.805,155.635,70.805z M124.535,45.074h9.678v25.731h-9.678V45.074z
		 M73.642,45.074h9.678v25.731h-9.678V45.074z M115.535,162.771H90.978v-13.503h24.557V162.771z M151.135,140.268h-31.101H86.478
		H56.165V79.805h12.978H87.82h32.215h18.678h12.423V140.268z"/>
	<path fill="#231F20" d="M69.142,123.861c-1.242,0-2.25,1.007-2.25,2.25s1.008,2.25,2.25,2.25h69.57c1.242,0,2.25-1.007,2.25-2.25
		s-1.008-2.25-2.25-2.25H69.142z"/>
</g>
</svg>
