<?xml version="1.0" encoding="utf-8"?>
<!-- Generator: Adobe Illustrator 17.0.0, SVG Export Plug-In . SVG Version: 6.00 Build 0)  -->
<!DOCTYPE svg PUBLIC "-//W3C//DTD SVG 1.1//EN" "http://www.w3.org/Graphics/SVG/1.1/DTD/svg11.dtd">
<svg version="1.1" id="Layer_1" xmlns="http://www.w3.org/2000/svg" xmlns:xlink="http://www.w3.org/1999/xlink" x="0px" y="0px"
	 width="207.3px" height="207.3px" viewBox="0 0 207.3 207.3" enable-background="new 0 0 207.3 207.3" xml:space="preserve">
<g>
	<path fill="#231F20" d="M189.864,76.944c-0.415-13.087-5.594-24.005-14.98-31.574c-7.93-6.395-18.428-9.916-29.56-9.916
		c-22.003,0-39.904,17.901-39.904,39.904c0,3.744,2.318,7.097,5.82,8.42c1.036,0.391,2.112,0.581,3.178,0.581
		c2.536,0,5.013-1.073,6.755-3.051l0.116-0.131c0.769-0.873,1.361-1.886,1.744-2.984c3.205-9.185,6.713-10.668,13.867-10.668
		c8.007,0,9.358,2.596,9.358,8.416c0.075,24.625-23.559,34.443-24.565,34.849c-0.496,0.194-0.935,0.417-1.387,0.695l-7.277,3.141
		c-0.167,0.072-0.333,0.15-0.495,0.232c-3.434,1.737-5.986,4.707-7.186,8.364c-1.2,3.656-0.904,7.562,0.833,10.996
		c0.865,1.71,2.032,3.193,3.419,4.397c0.147,1.842,0.654,3.656,1.513,5.354c0.865,1.71,2.032,3.192,3.419,4.397
		c0.147,1.842,0.654,3.656,1.513,5.354c0.855,1.691,2.007,3.16,3.373,4.357c0.154,1.821,0.658,3.614,1.508,5.294
		c2.467,4.876,7.395,7.906,12.861,7.906c2.244,0,4.491-0.537,6.499-1.552c0.091-0.046,0.181-0.094,0.27-0.143l3.585-1.969
		c0.336-0.184,0.659-0.39,0.969-0.615c0.485-0.354,12.006-8.832,23.211-23.999C183.299,122.728,190.748,99.888,189.864,76.944z
		 M139.811,159.725l-3.585,1.969c-0.783,0.396-1.616,0.583-2.437,0.583c-1.975,0-3.878-1.086-4.83-2.968
		c-0.574-1.134-0.687-2.369-0.449-3.523l10.764-5.257c1.116-0.545,1.58-1.893,1.034-3.009c-0.545-1.116-1.892-1.578-3.009-1.035
		l-11.089,5.415c-0.885-0.507-1.639-1.264-2.134-2.242c-0.597-1.18-0.696-2.469-0.417-3.663l11.139-5.44
		c1.116-0.545,1.58-1.893,1.034-3.009c-0.544-1.116-1.892-1.578-3.009-1.035l-11.545,5.638c-0.885-0.507-1.64-1.265-2.135-2.243
		c-0.576-1.139-0.688-2.381-0.445-3.54c0.009-0.004,0.019-0.006,0.029-0.01l11.826-5.775c1.116-0.545,1.58-1.893,1.034-3.009
		c-0.544-1.116-1.892-1.579-3.009-1.035l-11.826,5.775c-0.094,0.046-0.176,0.105-0.26,0.161c-0.948-0.505-1.76-1.287-2.282-2.318
		c-1.348-2.665-0.28-5.918,2.385-7.266l7.884-3.404l0.537-0.332c0,0,30.336-11.89,30.24-43.213c0-11.892-6.466-17.416-18.358-17.416
		s-18.202,4.774-22.364,16.703l-0.116,0.131c0-17.068,13.836-30.904,30.904-30.904c17.068,0,34.844,10.191,35.545,32.806
		C182.855,128.35,139.811,159.725,139.811,159.725z"/>
	<path fill="#231F20" d="M94.765,114.858c-0.163-0.082-0.328-0.16-0.495-0.232l-7.277-3.141c-0.454-0.279-0.932-0.517-1.428-0.711
		c-0.966-0.39-24.6-10.208-24.524-34.806c0-2.249,0.317-5.189,1.828-6.585c1.297-1.198,3.971-1.858,7.531-1.858
		c7.154,0,10.662,1.482,13.867,10.668c0.383,1.098,0.975,2.112,1.744,2.984l0.116,0.131c1.743,1.978,4.22,3.051,6.755,3.051
		c1.066,0,2.141-0.189,3.178-0.581c3.503-1.323,5.82-4.676,5.82-8.42c0-22.003-17.901-39.904-39.904-39.904
		c-20.823,0-43.637,12.983-44.539,41.49c-0.883,22.943,6.565,45.784,21.541,66.055c11.205,15.167,22.726,23.645,23.211,23.999
		c0.309,0.226,0.633,0.431,0.969,0.615l3.585,1.969c0.089,0.049,0.18,0.097,0.27,0.143c2.008,1.016,4.255,1.552,6.499,1.552
		c5.466,0,10.394-3.029,12.861-7.906c0.85-1.68,1.355-3.473,1.508-5.294c1.367-1.197,2.518-2.666,3.373-4.357
		c0.859-1.699,1.366-3.512,1.513-5.354c1.387-1.205,2.555-2.687,3.419-4.397c0.859-1.699,1.366-3.512,1.513-5.354
		c1.387-1.205,2.555-2.687,3.419-4.397c1.737-3.434,2.033-7.339,0.833-10.996C100.751,119.565,98.199,116.595,94.765,114.858z
		 M93.087,130.155c-0.522,1.031-1.334,1.813-2.282,2.318c-0.084-0.057-0.167-0.116-0.26-0.161l-11.826-5.775
		c-1.115-0.545-2.464-0.082-3.009,1.035c-0.546,1.117-0.082,2.464,1.034,3.009l11.826,5.775c0.009,0.005,0.019,0.006,0.029,0.01
		c0.243,1.16,0.132,2.401-0.445,3.54c-0.495,0.979-1.25,1.736-2.135,2.243l-11.545-5.638c-1.115-0.545-2.464-0.082-3.009,1.035
		c-0.546,1.117-0.082,2.464,1.034,3.009l11.139,5.44c0.279,1.194,0.179,2.483-0.417,3.663c-0.495,0.978-1.249,1.735-2.134,2.242
		l-11.089-5.415c-1.115-0.544-2.464-0.082-3.009,1.035c-0.546,1.117-0.082,2.464,1.034,3.009l10.764,5.257
		c0.238,1.155,0.125,2.39-0.449,3.523c-0.952,1.882-2.855,2.968-4.83,2.968c-0.821,0-1.654-0.188-2.437-0.583l-3.585-1.969
		c0,0-43.044-31.375-41.059-82.465c0.701-22.615,18.477-32.806,35.545-32.806c17.068,0,30.904,13.836,30.904,30.904l-0.116-0.131
		c-4.162-11.928-10.472-16.703-22.364-16.703S52.041,64.048,52.041,75.94c-0.096,31.323,30.24,43.213,30.24,43.213l0.537,0.332
		l7.884,3.404C93.367,124.237,94.435,127.49,93.087,130.155z"/>
</g>
</svg>
