<?xml version="1.0" encoding="utf-8"?>
<!-- Generator: Adobe Illustrator 17.0.0, SVG Export Plug-In . SVG Version: 6.00 Build 0)  -->
<!DOCTYPE svg PUBLIC "-//W3C//DTD SVG 1.1//EN" "http://www.w3.org/Graphics/SVG/1.1/DTD/svg11.dtd">
<svg version="1.1" id="Layer_1" xmlns="http://www.w3.org/2000/svg" xmlns:xlink="http://www.w3.org/1999/xlink" x="0px" y="0px"
	 width="207.3px" height="207.3px" viewBox="0 0 207.3 207.3" enable-background="new 0 0 207.3 207.3" xml:space="preserve">
<path fill="#231F20" d="M170.558,77.516c-0.03-0.158-0.069-0.314-0.117-0.468c-2.23-7.203-9.169-14.692-19.234-20.319h30.049
	c2.485,0,4.5-2.015,4.5-4.5s-2.015-4.5-4.5-4.5h-62.019c-1.509-0.086-3.034-0.138-4.581-0.138c-1.528,0-3.034,0.053-4.524,0.138
	H51.944c-2.485,0-4.5,2.015-4.5,4.5s2.015,4.5,4.5,4.5h26.587C68.345,62.49,61.354,70.216,59.173,77.646
	c-0.058,0.195-0.102,0.394-0.132,0.595l-1.233,8.158c-1.858-0.348-3.751-0.525-5.667-0.525c-16.878,0-30.608,13.731-30.608,30.609
	c0,15.702,11.886,28.673,27.132,30.406l-1.206,7.978c-0.196,1.296,0.183,2.613,1.038,3.607c0.854,0.994,2.101,1.565,3.411,1.565
	H181.22c1.345,0,2.619-0.602,3.474-1.639c0.854-1.038,1.201-2.404,0.942-3.724L170.558,77.516z M67.892,79.907
	c4.016-12.809,24.837-21.977,42.831-23.178h8.292c21.531,1.363,39.406,12.569,42.761,22.768l9.398,48.093H60.684l5.249-34.72
	c0.005-0.027,0.008-0.054,0.012-0.081L67.892,79.907z M30.533,116.482c0-11.915,9.693-21.609,21.608-21.609
	c1.465,0,2.906,0.158,4.319,0.444l-6.45,42.667C39.092,136.911,30.533,127.678,30.533,116.482z M57.139,151.038l1.19-7.87
	c0.002-0.01,0.003-0.021,0.005-0.031l1.67-11.048h112.049l3.703,18.949H57.139z"/>
</svg>
