<?xml version="1.0" encoding="utf-8"?>
<!-- Generator: Adobe Illustrator 17.0.0, SVG Export Plug-In . SVG Version: 6.00 Build 0)  -->
<!DOCTYPE svg PUBLIC "-//W3C//DTD SVG 1.1//EN" "http://www.w3.org/Graphics/SVG/1.1/DTD/svg11.dtd">
<svg version="1.1" id="Layer_1" xmlns="http://www.w3.org/2000/svg" xmlns:xlink="http://www.w3.org/1999/xlink" x="0px" y="0px"
	 width="207.3px" height="207.3px" viewBox="0 0 207.3 207.3" enable-background="new 0 0 207.3 207.3" xml:space="preserve">
<path fill="#231F20" d="M170.167,148.347c-0.047-0.047-0.096-0.093-0.145-0.139l-34.382-34.382
	c4.44-7.932,6.982-17.063,6.982-26.781c0-30.339-24.682-55.021-55.021-55.021S32.581,56.707,32.581,87.045
	s24.683,55.021,55.021,55.021c9.326,0,18.113-2.34,25.818-6.452l34.344,34.344c0.114,0.148,0.24,0.29,0.375,0.425
	c2.942,2.94,6.853,4.56,11.013,4.56c8.591,0,15.579-6.989,15.579-15.58C174.73,155.202,173.11,151.29,170.167,148.347z
	 M87.602,122.714c-19.669,0-35.67-16.001-35.67-35.669s16.001-35.669,35.67-35.669c19.668,0,35.669,16.001,35.669,35.669
	S107.27,122.714,87.602,122.714z"/>
</svg>
