<?xml version="1.0" encoding="utf-8"?>
<!-- Generator: Adobe Illustrator 17.0.0, SVG Export Plug-In . SVG Version: 6.00 Build 0)  -->
<!DOCTYPE svg PUBLIC "-//W3C//DTD SVG 1.1//EN" "http://www.w3.org/Graphics/SVG/1.1/DTD/svg11.dtd">
<svg version="1.1" id="Layer_1" xmlns="http://www.w3.org/2000/svg" xmlns:xlink="http://www.w3.org/1999/xlink" x="0px" y="0px"
	 width="207.3px" height="207.3px" viewBox="0 0 207.3 207.3" enable-background="new 0 0 207.3 207.3" xml:space="preserve">
<g>
	<path fill="#231F20" d="M123.723,84.67c0.619-1.077,0.247-2.453-0.83-3.072c-1.078-0.617-2.453-0.247-3.072,0.831
		c-3.112,5.418-8.924,8.785-15.166,8.785s-12.053-3.366-15.166-8.785c-0.619-1.078-1.994-1.45-3.072-0.831
		c-1.077,0.619-1.449,1.995-0.83,3.072c3.913,6.812,11.22,11.044,19.068,11.044S119.81,91.482,123.723,84.67z"/>
	<path fill="#231F20" d="M167.153,165.793c-0.19-27.392-17.958-50.67-42.557-59.135c11.117-6.759,18.559-18.988,18.559-32.922
		c0-21.229-17.271-38.5-38.5-38.5s-38.5,17.271-38.5,38.5c0,13.788,7.29,25.9,18.213,32.701
		c-25.071,8.318-43.213,31.972-43.213,59.799c0,2.485,2.015,4.5,4.5,4.5h117c0.007,0,0.015,0,0.02,0c2.485,0,4.5-2.015,4.5-4.5
		C167.174,166.086,167.168,165.938,167.153,165.793z M75.155,73.736c0-16.267,13.233-29.5,29.5-29.5s29.5,13.233,29.5,29.5
		s-13.233,29.5-29.5,29.5S75.155,90.002,75.155,73.736z M50.341,161.736c2.295-27.678,25.555-49.5,53.814-49.5
		s51.52,21.822,53.814,49.5H50.341z"/>
</g>
</svg>
