<?xml version="1.0" encoding="utf-8"?>
<!-- Generator: Adobe Illustrator 17.0.0, SVG Export Plug-In . SVG Version: 6.00 Build 0)  -->
<!DOCTYPE svg PUBLIC "-//W3C//DTD SVG 1.1//EN" "http://www.w3.org/Graphics/SVG/1.1/DTD/svg11.dtd">
<svg version="1.1" id="Layer_1" xmlns="http://www.w3.org/2000/svg" xmlns:xlink="http://www.w3.org/1999/xlink" x="0px" y="0px"
	 width="207.3px" height="207.3px" viewBox="0 0 207.3 207.3" enable-background="new 0 0 207.3 207.3" xml:space="preserve">
<g>
	<path fill="#231F20" d="M70.215,61.553c0.581,0,1.161-0.224,1.602-0.67l2.543-2.578c0.873-0.884,0.863-2.309-0.021-3.182
		c-0.885-0.873-2.309-0.864-3.182,0.021l-2.543,2.578c-0.873,0.884-0.863,2.309,0.021,3.182
		C69.073,61.337,69.643,61.553,70.215,61.553z"/>
	<path fill="#231F20" d="M88.234,73.797c0.581,0,1.161-0.224,1.602-0.67l2.543-2.578c0.873-0.884,0.863-2.309-0.021-3.182
		c-0.884-0.873-2.308-0.864-3.182,0.021l-2.543,2.578c-0.873,0.884-0.863,2.309,0.021,3.182
		C87.093,73.581,87.663,73.797,88.234,73.797z"/>
	<path fill="#231F20" d="M99.323,91.585c0.581,0,1.162-0.224,1.602-0.67l2.543-2.578c0.873-0.885,0.863-2.309-0.021-3.182
		c-0.884-0.872-2.31-0.862-3.182,0.022l-2.543,2.578c-0.873,0.885-0.863,2.309,0.021,3.182
		C98.181,91.37,98.753,91.585,99.323,91.585z"/>
	<path fill="#231F20" d="M180.751,129.504c-1.718-2.275-2.902-4.394-3.552-6.69l0.012-9.701c0.733-3.562,2.134-7.835,4.221-13.282
		c0.89-2.321-0.271-4.923-2.592-5.812c-0.341-0.131-0.688-0.204-1.035-0.249c-0.07-0.01-0.14-0.007-0.21-0.014
		c-0.198-0.016-0.395-0.034-0.59-0.024c-1.18,0.041-2.343,0.537-3.194,1.485l-24.151,26.927
		c-3.77-13.762-14.955-24.48-28.965-27.547c0.151-13.032-8.906-27.291-13.885-34.128c3.935-2.979,9.129-8.367,10.824-16.838
		c0.488-2.437-1.093-4.808-3.529-5.295c-2.434-0.485-4.808,1.093-5.295,3.53c-1.289,6.445-5.645,10.281-8.31,12.081
		c-19.673-13.972-34.966-18.54-45.477-13.559c-8.892,4.212-11.27,13.664-11.89,17.715c-2.851,2.841-9.996,10.506-15.376,20.904
		c-8.565,16.553-8.752,32.494-0.616,46.347l-2.153,2.153c-1.758,1.757-1.758,4.607,0,6.364c0.878,0.878,2.03,1.318,3.182,1.318
		s2.304-0.439,3.182-1.318l1.971-1.971c2.607,1.657,6.609,3.674,11.947,4.875c1.128,1.703,1.943,3.361,2.442,5.122l-0.012,9.701
		c-0.733,3.562-2.134,7.835-4.221,13.282c-0.89,2.321,0.271,4.923,2.592,5.812c0.53,0.203,1.074,0.299,1.609,0.299
		c0.014,0,0.029-0.003,0.043-0.003c0.008,0,0.017,0.002,0.025,0.002c0.052,0,0.103-0.014,0.154-0.016
		c0.184-0.009,0.366-0.025,0.545-0.056c0.18-0.028,0.354-0.071,0.53-0.121c0.019-0.006,0.037-0.012,0.056-0.018
		c0.768-0.229,1.491-0.644,2.065-1.285l24.148-26.924c4.481,16.376,19.46,28.449,37.208,28.449
		c17.744,0,32.719-12.067,37.204-28.437l24.136,26.912c0.057,0.064,0.127,0.108,0.187,0.168c0.14,0.14,0.283,0.276,0.442,0.397
		c0.107,0.082,0.219,0.149,0.331,0.22c0.142,0.09,0.285,0.176,0.439,0.25c0.137,0.066,0.276,0.119,0.418,0.17
		c0.09,0.033,0.17,0.08,0.263,0.107c0.078,0.023,0.156,0.033,0.235,0.051c0.074,0.017,0.147,0.035,0.221,0.048
		c0.273,0.051,0.546,0.085,0.817,0.085c0.258,0,0.513-0.026,0.763-0.069c0.079-0.014,0.155-0.04,0.233-0.057
		c0.169-0.039,0.336-0.08,0.498-0.137c0.098-0.034,0.191-0.08,0.287-0.121c0.142-0.062,0.281-0.126,0.415-0.201
		c0.091-0.051,0.18-0.108,0.268-0.167c0.138-0.091,0.27-0.189,0.398-0.295c0.045-0.037,0.095-0.064,0.139-0.103
		c0.029-0.026,0.048-0.057,0.076-0.083c0.158-0.149,0.303-0.31,0.439-0.482c0.038-0.048,0.083-0.093,0.119-0.142
		c0.159-0.218,0.3-0.451,0.419-0.701c0.031-0.065,0.049-0.133,0.077-0.198c0.065-0.155,0.134-0.308,0.183-0.473
		C182.271,165.011,189.127,140.576,180.751,129.504z M58.877,48.521c9.97-4.719,28.046,6.633,38.239,14.077
		c4.654,5.65,14.362,19.947,14.599,31.124c-5.391,0.102-10.514,1.315-15.15,3.424c-16.51-24.91-36.214-35.994-44.129-39.676
		C53.174,54.592,54.901,50.405,58.877,48.521z M57.177,149.24c0.707-7.051-0.931-12.963-5.838-19.46
		c-3.134-4.143-2.643-13.817-1.152-22.118l22.14,24.686L57.177,149.24z M51.114,95.217c-0.066-0.074-0.145-0.127-0.214-0.195
		c-0.123-0.121-0.245-0.242-0.382-0.348c-0.114-0.089-0.236-0.161-0.356-0.237c-0.126-0.08-0.248-0.161-0.383-0.229
		c-0.15-0.075-0.306-0.131-0.463-0.189c-0.095-0.035-0.182-0.085-0.281-0.114c-0.028-0.008-0.056-0.008-0.084-0.016
		c-0.159-0.043-0.321-0.065-0.483-0.091c-0.134-0.021-0.268-0.051-0.401-0.061c-0.138-0.009-0.275,0.003-0.413,0.006
		c-0.153,0.004-0.307-0.001-0.458,0.019c-0.136,0.017-0.269,0.057-0.403,0.086c-0.146,0.033-0.293,0.057-0.435,0.103
		c-0.136,0.045-0.265,0.112-0.398,0.17c-0.134,0.059-0.271,0.111-0.398,0.182c-0.114,0.064-0.22,0.148-0.329,0.223
		c-0.137,0.094-0.275,0.184-0.402,0.293c-0.022,0.019-0.048,0.032-0.071,0.052c-0.077,0.069-0.134,0.152-0.206,0.225
		c-0.116,0.119-0.233,0.236-0.336,0.368c-0.091,0.117-0.165,0.242-0.244,0.366c-0.078,0.123-0.158,0.243-0.224,0.375
		c-0.076,0.151-0.131,0.307-0.189,0.464c-0.035,0.096-0.085,0.182-0.115,0.281c-0.619,2.105-4.774,16.914-2.934,28.712
		c-2.252-1.115-3.673-2.209-4.233-2.679c-7.927-11.665-8.142-24.998-0.637-39.635c4.222-8.233,9.848-14.699,12.801-17.798
		c6.628,3.088,24.977,13.207,40.405,36.261c-6.503,5.059-11.355,12.154-13.596,20.321L51.114,95.217z M112.455,162.02
		c-16.312,0-29.583-13.304-29.583-29.657c0-6.541,2.128-12.591,5.719-17.5l41.38,41.38
		C125.064,159.87,119.006,162.02,112.455,162.02z M142.038,132.365c0,6.54-2.128,12.589-5.719,17.498l-41.38-41.38
		c4.907-3.627,10.965-5.777,17.516-5.777c16.312,0,29.582,13.303,29.583,29.655C142.038,132.362,142.038,132.363,142.038,132.365z
		 M174.723,157.049l-22.14-24.687l15.151-16.892c-0.707,7.051,0.931,12.963,5.838,19.461
		C176.705,139.074,176.215,148.749,174.723,157.049z"/>
</g>
</svg>
