<?xml version="1.0" encoding="utf-8"?>
<!-- Generator: Adobe Illustrator 17.0.0, SVG Export Plug-In . SVG Version: 6.00 Build 0)  -->
<!DOCTYPE svg PUBLIC "-//W3C//DTD SVG 1.1//EN" "http://www.w3.org/Graphics/SVG/1.1/DTD/svg11.dtd">
<svg version="1.1" id="Layer_1" xmlns="http://www.w3.org/2000/svg" xmlns:xlink="http://www.w3.org/1999/xlink" x="0px" y="0px"
	 width="207.3px" height="207.3px" viewBox="0 0 207.3 207.3" enable-background="new 0 0 207.3 207.3" xml:space="preserve">
<g>
	<path fill="#231F20" d="M103.393,86.403c-5.247,0-9.5,4.253-9.5,9.5c0,4.47,3.091,8.209,7.25,9.221v24.401
		c0,1.242,1.008,2.25,2.25,2.25s2.25-1.008,2.25-2.25v-24.401c4.159-1.012,7.25-4.751,7.25-9.221
		C112.893,90.656,108.64,86.403,103.393,86.403z"/>
	<path fill="#231F20" d="M90.132,161.092h26.88c1.242,0,2.25-1.008,2.25-2.25s-1.008-2.25-2.25-2.25h-26.88
		c-1.242,0-2.25,1.008-2.25,2.25S88.89,161.092,90.132,161.092z"/>
	<path fill="#231F20" d="M103.655,31.946c-26.985,0-48.94,21.955-48.94,48.94c0,11.045,3.785,21.874,10.658,30.491
		c0.144,0.18,0.299,0.351,0.465,0.51c7.735,7.422,19.922,22.382,20.326,31.482H77.8c-2.485,0-4.5,2.015-4.5,4.5v21.944
		c0,2.485,2.015,4.5,4.5,4.5h51.479c2.485,0,4.5-2.015,4.5-4.5V147.87c0-2.485-2.015-4.5-4.5-4.5h-8.105
		c0.4-9.077,12.591-24.051,20.326-31.486c0.285-0.273,0.533-0.572,0.743-0.893c6.68-8.553,10.353-19.224,10.353-30.104
		C152.595,53.901,130.641,31.946,103.655,31.946z M124.779,165.314H82.3V152.37h42.479V165.314z M133.921,104.726
		c-3.636,3.546-22.796,22.976-23.163,38.644H96.579c-0.375-15.826-19.917-35.488-23.268-38.742
		c-5.354-6.828-8.183-15.029-8.183-23.741c0-21.243,17.283-38.526,38.526-38.526s38.525,17.283,38.525,38.526
		C142.181,89.64,139.325,97.878,133.921,104.726z"/>
</g>
</svg>
