<?xml version="1.0" encoding="utf-8"?>
<!-- Generator: Adobe Illustrator 17.0.0, SVG Export Plug-In . SVG Version: 6.00 Build 0)  -->
<!DOCTYPE svg PUBLIC "-//W3C//DTD SVG 1.1//EN" "http://www.w3.org/Graphics/SVG/1.1/DTD/svg11.dtd">
<svg version="1.1" id="Layer_1" xmlns="http://www.w3.org/2000/svg" xmlns:xlink="http://www.w3.org/1999/xlink" x="0px" y="0px"
	 width="207.3px" height="207.3px" viewBox="0 0 207.3 207.3" enable-background="new 0 0 207.3 207.3" xml:space="preserve">
<path fill="#231F20" d="M185.537,122.492c-0.881-5.513-3.803-10.986-8.229-15.413c-5.399-5.397-12.247-8.494-18.791-8.5
	c-0.283-0.056-0.574-0.088-0.872-0.088h-39.153c0.489-0.429,0.971-0.87,1.438-1.337c4.053-4.052,6.73-9.07,7.539-14.13
	c0.88-5.512-0.594-10.652-4.045-14.104c-2.771-2.771-6.668-4.296-10.971-4.296c-6.018,0-12.309,2.839-17.262,7.791
	c-4.052,4.053-6.729,9.072-7.537,14.13c-0.714,4.466,0.143,8.67,2.319,11.947H25.998c-2.485,0-4.5,2.015-4.5,4.5s2.015,4.5,4.5,4.5
	h21.313c-1.258,2.872-1.664,6.234-1.103,9.751c0.808,5.06,3.485,10.078,7.538,14.129c4.951,4.952,11.242,7.792,17.26,7.792
	c0,0,0,0,0,0c4.304,0,8.201-1.526,10.971-4.297c3.452-3.451,4.926-8.591,4.045-14.104c-0.753-4.711-3.142-9.377-6.738-13.271h64.395
	c-1.497,3.185-1.994,6.969-1.36,10.938c0.881,5.514,3.804,10.987,8.229,15.411c5.403,5.404,12.259,8.503,18.809,8.504
	c0.001,0,0.001,0,0.001,0c4.712,0,8.802-1.6,11.827-4.625C184.904,134.001,186.49,128.452,185.537,122.492z M176.65,123.913
	c0.211,1.323,0.337,3.48-0.493,5.43l-20.406-21.373c0.975-0.301,1.945-0.391,2.747-0.391c4.12,0,8.772,2.193,12.446,5.865
	C173.994,116.495,176.074,120.31,176.65,123.913z M118.582,81.604c-0.504,3.155-2.332,6.503-5.016,9.186
	c-3.227,3.228-7.3,5.155-10.896,5.155c-0.449,0-0.962-0.038-1.494-0.132l17.5-16.709C118.759,80.058,118.686,80.951,118.582,81.604z
	 M96.541,87.964c0.504-3.155,2.332-6.503,5.014-9.186c3.229-3.228,7.302-5.155,10.898-5.155c1.196,0,2.824,0.233,4.136,1.253
	l-19.282,18.41C96.226,91.481,96.334,89.259,96.541,87.964z M76.655,126.989l-17.914-18.763c0.876-0.292,1.759-0.384,2.483-0.384
	c3.596,0,7.669,1.927,10.897,5.154c2.683,2.683,4.51,6.032,5.014,9.187C77.324,123.355,77.439,125.292,76.655,126.989z
	 M71.006,130.164c-3.595,0-7.668-1.927-10.896-5.155c-2.683-2.682-4.51-6.03-5.015-9.186c-0.177-1.107-0.28-2.893,0.365-4.517
	l17.729,18.569C72.414,130.093,71.648,130.164,71.006,130.164z M169.359,133.343c-4.12,0-8.772-2.194-12.447-5.868
	c-3.05-3.049-5.129-6.864-5.705-10.466c-0.243-1.523-0.368-4.149,0.945-6.292l20.881,21.87
	C171.764,133.179,170.418,133.343,169.359,133.343L169.359,133.343z"/>
</svg>
