<?xml version="1.0" encoding="utf-8"?>
<!-- Generator: Adobe Illustrator 17.0.0, SVG Export Plug-In . SVG Version: 6.00 Build 0)  -->
<!DOCTYPE svg PUBLIC "-//W3C//DTD SVG 1.1//EN" "http://www.w3.org/Graphics/SVG/1.1/DTD/svg11.dtd">
<svg version="1.1" id="Layer_1" xmlns="http://www.w3.org/2000/svg" xmlns:xlink="http://www.w3.org/1999/xlink" x="0px" y="0px"
	 width="207.3px" height="207.3px" viewBox="0 0 207.3 207.3" enable-background="new 0 0 207.3 207.3" xml:space="preserve">
<g>
	<path fill="#231F20" d="M198.539,91.539l-24.896-44.794c-1.208-2.172-3.948-2.955-6.12-1.747l-20.417,11.348
		c-2.172,1.208-2.954,3.947-1.747,6.119l1.424,2.563l-2.34,1.357c-5.511-1.32-21.704-4.498-33.709,0.24
		c-0.689-0.664-1.348-1.303-1.957-1.901c-8.443-8.284-20.635-4.501-28.704-1.998c-1.438,0.446-2.796,0.868-3.89,1.142
		c-3.982,0.994-21.889-0.19-35.376-1.498v-4.527c0-2.485-2.015-4.5-4.5-4.5H12.706c-2.485,0-4.5,2.015-4.5,4.5v52.248
		c0,2.485,2.015,4.5,4.5,4.5h23.601c2.485,0,4.5-2.015,4.5-4.5v-3.96h0.289c4.146,5.953,8.924,7.57,12.365,7.827
		c0.313,0.024,0.625,0.031,0.935,0.034c0.004,2.185,0.613,4.393,1.891,6.356c1.649,2.533,4.121,4.209,6.837,4.925
		c-0.019,2.225,0.588,4.479,1.891,6.48c1.88,2.888,4.829,4.656,7.991,5.159c0.075,2.051,0.675,4.108,1.874,5.95
		c1.911,2.934,4.923,4.717,8.143,5.186c0.133,1.925,0.737,3.842,1.862,5.571c1.709,2.625,4.337,4.427,7.401,5.074
		c0.812,0.172,1.628,0.257,2.44,0.257c2.195,0,4.352-0.627,6.282-1.845l0.976,1.73c0.03,0.053,0.061,0.105,0.093,0.157
		c1.649,2.663,4.236,4.524,7.285,5.24c0.898,0.212,1.805,0.316,2.705,0.316c2.155,0,4.273-0.599,6.15-1.762
		c2.259-1.399,3.933-3.478,4.828-5.936c0.432,0.048,0.866,0.081,1.303,0.081c2.105,0,4.236-0.566,6.153-1.754
		c2.343-1.451,3.989-3.601,4.851-6.013c0.47,0.057,0.94,0.089,1.409,0.089c2.155,0,4.273-0.599,6.15-1.762
		c2.286-1.416,3.975-3.525,4.862-6.021c0.463,0.055,0.929,0.087,1.397,0.087c2.105,0,4.236-0.566,6.153-1.754
		c5.477-3.392,7.186-10.593,3.831-16.082l-1.905-3.273c3.016-3.474,3.944-7.548,4.189-10.317l7.976-4.282l0.904,1.521
		c0.839,1.413,2.334,2.202,3.872,2.202c0.74,0,1.49-0.184,2.183-0.567l20.417-11.348c1.043-0.58,1.812-1.551,2.141-2.698
		C199.259,93.813,199.118,92.583,198.539,91.539z M47.496,99.413c-0.798-1.411-2.295-2.283-3.916-2.283h-7.125
		c-0.025,0-0.049,0.007-0.074,0.008c-0.025,0-0.049-0.008-0.074-0.008c-2.485,0-4.5,2.015-4.5,4.5v3.96H17.206V62.341h14.601v4.109
		c0,2.35,1.808,4.258,4.106,4.46c0.024,0.003,0.045,0.012,0.069,0.014c5.759,0.609,34.865,3.551,42.385,1.672
		c1.337-0.334,2.812-0.792,4.373-1.276c8.276-2.567,15.476-4.354,19.734-0.174c6.463,6.341,17.896,16.847,21.787,20.411
		c-0.024,1.558-0.364,3.315-1.04,3.705c-0.042,0.027-4.215,2.181-19.846-10.222c-1.688-1.338-4.089-1.295-5.726,0.108
		c-11.024,9.449-20.927,12.452-23.167,10.451c-0.925-0.827-2.151-1.232-3.392-1.123c-1.236,0.108-2.376,0.726-3.145,1.7
		c-1.903,2.412-8.567,9.211-13.827,8.803C53.221,104.913,50.49,104.704,47.496,99.413z M175.824,99.015l-0.872-1.466
		c-0.062-0.104-0.142-0.188-0.21-0.285c-0.089-0.126-0.174-0.256-0.273-0.37c-0.1-0.114-0.211-0.212-0.32-0.315
		c-0.105-0.099-0.206-0.201-0.319-0.288c-0.122-0.094-0.252-0.17-0.382-0.251c-0.117-0.072-0.23-0.148-0.352-0.209
		c-0.137-0.068-0.279-0.118-0.421-0.172c-0.128-0.048-0.253-0.101-0.384-0.138c-0.143-0.04-0.29-0.062-0.436-0.087
		c-0.138-0.024-0.274-0.053-0.415-0.064c-0.145-0.012-0.29-0.005-0.437-0.002c-0.145,0.002-0.288,0-0.433,0.017
		c-0.146,0.017-0.288,0.053-0.433,0.084c-0.144,0.031-0.287,0.057-0.429,0.103c-0.143,0.046-0.281,0.113-0.421,0.174
		c-0.11,0.048-0.223,0.079-0.331,0.137l-14.101,7.569c-1.622,0.871-2.551,2.642-2.344,4.471c0.006,0.052,0.472,5.231-3.537,7.936
		c-2.06,1.39-2.604,4.187-1.214,6.247c0.052,0.077,0.112,0.145,0.168,0.218l3.476,5.973c0.021,0.035,0.042,0.07,0.063,0.105
		c0.791,1.277,0.396,2.961-0.881,3.751c-1.275,0.791-2.959,0.396-3.748-0.875l-6.353-10.291c-1.305-2.116-4.078-2.772-6.192-1.466
		c-0.533,0.329-0.973,0.753-1.313,1.234c-1.092,1.438-1.26,3.451-0.255,5.079l6.33,10.256c0.383,0.618,0.502,1.349,0.336,2.057
		s-0.599,1.31-1.219,1.693c-0.618,0.384-1.35,0.502-2.057,0.336c-0.708-0.166-1.31-0.599-1.689-1.212l-6.233-10.099
		c-0.988-1.603-2.819-2.363-4.567-2.072c-0.617,0.079-1.227,0.278-1.79,0.626c-2.115,1.305-2.771,4.078-1.466,6.192l6.274,10.165
		c0.79,1.277,0.395,2.96-0.882,3.75c-1.275,0.791-2.959,0.396-3.748-0.875l-6.196-10.04c-1.306-2.116-4.079-2.772-6.192-1.466
		c-2.115,1.305-2.771,4.077-1.466,6.192l6.2,10.047c0.383,0.618,0.502,1.349,0.336,2.057s-0.599,1.31-1.219,1.693
		c-0.619,0.384-1.35,0.502-2.057,0.336c-0.686-0.161-1.271-0.571-1.655-1.158l-4.779-8.471c-1.222-2.163-3.965-2.928-6.131-1.707
		c-1.806,1.02-2.618,3.098-2.133,5.017l-0.526,0.353c-0.609,0.398-1.338,0.534-2.05,0.383s-1.323-0.569-1.72-1.18
		c-0.397-0.609-0.533-1.338-0.383-2.05c0.124-0.582,0.431-1.088,0.83-1.447l0.692-0.422c0.171-0.104,0.316-0.232,0.468-0.354
		l0.786-0.49c2.109-1.314,2.754-4.09,1.439-6.199c-1.313-2.109-4.09-2.753-6.199-1.439l-1.746,1.089
		c-0.166,0.108-0.318,0.231-0.477,0.346l-1.534,0.935c-0.038,0.022-0.075,0.046-0.112,0.07c-1.259,0.82-2.95,0.461-3.77-0.797
		c-0.81-1.243-0.471-2.909,0.752-3.74l2.354-1.429c2.124-1.289,2.802-4.057,1.512-6.182c-1.29-2.124-4.059-2.802-6.182-1.512
		l-0.823,0.5c-0.378,0.108-0.751,0.249-1.104,0.463l-2.488,1.514c-0.039,0.024-0.078,0.049-0.116,0.073
		c-1.26,0.823-2.95,0.462-3.77-0.796c-0.662-1.018-0.546-2.31,0.184-3.204l2.017-1.222c0.349-0.211,0.643-0.474,0.912-0.756
		c2.068-1.307,2.722-4.03,1.448-6.13c-1.287-2.125-4.055-2.804-6.181-1.515l-2.371,1.438c-0.041,0.024-0.082,0.05-0.122,0.076
		c-0.405,0.264-0.781,0.554-1.142,0.858c-1.217,0.595-2.714,0.212-3.471-0.95c-0.82-1.259-0.463-2.95,0.796-3.77
		c0.174-0.113,0.34-0.238,0.497-0.375l3.452-3c0.162-0.141,0.295-0.302,0.432-0.459c1.352-1.117,2.527-2.236,3.471-3.211
		c9.216,3.042,22.041-5.56,28.17-10.314c12.5,9.39,21.146,12.165,27.068,8.752c6.689-3.858,5.523-13.205,5.368-14.258
		c-0.151-1.027-0.653-1.971-1.42-2.67c-0.1-0.091-6.689-6.101-13.374-12.353c9.232-1.786,21.026,0.462,25.589,1.749
		c1.173,0.333,2.431,0.177,3.486-0.437l7.422-4.304c1.542-0.894,2.339-2.565,2.214-4.231c0.09-0.884-0.074-1.802-0.538-2.637
		l-1.053-1.895l12.551-6.976l20.524,36.928L175.824,99.015z"/>
	<path fill="#231F20" d="M36.455,73.888c-1.242,0-2.25,1.008-2.25,2.25v17.186c0,1.242,1.008,2.25,2.25,2.25s2.25-1.008,2.25-2.25
		V76.138C38.705,74.896,37.697,73.888,36.455,73.888z"/>
	<path fill="#231F20" d="M156.396,74.162c-1.091,0.595-1.494,1.961-0.9,3.053l8.532,15.673c0.408,0.749,1.181,1.174,1.979,1.174
		c0.363,0,0.732-0.088,1.074-0.273c1.091-0.595,1.494-1.961,0.9-3.053l-8.532-15.673C158.854,73.971,157.488,73.567,156.396,74.162z
		"/>
</g>
</svg>
