<?xml version="1.0" encoding="utf-8"?>
<!-- Generator: Adobe Illustrator 17.0.0, SVG Export Plug-In . SVG Version: 6.00 Build 0)  -->
<!DOCTYPE svg PUBLIC "-//W3C//DTD SVG 1.1//EN" "http://www.w3.org/Graphics/SVG/1.1/DTD/svg11.dtd">
<svg version="1.1" id="Layer_1" xmlns="http://www.w3.org/2000/svg" xmlns:xlink="http://www.w3.org/1999/xlink" x="0px" y="0px"
	 width="207.3px" height="207.3px" viewBox="0 0 207.3 207.3" enable-background="new 0 0 207.3 207.3" xml:space="preserve">
<path fill="#231F20" d="M157.268,50.031c-8.003-8.003-19.062-12.234-31.979-12.234c-20.035,0-42.369,10.373-59.743,27.748
	c-14.113,14.113-23.589,31.256-26.682,48.271c-3.202,17.619,0.764,33.051,11.168,43.454c8.003,8.003,19.062,12.234,31.979,12.234
	c20.035,0,42.37-10.373,59.744-27.748c14.113-14.113,23.589-31.256,26.681-48.271C171.638,75.867,167.672,60.435,157.268,50.031z
	 M47.719,115.424c2.768-15.23,11.358-30.685,24.189-43.516c15.725-15.724,35.68-25.112,53.38-25.112
	c10.479,0,19.337,3.319,25.616,9.599c1.203,1.203,2.282,2.508,3.263,3.888c-4.931,1.2-12.538,3.389-20.409,6.945
	c-17.72,8.006-28.045,19.157-29.859,32.244c-3.969,28.459-9.835,35.407-46.79,52.109c-0.24-0.224-0.483-0.444-0.715-0.677
	C48.142,142.652,45.06,130.051,47.719,115.424z M159.581,91.876c-2.768,15.23-11.358,30.684-24.189,43.515
	c-15.725,15.724-35.68,25.112-53.381,25.112c-8.096,0-15.217-1.989-20.936-5.785c36.644-16.761,43.138-24.917,47.282-54.625
	c3.231-23.298,36.712-33.06,48.253-35.748C160.421,71.903,161.492,81.36,159.581,91.876z"/>
</svg>
