<?xml version="1.0" encoding="utf-8"?>
<!-- Generator: Adobe Illustrator 17.0.0, SVG Export Plug-In . SVG Version: 6.00 Build 0)  -->
<!DOCTYPE svg PUBLIC "-//W3C//DTD SVG 1.1//EN" "http://www.w3.org/Graphics/SVG/1.1/DTD/svg11.dtd">
<svg version="1.1" id="Layer_1" xmlns="http://www.w3.org/2000/svg" xmlns:xlink="http://www.w3.org/1999/xlink" x="0px" y="0px"
	 width="207.3px" height="207.3px" viewBox="0 0 207.3 207.3" enable-background="new 0 0 207.3 207.3" xml:space="preserve">
<g>
	<path fill="#231F20" d="M106.595,38.538c-1.689-1.458-4.191-1.458-5.881,0c-2.14,1.847-52.421,45.581-52.421,75.389
		c0,30.526,24.835,55.361,55.361,55.361c30.527,0,55.362-24.835,55.362-55.361C159.017,84.119,108.735,40.385,106.595,38.538z
		 M103.655,160.288c-25.563,0-46.361-20.797-46.361-46.361c0-19.945,31.107-52.187,46.362-65.975
		c15.256,13.782,46.361,46.012,46.361,65.975C150.017,139.49,129.219,160.288,103.655,160.288z"/>
	<path fill="#231F20" d="M121.991,115.584l-16.066,16.066l0.074-53.8c0.002-1.243-1.004-2.251-2.247-2.253c-0.001,0-0.002,0-0.003,0
		c-1.241,0-2.248,1.005-2.25,2.247l-0.034,24.775L87.247,88.401c-0.879-0.879-2.303-0.879-3.182,0c-0.879,0.878-0.879,2.303,0,3.182
		l17.391,17.391l-0.051,37.466c-0.002,1.243,1.004,2.251,2.247,2.253c0.001,0,0.002,0,0.003,0c1.241,0,2.248-1.005,2.25-2.247
		l0.012-8.69c0.28-0.11,0.542-0.275,0.768-0.502l18.487-18.488c0.879-0.878,0.879-2.303,0-3.182
		C124.293,114.705,122.87,114.705,121.991,115.584z"/>
</g>
</svg>
