<?xml version="1.0" encoding="utf-8"?>
<!-- Generator: Adobe Illustrator 17.0.0, SVG Export Plug-In . SVG Version: 6.00 Build 0)  -->
<!DOCTYPE svg PUBLIC "-//W3C//DTD SVG 1.1//EN" "http://www.w3.org/Graphics/SVG/1.1/DTD/svg11.dtd">
<svg version="1.1" id="Layer_1" xmlns="http://www.w3.org/2000/svg" xmlns:xlink="http://www.w3.org/1999/xlink" x="0px" y="0px"
	 width="207.3px" height="207.3px" viewBox="0 0 207.3 207.3" enable-background="new 0 0 207.3 207.3" xml:space="preserve">
<g>
	<path fill="#231F20" d="M103.65,35.124c-37.761,0-68.482,30.721-68.482,68.482s30.722,68.482,68.482,68.482
		s68.482-30.721,68.482-68.482S141.411,35.124,103.65,35.124z M103.65,164.587c-33.625,0-60.98-27.356-60.98-60.981
		s27.355-60.981,60.98-60.981s60.98,27.356,60.98,60.981S137.275,164.587,103.65,164.587z"/>
	<path fill="#231F20" d="M103.65,65.692c-20.939,0-37.914,16.975-37.914,37.914c0,20.939,16.975,37.914,37.914,37.914
		c20.939,0,37.914-16.975,37.914-37.914C141.564,82.667,124.589,65.692,103.65,65.692z M133.329,105.625
		c-0.168,0.038-0.336,0.057-0.501,0.057c-1.027,0-1.955-0.708-2.192-1.751c-3.065-13.483-13.822-23.858-27.403-26.432
		c-1.221-0.231-2.023-1.409-1.792-2.629c0.232-1.222,1.418-2.023,2.63-1.792c15.341,2.907,27.491,14.626,30.954,29.855
		C135.299,104.144,134.541,105.35,133.329,105.625z"/>
</g>
</svg>
