<?xml version="1.0" encoding="utf-8"?>
<!-- Generator: Adobe Illustrator 17.0.0, SVG Export Plug-In . SVG Version: 6.00 Build 0)  -->
<!DOCTYPE svg PUBLIC "-//W3C//DTD SVG 1.1//EN" "http://www.w3.org/Graphics/SVG/1.1/DTD/svg11.dtd">
<svg version="1.1" id="Layer_1" xmlns="http://www.w3.org/2000/svg" xmlns:xlink="http://www.w3.org/1999/xlink" x="0px" y="0px"
	 width="207.3px" height="207.3px" viewBox="0 0 207.3 207.3" enable-background="new 0 0 207.3 207.3" xml:space="preserve">
<g>
	<path fill="#231F20" d="M182.061,98.874l-15.359-15.877l3.093-21.874c0.501-3.539-1.896-6.839-5.417-7.456l-21.758-3.816
		l-10.354-19.515c-1.675-3.158-5.551-4.421-8.766-2.848l-19.846,9.701l-19.846-9.701c-3.213-1.572-7.091-0.312-8.766,2.848
		L64.686,49.85l-21.758,3.816c-3.521,0.617-5.918,3.917-5.417,7.456l3.093,21.874L25.244,98.874c-2.486,2.569-2.486,6.647,0,9.217
		l15.359,15.878l-3.093,21.873c-0.501,3.539,1.896,6.838,5.417,7.456l21.759,3.817l10.354,19.514
		c1.676,3.159,5.556,4.417,8.766,2.849l19.847-9.701l19.847,9.701c0.936,0.457,1.928,0.674,2.906,0.674
		c2.378,0,4.672-1.284,5.859-3.522l10.354-19.514l21.759-3.817c3.521-0.618,5.918-3.917,5.417-7.456l-3.093-21.873l15.359-15.878
		C184.547,105.521,184.547,101.443,182.061,98.874z M154.921,117.08c-1.421,1.47-2.085,3.513-1.799,5.537l2.649,18.731l-18.635,3.27
		c-2.013,0.354-3.751,1.616-4.709,3.422l-8.867,16.712l-16.997-8.309c-0.918-0.448-1.915-0.673-2.911-0.673
		s-1.992,0.225-2.911,0.673l-16.997,8.309l-8.867-16.712c-0.958-1.806-2.696-3.068-4.709-3.422l-18.635-3.27l2.649-18.731
		c0.287-2.024-0.377-4.067-1.799-5.537L39.23,103.482l13.154-13.597c1.421-1.469,2.085-3.513,1.799-5.536l-2.649-18.733
		l18.634-3.269c2.014-0.354,3.752-1.616,4.71-3.422l8.867-16.713l16.997,8.309c1.837,0.898,3.985,0.898,5.822,0l16.997-8.309
		l8.867,16.713c0.958,1.806,2.696,3.068,4.71,3.422l18.634,3.269l-2.649,18.733c-0.287,2.023,0.377,4.067,1.799,5.536l13.154,13.597
		L154.921,117.08z"/>
	<path fill="#231F20" d="M113.923,69.703c-10.21,0-21.492,5.186-30.178,13.872C76.562,90.757,71.8,99.54,70.336,108.304
		c-1.51,9.043,0.644,17.009,6.065,22.43c4.271,4.271,10.143,6.528,16.981,6.528c10.21,0,21.492-5.186,30.178-13.872
		c7.183-7.183,11.945-15.965,13.409-24.729c1.51-9.043-0.644-17.009-6.065-22.43C126.634,71.961,120.761,69.703,113.923,69.703z
		 M74.775,109.046c1.311-7.848,5.626-15.764,12.152-22.289c7.861-7.86,17.953-12.554,26.996-12.554
		c4.409,0,8.285,1.125,11.402,3.249c-8.314,2.431-22.118,8.296-23.842,20.73c-1.944,13.939-5.51,18.346-23.946,26.871
		C74.716,120.847,73.733,115.287,74.775,109.046z M132.531,97.92c-1.311,7.848-5.626,15.764-12.152,22.289
		c-7.861,7.86-17.953,12.554-26.996,12.554c-5.039,0-9.388-1.46-12.693-4.218c17.606-8.288,23.041-13.904,25.25-29.743
		c1.545-11.145,16.609-16.07,23.244-17.712C132.454,85.38,133.642,91.264,132.531,97.92z"/>
</g>
</svg>
