<?xml version="1.0" encoding="utf-8"?>
<!-- Generator: Adobe Illustrator 17.0.0, SVG Export Plug-In . SVG Version: 6.00 Build 0)  -->
<!DOCTYPE svg PUBLIC "-//W3C//DTD SVG 1.1//EN" "http://www.w3.org/Graphics/SVG/1.1/DTD/svg11.dtd">
<svg version="1.1" id="Layer_1" xmlns="http://www.w3.org/2000/svg" xmlns:xlink="http://www.w3.org/1999/xlink" x="0px" y="0px"
	 width="207.3px" height="207.3px" viewBox="0 0 207.3 207.3" enable-background="new 0 0 207.3 207.3" xml:space="preserve">
<path fill="#231F20" d="M154.241,90.44c-0.523-1.581-1.441-3.778-2.739-6.186V53.319c0-8.81-7.168-15.977-15.978-15.977
	c-2.951,0-5.708,0.819-8.083,2.22c-2.15-6.288-8.103-10.828-15.109-10.828c-7.376,0-13.584,5.032-15.414,11.838
	c-2.304-1.291-4.955-2.034-7.779-2.034c-7.332,0-13.511,4.971-15.382,11.716c-2.255-1.219-4.834-1.913-7.572-1.913
	c-8.81,0-15.977,7.168-15.977,15.978V100.9c0,0.969,0.101,1.913,0.267,2.835c-0.006,0.092-0.028,0.18-0.028,0.274
	c0,3.019,0.108,29.786,3.86,40.042c3.449,9.427,8.399,30.812,8.449,31.027c0.48,2.081,2.332,3.489,4.381,3.489
	c0.335,0,0.676-0.038,1.016-0.116c2.422-0.559,3.932-2.975,3.373-5.396c-0.208-0.899-5.126-22.146-8.767-32.096
	c-1.803-4.93-2.671-16.186-3.052-25.466c1.982,0.883,4.17,1.385,6.477,1.385c7.332,0,13.511-4.972,15.383-11.716
	c2.255,1.219,4.833,1.913,7.571,1.913c8.03,0,14.676-5.96,15.793-13.686c2.819,0.649,6.014,1.173,9.625,1.571v14.441
	c-5.698,2.874-17.548,10.846-20.62,28.461c-0.428,2.448,1.211,4.779,3.659,5.206c2.451,0.433,4.779-1.211,5.206-3.659
	c3.057-17.522,17.113-22.609,17.687-22.809c1.833-0.615,3.068-2.333,3.068-4.267V90.863c0-2.348-1.805-4.301-4.146-4.486
	c-19.867-1.569-21.477-5.99-21.49-6.034c-0.226-0.72,0.659-2.213,1.761-3.426c5.274,0.042,20.803,0.143,29.855-0.097
	c7.983-0.203,14.353,10.99,16.165,16.461c0.062,0.188,6.125,18.996-1.391,41.54c-8.293,24.878-7.899,38.104-7.879,38.654
	c0.092,2.425,2.086,4.321,4.493,4.321c0.052,0,0.104-0.001,0.156-0.002c2.478-0.085,4.42-2.165,4.345-4.643
	c-0.003-0.121-0.276-12.386,7.424-35.485C161.359,112.14,154.529,91.292,154.241,90.44z M73.162,100.9
	c0,3.848-3.13,6.978-6.978,6.978c-3.847,0-6.977-3.13-6.977-6.978V64.318c0-3.848,3.13-6.978,6.977-6.978
	c3.848,0,6.978,3.13,6.978,6.978v26.779V100.9z M96.115,91.097c0,3.847-3.13,6.977-6.977,6.977s-6.977-3.13-6.977-6.977V64.318
	v-9.804c0-3.847,3.13-6.977,6.977-6.977s6.977,3.13,6.977,6.977v13.779c-0.359,0.157-0.704,0.347-1.014,0.595
	c-0.831,0.665-8.053,6.712-5.785,14.094c0.92,2.994,3.164,5.419,6.799,7.333V91.097z M105.354,67.954V44.711
	c0-3.848,3.13-6.978,6.978-6.978c3.847,0,6.977,3.13,6.977,6.978v23.247C114.429,67.985,109.342,67.973,105.354,67.954z
	 M129.772,67.817c-0.156,0-0.314,0.002-0.472,0.007c-0.244,0.006-0.499,0.012-0.753,0.018V53.319c0-3.847,3.13-6.977,6.977-6.977
	c3.848,0,6.978,3.13,6.978,6.977v19.5C138.974,69.881,134.72,67.817,129.772,67.817z"/>
</svg>
