<?xml version="1.0" encoding="utf-8"?>
<!-- Generator: Adobe Illustrator 17.0.0, SVG Export Plug-In . SVG Version: 6.00 Build 0)  -->
<!DOCTYPE svg PUBLIC "-//W3C//DTD SVG 1.1//EN" "http://www.w3.org/Graphics/SVG/1.1/DTD/svg11.dtd">
<svg version="1.1" id="Layer_1" xmlns="http://www.w3.org/2000/svg" xmlns:xlink="http://www.w3.org/1999/xlink" x="0px" y="0px"
	 width="207.3px" height="207.3px" viewBox="0 0 207.3 207.3" enable-background="new 0 0 207.3 207.3" xml:space="preserve">
<g>
	<path fill="#231F20" d="M107.417,39.094c-1.689-1.458-4.191-1.458-5.881,0c-2.14,1.847-52.422,45.581-52.422,75.389
		c0,30.526,24.835,55.361,55.362,55.361c30.526,0,55.361-24.835,55.361-55.361C159.838,84.675,109.557,40.941,107.417,39.094z
		 M104.476,160.844c-25.564,0-46.362-20.798-46.362-46.361c0-19.946,31.108-52.187,46.363-65.975
		c15.256,13.782,46.36,46.012,46.36,65.975C150.838,140.046,130.04,160.844,104.476,160.844z"/>
	<path fill="#231F20" d="M143.144,112.437c-1.242,0-2.25,1.007-2.25,2.25c0,14.548-8.566,27.828-21.824,33.831
		c-1.133,0.513-1.635,1.846-1.122,2.978c0.376,0.831,1.194,1.322,2.051,1.322c0.311,0,0.626-0.064,0.927-0.201
		c14.864-6.73,24.469-21.619,24.469-37.93C145.394,113.444,144.387,112.437,143.144,112.437z"/>
</g>
</svg>
