<?xml version="1.0" encoding="utf-8"?>
<!-- Generator: Adobe Illustrator 17.0.0, SVG Export Plug-In . SVG Version: 6.00 Build 0)  -->
<!DOCTYPE svg PUBLIC "-//W3C//DTD SVG 1.1//EN" "http://www.w3.org/Graphics/SVG/1.1/DTD/svg11.dtd">
<svg version="1.1" id="Layer_1" xmlns="http://www.w3.org/2000/svg" xmlns:xlink="http://www.w3.org/1999/xlink" x="0px" y="0px"
	 width="207.3px" height="207.3px" viewBox="0 0 207.3 207.3" enable-background="new 0 0 207.3 207.3" xml:space="preserve">
<g>
	<path d="M181.421,41.722h-77.449c-2.502,0-4.529,2.027-4.529,4.529v12.666c0,2.502,2.027,4.529,4.529,4.529
		s4.529-2.027,4.529-4.529v-8.137h68.391v39.383h-12.21c-1.203,0-2.356,0.479-3.206,1.33s-1.326,2.006-1.323,3.209l0.008,3.783
		l-6.921-6.981c-0.851-0.858-2.009-1.341-3.217-1.341H141.3c-2.502,0-4.529,2.027-4.529,4.529s2.027,4.529,4.529,4.529h6.835
		l13.361,13.479c0.867,0.876,2.032,1.342,3.218,1.342c0.582,0,1.169-0.112,1.728-0.344c1.698-0.701,2.805-2.358,2.801-4.196
		l-0.021-10.281h12.2c2.502,0,4.529-2.027,4.529-4.529V46.252C185.95,43.75,183.923,41.722,181.421,41.722z"/>
	<path d="M129.901,65.722H26.636c-2.502,0-4.529,2.027-4.529,4.529v64.589c0,2.502,2.027,4.529,4.529,4.529h21.346v21.346
		c0,1.835,1.106,3.488,2.803,4.188c0.559,0.23,1.145,0.343,1.726,0.343c1.184,0,2.348-0.465,3.215-1.338l24.373-24.538h49.804
		c2.502,0,4.529-2.027,4.529-4.529V70.252C134.431,67.75,132.403,65.722,129.901,65.722z M125.372,130.311H78.213
		c-1.207,0-2.363,0.481-3.214,1.337l-17.959,18.08V134.84c0-2.502-2.027-4.529-4.529-4.529H31.165v-55.53h94.207V130.311z"/>
</g>
</svg>
