<?xml version="1.0" encoding="utf-8"?>
<!-- Generator: Adobe Illustrator 17.0.0, SVG Export Plug-In . SVG Version: 6.00 Build 0)  -->
<!DOCTYPE svg PUBLIC "-//W3C//DTD SVG 1.1//EN" "http://www.w3.org/Graphics/SVG/1.1/DTD/svg11.dtd">
<svg version="1.1" id="Layer_1" xmlns="http://www.w3.org/2000/svg" xmlns:xlink="http://www.w3.org/1999/xlink" x="0px" y="0px"
	 width="207.3px" height="207.3px" viewBox="0 0 207.3 207.3" enable-background="new 0 0 207.3 207.3" xml:space="preserve">
<path fill="#221F1F" d="M173.376,85.02c-2.586-36.435-33.035-65.294-70.117-65.294c-37.148,0-67.64,28.961-70.131,65.489
	c-7.583,2.617-12.777,9.991-12.777,19.184v8.549c0,11.527,8.154,20.221,18.967,20.221s18.967-8.693,18.967-20.221v-8.549
	c0-9.469-5.506-17.014-13.462-19.412c2.573-29.991,27.791-53.615,58.437-53.615c30.704,0,55.958,23.714,58.451,53.785
	c-7.668,2.569-12.929,9.986-12.929,19.241v8.549c0,9.763,5.859,17.471,14.218,19.608c-2.03,13.1-11.404,23.802-23.768,27.76
	c-2.369-3.4-6.302-5.629-10.76-5.629c-7.242,0-13.113,5.871-13.113,13.113c0,7.242,5.871,13.113,13.113,13.113
	c5.786,0,10.687-3.752,12.428-8.952c18.237-4.995,32.027-20.856,33.93-40.165c7.095-2.872,11.885-10.022,11.885-18.849v-8.549
	C186.713,94.979,181.266,87.458,173.376,85.02z M46.637,112.948c0,4.268-2.264,8.574-7.32,8.574s-7.32-4.307-7.32-8.574v-8.549
	c0-4.077,2.071-8.178,6.661-8.54c0.036,0.001,0.072,0.005,0.108,0.005c0.215,0,0.427-0.014,0.637-0.036
	c4.995,0.05,7.234,4.327,7.234,8.571V112.948z M175.067,112.948c0,3.859-1.859,7.739-5.953,8.448
	c-0.348,0.007-0.69,0.041-1.02,0.107c-0.117,0.005-0.227,0.019-0.347,0.019c-5.057,0-7.32-4.307-7.32-8.574v-8.549
	c0-4.155,2.153-8.334,6.93-8.554c0.131,0.009,0.262,0.02,0.395,0.02c0.132,0,0.261-0.011,0.39-0.02
	c4.774,0.223,6.925,4.4,6.925,8.554V112.948z"/>
</svg>
