<?xml version="1.0" encoding="utf-8"?>
<!-- Generator: Adobe Illustrator 17.0.0, SVG Export Plug-In . SVG Version: 6.00 Build 0)  -->
<!DOCTYPE svg PUBLIC "-//W3C//DTD SVG 1.1//EN" "http://www.w3.org/Graphics/SVG/1.1/DTD/svg11.dtd">
<svg version="1.1" id="Layer_1" xmlns="http://www.w3.org/2000/svg" xmlns:xlink="http://www.w3.org/1999/xlink" x="0px" y="0px"
	 width="207.3px" height="207.3px" viewBox="0 0 207.3 207.3" enable-background="new 0 0 207.3 207.3" xml:space="preserve">
<g>
	<path d="M137.231,101.378L83.857,74.494c-0.694-0.351-1.526-0.316-2.191,0.094c-0.665,0.41-1.07,1.135-1.07,1.916v53.419
		c0,0.779,0.402,1.502,1.064,1.913c0.362,0.224,0.773,0.337,1.186,0.337c0.342,0,0.686-0.078,1.002-0.235l53.374-26.535
		c0.763-0.379,1.246-1.157,1.248-2.009S137.993,101.761,137.231,101.378z M85.095,126.291V80.156l46.097,23.218L85.095,126.291z"/>
	<path d="M103.795,34.867c-37.835,0-68.616,30.781-68.616,68.617c0,37.835,30.781,68.616,68.616,68.616s68.616-30.781,68.616-68.616
		C172.411,65.648,141.63,34.867,103.795,34.867z M103.795,163.1c-32.872,0-59.616-26.744-59.616-59.616s26.744-59.617,59.616-59.617
		s59.616,26.744,59.616,59.617S136.667,163.1,103.795,163.1z"/>
</g>
</svg>
