<?xml version="1.0" encoding="utf-8"?>
<!-- Generator: Adobe Illustrator 17.0.0, SVG Export Plug-In . SVG Version: 6.00 Build 0)  -->
<!DOCTYPE svg PUBLIC "-//W3C//DTD SVG 1.1//EN" "http://www.w3.org/Graphics/SVG/1.1/DTD/svg11.dtd">
<svg version="1.1" id="Layer_1" xmlns="http://www.w3.org/2000/svg" xmlns:xlink="http://www.w3.org/1999/xlink" x="0px" y="0px"
	 width="207.3px" height="207.3px" viewBox="0 0 207.3 207.3" enable-background="new 0 0 207.3 207.3" xml:space="preserve">
<g>
	<path fill="#231F20" d="M145.571,56.9c0-7.228-5.88-13.107-13.108-13.107c-1.478,0-2.895,0.257-4.222,0.711
		c-0.812-6.453-6.323-11.465-12.993-11.465c-1.622,0-3.169,0.31-4.604,0.851c-1.547-5.516-6.608-9.577-12.611-9.577
		s-11.064,4.061-12.611,9.577c-1.435-0.541-2.982-0.851-4.604-0.851c-7.228,0-13.108,5.88-13.108,13.107v13.648
		c-6.82-3.636-14.783-1.884-15.768-1.645c-2.017,0.49-3.437,2.297-3.437,4.373v53.519c0,21.742,12.499,31.8,18.205,35.259v24.899
		c0,2.485,2.015,4.5,4.5,4.5s4.5-2.015,4.5-4.5v-27.59c0-1.788-1.087-3.419-2.726-4.135c-0.632-0.276-15.479-7.017-15.479-28.434
		V66.527c2.318-0.006,5.129,0.367,7.086,1.92c2.069,1.642,3.118,4.591,3.118,8.765v10.112v1.369c0,2.485,2.015,4.5,4.5,4.5
		s4.5-2.015,4.5-4.5v-1.369V77.211V46.146c0-2.265,1.843-4.107,4.108-4.107c2.265,0,4.107,1.843,4.107,4.107v20.619v8.87
		c0,2.485,2.015,4.5,4.5,4.5s4.5-2.015,4.5-4.5v-8.87V46.146V37.42c0-2.265,1.843-4.108,4.108-4.108s4.108,1.843,4.108,4.108v8.726
		v20.619v8.87c0,2.485,2.015,4.5,4.5,4.5s4.5-2.015,4.5-4.5v-8.87V46.146c0-2.265,1.843-4.107,4.107-4.107
		c2.265,0,4.108,1.843,4.108,4.107V56.9v9.865v8.87c0,2.485,2.015,4.5,4.5,4.5s4.5-2.015,4.5-4.5v-8.87V56.9
		c0-2.265,1.843-4.107,4.107-4.107c2.265,0,4.108,1.843,4.108,4.107v38.896c-0.013,0.139-0.042,0.274-0.042,0.417v19.451
		c0.012,9.459-1.791,24.602-5.835,28.652c-0.626,0.627-0.989,0.627-1.163,0.627c-2.485,0-4.5,2.015-4.5,4.5v26.257
		c0,2.485,2.015,4.5,4.5,4.5c2.485,0,4.5-2.015,4.5-4.5v-22.816c1.084-0.538,2.102-1.278,3.031-2.208
		c8.09-8.101,8.473-30.596,8.467-35.017v-13.1c0.013-0.139,0.042-0.274,0.042-0.417V56.9z"/>
	<path fill="#231F20" d="M101.171,91.707c-1.869-1.869-4.424-2.857-7.39-2.857c-4.382,0-9.235,2.236-12.98,5.981
		c-6.587,6.586-7.959,15.534-3.124,20.369c1.869,1.869,4.424,2.857,7.39,2.857c4.383,0,9.235-2.236,12.98-5.981
		C104.634,105.49,106.006,96.543,101.171,91.707z M83.983,98.013c2.92-2.919,6.583-4.663,9.798-4.663c0.75,0,1.69,0.104,2.598,0.479
		c-3.479,1.277-8.032,3.826-8.685,8.536c-0.627,4.497-1.003,5.685-7.543,8.719C78.223,107.862,79.781,102.216,83.983,98.013z
		 M94.866,108.895c-2.861,2.861-6.434,4.581-9.602,4.65c4.564-2.545,6.106-4.951,6.888-10.56c0.394-2.843,4.468-4.611,7.222-5.408
		C100.05,100.851,98.382,105.38,94.866,108.895z"/>
	<path fill="#231F20" d="M121.772,118.775c-3.745-3.745-8.597-5.981-12.98-5.981c-1.969,0-3.751,0.445-5.278,1.285
		c-0.045,0.026-0.091,0.049-0.134,0.077c-0.72,0.412-1.386,0.904-1.978,1.495c-4.835,4.835-3.463,13.783,3.124,20.37
		c3.745,3.745,8.598,5.981,12.98,5.981c2.965,0,5.521-0.988,7.39-2.857C129.731,134.31,128.358,125.362,121.772,118.775z
		 M118.59,121.957c2.936,2.937,4.583,6.58,4.654,9.609c-2.546-4.569-4.952-6.112-10.564-6.895c-2.845-0.394-4.613-4.471-5.41-7.226
		c0.544-0.113,1.068-0.15,1.522-0.15C112.007,117.294,115.67,119.037,118.59,121.957z M107.707,132.839
		c-3.916-3.916-5.535-9.086-4.178-12.38c1.279,3.477,3.827,8.016,8.53,8.668c4.499,0.628,5.686,1.003,8.723,7.553
		c-1.101,0.657-2.337,0.822-3.276,0.822C114.29,137.502,110.627,135.759,107.707,132.839z"/>
</g>
</svg>
