<?xml version="1.0" encoding="utf-8"?>
<!-- Generator: Adobe Illustrator 17.0.0, SVG Export Plug-In . SVG Version: 6.00 Build 0)  -->
<!DOCTYPE svg PUBLIC "-//W3C//DTD SVG 1.1//EN" "http://www.w3.org/Graphics/SVG/1.1/DTD/svg11.dtd">
<svg version="1.1" id="Layer_1" xmlns="http://www.w3.org/2000/svg" xmlns:xlink="http://www.w3.org/1999/xlink" x="0px" y="0px"
	 width="207.3px" height="207.3px" viewBox="0 0 207.3 207.3" enable-background="new 0 0 207.3 207.3" xml:space="preserve">
<g>
	<path d="M103.65,35.034c-37.836,0-68.617,30.781-68.617,68.616s30.781,68.616,68.617,68.616c37.835,0,68.616-30.781,68.616-68.616
		S141.485,35.034,103.65,35.034z M103.65,163.266c-32.873,0-59.617-26.744-59.617-59.616s26.744-59.616,59.617-59.616
		c32.872,0,59.616,26.744,59.616,59.616S136.522,163.266,103.65,163.266z"/>
	<path d="M108.144,101.786v-34.44c0-2.485-2.015-4.5-4.5-4.5s-4.5,2.015-4.5,4.5v36.305c0,1.193,0.474,2.338,1.318,3.182
		l14.661,14.661c0.878,0.879,2.03,1.318,3.182,1.318s2.304-0.439,3.182-1.318c1.758-1.757,1.758-4.606,0-6.363L108.144,101.786z"/>
</g>
</svg>
