<?xml version="1.0" encoding="utf-8"?>
<!-- Generator: Adobe Illustrator 17.0.0, SVG Export Plug-In . SVG Version: 6.00 Build 0)  -->
<!DOCTYPE svg PUBLIC "-//W3C//DTD SVG 1.1//EN" "http://www.w3.org/Graphics/SVG/1.1/DTD/svg11.dtd">
<svg version="1.1" id="Layer_1" xmlns="http://www.w3.org/2000/svg" xmlns:xlink="http://www.w3.org/1999/xlink" x="0px" y="0px"
	 width="207.3px" height="207.3px" viewBox="0 0 207.3 207.3" enable-background="new 0 0 207.3 207.3" xml:space="preserve">
<g>
	<path d="M169.567,51.91h-27.345v-8.438c0-2.485-2.015-4.5-4.5-4.5s-4.5,2.015-4.5,4.5v8.438h-60.17v-8.438
		c0-2.485-2.015-4.5-4.5-4.5s-4.5,2.015-4.5,4.5v8.438H37.744c-2.485,0-4.5,2.015-4.5,4.5v25.812v81.606c0,2.485,2.015,4.5,4.5,4.5
		h131.823c2.485,0,4.5-2.015,4.5-4.5V82.221V56.41C174.067,53.924,172.052,51.91,169.567,51.91z M42.244,60.91h21.809v8.438
		c0,2.485,2.015,4.5,4.5,4.5s4.5-2.015,4.5-4.5V60.91h60.17v8.438c0,2.485,2.015,4.5,4.5,4.5s4.5-2.015,4.5-4.5V60.91h22.845v16.812
		H42.244V60.91z M165.067,159.328H42.244V86.721h122.823V159.328z"/>
	<path d="M52.913,137.245c-1.242,0-2.25,1.008-2.25,2.25s1.008,2.25,2.25,2.25h13.39v9.266c0,1.242,1.008,2.25,2.25,2.25
		s2.25-1.008,2.25-2.25v-9.266h29.662v9.266c0,1.242,1.008,2.25,2.25,2.25s2.25-1.008,2.25-2.25v-9.266h30.508v9.382
		c0,1.242,1.008,2.25,2.25,2.25s2.25-1.008,2.25-2.25v-9.382h14.439c1.242,0,2.25-1.008,2.25-2.25s-1.008-2.25-2.25-2.25h-14.439
		v-23.304h14.439c1.242,0,2.25-1.008,2.25-2.25s-1.008-2.25-2.25-2.25h-14.439V95.693c0-1.242-1.008-2.25-2.25-2.25
		s-2.25,1.008-2.25,2.25v13.748h-30.508V95.577c0-1.242-1.008-2.25-2.25-2.25s-2.25,1.008-2.25,2.25v13.864H70.802V95.577
		c0-1.242-1.008-2.25-2.25-2.25s-2.25,1.008-2.25,2.25v13.864h-13.39c-1.242,0-2.25,1.008-2.25,2.25s1.008,2.25,2.25,2.25h13.39
		v23.304H52.913z M135.472,113.941v23.304h-30.508v-23.304H135.472z M70.802,113.941h29.662v23.304H70.802V113.941z"/>
</g>
</svg>
