<?xml version="1.0" encoding="utf-8"?>
<!-- Generator: Adobe Illustrator 17.0.0, SVG Export Plug-In . SVG Version: 6.00 Build 0)  -->
<!DOCTYPE svg PUBLIC "-//W3C//DTD SVG 1.1//EN" "http://www.w3.org/Graphics/SVG/1.1/DTD/svg11.dtd">
<svg version="1.1" id="Layer_1" xmlns="http://www.w3.org/2000/svg" xmlns:xlink="http://www.w3.org/1999/xlink" x="0px" y="0px"
	 width="207.3px" height="207.3px" viewBox="0 0 207.3 207.3" enable-background="new 0 0 207.3 207.3" xml:space="preserve">
<path fill="#231F20" d="M159.576,86.809c0-31.166-25.355-56.522-56.522-56.522c-31.166,0-56.521,25.356-56.521,56.522
	c0,25.783,17.36,47.574,41.001,54.337v40.129c0,2.287,1.854,4.141,4.14,4.141h23.992c2.287,0,4.14-1.854,4.14-4.141v-40.479
	C142.819,133.641,159.576,112.145,159.576,86.809z M111.526,143.331v33.804H95.814v-33.804H111.526z M105.17,134.996l0.037-20.614
	c0.534-0.029,1.06-0.239,1.468-0.647l18.696-18.696c0.879-0.879,0.879-2.303,0-3.182c-0.878-0.879-2.304-0.879-3.182,0
	l-16.972,16.972l0.087-48.049c0.002-1.242-1.003-2.252-2.246-2.254c-0.001,0-0.002,0-0.004,0c-1.241,0-2.248,1.005-2.25,2.246
	l-0.037,20.265L85.325,65.592c-0.878-0.879-2.304-0.879-3.182,0c-0.879,0.879-0.879,2.303,0,3.182l18.613,18.614l-0.086,47.601
	c-25.497-1.247-45.857-22.38-45.857-48.18c0-26.601,21.641-48.241,48.241-48.241c26.601,0,48.242,21.641,48.242,48.241
	C151.296,112.699,130.792,133.884,105.17,134.996z"/>
</svg>
