<?xml version="1.0" encoding="utf-8"?>
<!-- Generator: Adobe Illustrator 17.0.0, SVG Export Plug-In . SVG Version: 6.00 Build 0)  -->
<!DOCTYPE svg PUBLIC "-//W3C//DTD SVG 1.1//EN" "http://www.w3.org/Graphics/SVG/1.1/DTD/svg11.dtd">
<svg version="1.1" id="Layer_1" xmlns="http://www.w3.org/2000/svg" xmlns:xlink="http://www.w3.org/1999/xlink" x="0px" y="0px"
	 width="207.3px" height="207.3px" viewBox="0 0 207.3 207.3" enable-background="new 0 0 207.3 207.3" xml:space="preserve">
<path fill="#231F20" d="M166.648,166.457c-0.19-27.392-17.958-50.67-42.557-59.135c11.117-6.759,18.559-18.988,18.559-32.922
	c0-21.229-17.271-38.5-38.5-38.5s-38.5,17.271-38.5,38.5c0,13.788,7.29,25.9,18.213,32.701
	C58.792,115.419,40.65,139.073,40.65,166.9c0,2.485,2.015,4.5,4.5,4.5h117c0.008,0.001,0.015,0,0.02,0c2.485,0,4.5-2.015,4.5-4.5
	C166.67,166.75,166.663,166.603,166.648,166.457z M74.65,74.4c0-16.267,13.233-29.5,29.5-29.5s29.5,13.233,29.5,29.5
	s-13.233,29.5-29.5,29.5S74.65,90.666,74.65,74.4z M49.836,162.4c0.203-2.448,0.578-4.846,1.098-7.191
	c0.046,0.003,0.089,0.014,0.135,0.014h91.42c1.242,0,2.25-1.007,2.25-2.25s-1.008-2.25-2.25-2.25H52.139
	c6.892-21.894,27.371-37.822,51.511-37.822c28.26,0,51.52,21.822,53.814,49.5H49.836z"/>
</svg>
