<?xml version="1.0" encoding="utf-8"?>
<!-- Generator: Adobe Illustrator 17.0.0, SVG Export Plug-In . SVG Version: 6.00 Build 0)  -->
<!DOCTYPE svg PUBLIC "-//W3C//DTD SVG 1.1//EN" "http://www.w3.org/Graphics/SVG/1.1/DTD/svg11.dtd">
<svg version="1.1" id="Layer_1" xmlns="http://www.w3.org/2000/svg" xmlns:xlink="http://www.w3.org/1999/xlink" x="0px" y="0px"
	 width="207.3px" height="207.3px" viewBox="0 0 207.3 207.3" enable-background="new 0 0 207.3 207.3" xml:space="preserve">
<g>
	<path fill="#231F20" d="M171.086,117.257c-4.397-4.356-9.638-6.563-15.58-6.563c-0.052,0-0.104,0-0.156,0
		c-11.249,0.073-16.845,9.408-21.782,17.644c-5.865,9.782-10.048,15.722-18.665,15.722c-7.316,0-10.058-12.158-13.132-29.333
		c-3.247-18.138-6.926-38.693-23.748-38.693c-0.016,0-0.033,0-0.05,0c-14.943,0.036-29.014,15.46-41.819,45.843
		c-9.109,21.613-14.248,42.839-14.463,43.732c-0.58,2.417,0.909,4.845,3.325,5.426c0.354,0.084,0.707,0.125,1.055,0.125
		c2.032,0,3.876-1.387,4.372-3.45c0.051-0.212,5.207-21.49,14.043-42.43c10.941-25.928,22.842-40.221,33.509-40.247
		c0.008,0,0.014,0,0.021,0c8.628,0,11.617,12.966,14.896,31.279c3.233,18.066,6.577,36.748,21.991,36.748
		c14.337,0,21.017-11.142,26.384-20.094c4.918-8.204,8.231-13.233,14.122-13.271c0.031,0,0.062,0,0.095,0
		c3.532,0,6.558,1.293,9.243,3.952c9.752,9.651,11.975,34.333,12.008,43.026c0.008,2.481,2.021,4.487,4.5,4.487
		c0.004,0,0.009,0,0.014,0c2.485-0.007,4.493-2.028,4.486-4.513C185.75,165.217,185.485,131.521,171.086,117.257z"/>
	<path fill="#231F20" d="M133.757,51.173c1.242,0,2.25-1.007,2.25-2.25v-8.615c0-1.243-1.008-2.25-2.25-2.25s-2.25,1.007-2.25,2.25
		v8.615C131.507,50.166,132.514,51.173,133.757,51.173z"/>
	<path fill="#231F20" d="M131.507,91.886v8.615c0,1.243,1.008,2.25,2.25,2.25s2.25-1.007,2.25-2.25v-8.615
		c0-1.243-1.008-2.25-2.25-2.25S131.507,90.644,131.507,91.886z"/>
	<path fill="#231F20" d="M152.988,70.405c0,1.243,1.008,2.25,2.25,2.25h8.615c1.242,0,2.25-1.007,2.25-2.25s-1.008-2.25-2.25-2.25
		h-8.615C153.996,68.155,152.988,69.162,152.988,70.405z"/>
	<path fill="#231F20" d="M103.66,72.655h8.615c1.242,0,2.25-1.007,2.25-2.25s-1.008-2.25-2.25-2.25h-8.615
		c-1.242,0-2.25,1.007-2.25,2.25S102.418,72.655,103.66,72.655z"/>
	<path fill="#231F20" d="M153.447,93.277c0.439,0.439,1.015,0.659,1.591,0.659s1.151-0.22,1.591-0.659
		c0.879-0.878,0.879-2.303,0-3.182l-6.091-6.091c-0.879-0.879-2.303-0.879-3.182,0c-0.879,0.878-0.879,2.303,0,3.182L153.447,93.277
		z"/>
	<path fill="#231F20" d="M116.976,56.806c0.439,0.439,1.015,0.659,1.591,0.659s1.151-0.22,1.591-0.659
		c0.879-0.878,0.879-2.303,0-3.182l-6.092-6.091c-0.879-0.879-2.303-0.879-3.182,0c-0.879,0.878-0.879,2.303,0,3.182L116.976,56.806
		z"/>
	<path fill="#231F20" d="M116.976,84.004l-6.092,6.091c-0.879,0.878-0.879,2.303,0,3.182c0.439,0.439,1.015,0.659,1.591,0.659
		s1.151-0.22,1.591-0.659l6.092-6.091c0.879-0.878,0.879-2.303,0-3.182C119.279,83.125,117.855,83.125,116.976,84.004z"/>
	<path fill="#231F20" d="M148.947,57.465c0.576,0,1.151-0.22,1.591-0.659l6.091-6.091c0.879-0.878,0.879-2.303,0-3.182
		c-0.879-0.879-2.303-0.879-3.182,0l-6.091,6.091c-0.879,0.878-0.879,2.303,0,3.182C147.796,57.245,148.371,57.465,148.947,57.465z"
		/>
	<path fill="#231F20" d="M133.757,82.783c6.825,0,12.378-5.553,12.378-12.378s-5.553-12.378-12.378-12.378
		c-6.825,0-12.378,5.553-12.378,12.378S126.931,82.783,133.757,82.783z M133.757,62.527c4.344,0,7.878,3.534,7.878,7.878
		s-3.534,7.878-7.878,7.878s-7.878-3.534-7.878-7.878S129.413,62.527,133.757,62.527z"/>
</g>
</svg>
