<?xml version="1.0" encoding="utf-8"?>
<!-- Generator: Adobe Illustrator 17.0.0, SVG Export Plug-In . SVG Version: 6.00 Build 0)  -->
<!DOCTYPE svg PUBLIC "-//W3C//DTD SVG 1.1//EN" "http://www.w3.org/Graphics/SVG/1.1/DTD/svg11.dtd">
<svg version="1.1" id="Layer_1" xmlns="http://www.w3.org/2000/svg" xmlns:xlink="http://www.w3.org/1999/xlink" x="0px" y="0px"
	 width="207.3px" height="207.3px" viewBox="0 0 207.3 207.3" enable-background="new 0 0 207.3 207.3" xml:space="preserve">
<g>
	<path fill="#231F20" d="M85.09,112.001c1.703,0,3.207,1.077,3.908,2.43l3.057-1.503c-1.178-2.104-3.307-4.084-6.965-4.084
		c-5.036,0-8.92,3.482-8.92,8.644c0,5.137,3.884,8.645,8.92,8.645c3.658,0,5.787-2.03,6.965-4.109l-3.057-1.479
		c-0.701,1.354-2.205,2.431-3.908,2.431c-3.057,0-5.262-2.33-5.262-5.487C79.828,114.331,82.033,112.001,85.09,112.001z"/>
	<path fill="#231F20" d="M102.132,108.843c-5.062,0-8.744,3.607-8.744,8.644s3.683,8.645,8.744,8.645
		c5.036,0,8.719-3.608,8.719-8.645S107.168,108.843,102.132,108.843z M102.132,122.974c-3.107,0-5.087-2.38-5.087-5.487
		c0-3.132,1.979-5.486,5.087-5.486c3.081,0,5.061,2.354,5.061,5.486C107.192,120.594,105.213,122.974,102.132,122.974z"/>
	<path fill="#231F20" d="M131.778,114.205c0-3.332-2.807-5.337-6.39-5.337c-2.33,0-4.811,0.853-6.438,2.731l2.029,2.355
		c1.127-1.178,2.581-1.93,4.484-1.93c1.378,0,2.706,0.702,2.706,2.18c0,2.055-2.004,3.759-8.844,8.819v2.807h12.577v-3.132h-6.814
		C129.423,119.542,131.778,117.061,131.778,114.205z"/>
	<path fill="#231F20" d="M161.478,91.958c-4.542-23.729-25.468-41.246-49.941-41.246c-12.815,0-25.058,4.783-34.471,13.469
		c-7.976,7.359-13.332,16.96-15.412,27.465c-2.377-0.542-4.816-0.815-7.296-0.815c-18.037,0-32.712,14.675-32.712,32.713
		s14.675,32.713,32.712,32.713h98.584c18.037,0,32.712-14.675,32.712-32.713C185.654,108.547,175.667,95.75,161.478,91.958z
		 M152.942,147.255H54.358c-13.075,0-23.712-10.638-23.712-23.713S41.283,99.83,54.358,99.83c3.206,0,6.316,0.629,9.243,1.868
		c1.325,0.561,2.842,0.455,4.077-0.289c1.234-0.743,2.038-2.033,2.161-3.469C71.684,76.503,90,59.711,111.537,59.711
		c21.033,0,38.882,15.717,41.518,36.559c0.251,1.979,1.772,3.556,3.74,3.877c11.507,1.878,19.859,11.717,19.859,23.396
		C176.654,136.618,166.017,147.255,152.942,147.255z"/>
</g>
</svg>
