<?xml version="1.0" encoding="utf-8"?>
<!-- Generator: Adobe Illustrator 17.0.0, SVG Export Plug-In . SVG Version: 6.00 Build 0)  -->
<!DOCTYPE svg PUBLIC "-//W3C//DTD SVG 1.1//EN" "http://www.w3.org/Graphics/SVG/1.1/DTD/svg11.dtd">
<svg version="1.1" id="Layer_1" xmlns="http://www.w3.org/2000/svg" xmlns:xlink="http://www.w3.org/1999/xlink" x="0px" y="0px"
	 width="207.3px" height="207.3px" viewBox="0 0 207.3 207.3" enable-background="new 0 0 207.3 207.3" xml:space="preserve">
<g>
	<path fill="#231F20" d="M169.821,179.826c-0.143-31.332-22.086-57.594-51.406-64.413c4.586-1.815,8.757-4.462,12.322-7.756
		c-2.225-0.023-4.546-0.093-6.964-0.173c-5.651,3.898-12.493,6.188-19.862,6.188c-19.337,0-35.069-15.732-35.069-35.069
		s15.732-35.069,35.069-35.069s35.068,15.732,35.068,35.069c0,5.769-1.126,10.372-3.604,15.177c1.966-0.071,3.683-0.468,5.188-0.765
		c2.032-4.759,2.916-8.918,2.916-14.412c0-21.818-17.75-39.569-39.568-39.569s-39.569,17.75-39.569,39.569
		c0,16.549,10.216,30.749,24.669,36.647c-29.768,6.58-52.11,33.164-52.11,64.882c0,1.243,1.008,2.25,2.25,2.25h128.421
		c0.007,0,0.015,0,0.02,0c1.243,0,2.25-1.007,2.25-2.25C169.841,180.028,169.834,179.926,169.821,179.826z M41.441,177.882
		c1.188-33.127,28.509-59.71,61.921-59.71s60.732,26.583,61.92,59.71H41.441z"/>
	<path fill="#231F20" d="M56.877,79.225c0.084-0.345,0.142-0.7,0.142-1.07c0-25.633,20.854-46.486,46.487-46.486
		s46.486,20.854,46.486,46.486c0,10.337-3.084,13.705-7.715,15.582c-6.143,2.491-16.28,2.493-29.174,2.483l-1.598,0
		c-2.485,0-4.5,2.015-4.5,4.5s2.015,4.5,4.5,4.5l1.596,0c0.507,0,1.009,0,1.508,0c13.136,0,23.562-0.108,31.049-3.143
		c9.097-3.688,13.334-11.289,13.334-23.923c0-30.595-24.891-55.486-55.486-55.486c-23.472,0-43.573,14.658-51.667,35.294
		c-2.59-2.331-5.98-3.711-9.797-3.711c-8.538,0-14.977,6.869-14.977,15.977v6.814c0,9.108,6.438,15.977,14.977,15.977
		C49.882,93.02,55.936,87.222,56.877,79.225z M36.066,77.042v-6.814c0-3.473,1.848-6.977,5.977-6.977s5.977,3.504,5.977,6.977v6.814
		c0,3.473-1.848,6.977-5.977,6.977S36.066,80.515,36.066,77.042z"/>
</g>
</svg>
