<?xml version="1.0" encoding="utf-8"?>
<!-- Generator: Adobe Illustrator 17.0.0, SVG Export Plug-In . SVG Version: 6.00 Build 0)  -->
<!DOCTYPE svg PUBLIC "-//W3C//DTD SVG 1.1//EN" "http://www.w3.org/Graphics/SVG/1.1/DTD/svg11.dtd">
<svg version="1.1" id="Layer_1" xmlns="http://www.w3.org/2000/svg" xmlns:xlink="http://www.w3.org/1999/xlink" x="0px" y="0px"
	 width="207.3px" height="207.3px" viewBox="0 0 207.3 207.3" enable-background="new 0 0 207.3 207.3" xml:space="preserve">
<path d="M181.317,47.317H25.983c-2.485,0-4.5,2.015-4.5,4.5v103.666c0,2.485,2.015,4.5,4.5,4.5h155.333c2.485,0,4.5-2.015,4.5-4.5
	V51.817C185.817,49.332,183.802,47.317,181.317,47.317z M30.483,58.491l54.14,45.078l-54.14,45.224V58.491z M34.88,150.983
	l53.259-44.487l14.072,11.716c0.417,0.347,0.928,0.521,1.439,0.521s1.022-0.174,1.439-0.521l14.364-11.96l53.037,44.731H34.88z
	 M103.65,113.556L34.904,56.317h137.491L103.65,113.556z M122.966,103.328l53.851-44.837v90.253L122.966,103.328z"/>
</svg>
