<?xml version="1.0" encoding="utf-8"?>
<!-- Generator: Adobe Illustrator 17.0.0, SVG Export Plug-In . SVG Version: 6.00 Build 0)  -->
<!DOCTYPE svg PUBLIC "-//W3C//DTD SVG 1.1//EN" "http://www.w3.org/Graphics/SVG/1.1/DTD/svg11.dtd">
<svg version="1.1" id="Layer_1" xmlns="http://www.w3.org/2000/svg" xmlns:xlink="http://www.w3.org/1999/xlink" x="0px" y="0px"
	 width="207.3px" height="207.3px" viewBox="0 0 207.3 207.3" enable-background="new 0 0 207.3 207.3" xml:space="preserve">
<g>
	<path fill="#231F20" d="M158.553,52.468c-0.252-2.049-1.866-3.664-3.916-3.917c-0.217-0.027-5.406-0.655-13.375-0.655
		c-17.278,0-49.312,3.047-69.717,23.452c-29.074,29.074-23.068,80.9-22.798,83.092c0.252,2.049,1.866,3.664,3.916,3.917
		c0.217,0.027,5.405,0.654,13.373,0.654c17.279,0,49.313-3.047,69.719-23.452C164.829,106.486,158.823,54.66,158.553,52.468z
		 M77.908,77.713c18.112-18.112,47.468-20.816,63.354-20.816c1.656,0,3.178,0.03,4.554,0.076L57.297,148.32
		C56.611,135.074,56.868,98.753,77.908,77.713z M129.392,129.195c-18.112,18.112-47.469,20.816-63.355,20.816
		c-1.457,0-2.81-0.023-4.053-0.06l88.049-90.864C150.698,72.708,150.222,108.365,129.392,129.195z"/>
	<path fill="#231F20" d="M72.585,114.472c0.436,0.412,0.991,0.616,1.547,0.616c0.596,0,1.191-0.236,1.634-0.703l31.498-33.273
		c0.854-0.902,0.815-2.327-0.087-3.181s-2.326-0.816-3.181,0.087l-31.498,33.273C71.644,112.194,71.683,113.618,72.585,114.472z"/>
	<path fill="#231F20" d="M138.566,88.443c-0.902-0.854-2.325-0.816-3.181,0.087l-31.499,33.273
		c-0.854,0.902-0.815,2.327,0.087,3.181c0.436,0.412,0.991,0.616,1.547,0.616c0.596,0,1.191-0.236,1.634-0.703l31.499-33.273
		C139.508,90.721,139.469,89.297,138.566,88.443z"/>
</g>
</svg>
