<?xml version="1.0" encoding="utf-8"?>
<!-- Generator: Adobe Illustrator 17.0.0, SVG Export Plug-In . SVG Version: 6.00 Build 0)  -->
<!DOCTYPE svg PUBLIC "-//W3C//DTD SVG 1.1//EN" "http://www.w3.org/Graphics/SVG/1.1/DTD/svg11.dtd">
<svg version="1.1" id="Layer_1" xmlns="http://www.w3.org/2000/svg" xmlns:xlink="http://www.w3.org/1999/xlink" x="0px" y="0px"
	 width="207.3px" height="207.3px" viewBox="0 0 207.3 207.3" enable-background="new 0 0 207.3 207.3" xml:space="preserve">
<g>
	<path fill="#231F20" d="M103.663,115.831c26.181,0,47.48-21.3,47.48-47.48s-21.3-47.48-47.48-47.48s-47.48,21.3-47.48,47.48
		S77.482,115.831,103.663,115.831z M103.663,106.215c-6.15,0-11.957-1.483-17.097-4.096l50.866-50.866
		c2.613,5.14,4.096,10.947,4.096,17.097C141.528,89.229,124.542,106.215,103.663,106.215z M134.903,46.985L82.297,99.591
		c-3.869-2.654-7.222-6.007-9.876-9.876l52.606-52.606C128.896,39.763,132.249,43.116,134.903,46.985z M103.663,30.485
		c6.15,0,11.956,1.483,17.096,4.096L69.893,85.446c-2.613-5.14-4.096-10.946-4.096-17.096
		C65.798,47.471,82.784,30.485,103.663,30.485z"/>
	<path fill="#231F20" d="M117.447,120.341c-5.082,1.53-10.354,2.307-15.672,2.307c-10.143,0-20.044-2.824-28.634-8.169
		c-0.306-0.19-0.688-0.213-1.016-0.062c-0.327,0.152-0.555,0.46-0.606,0.817l-8.266,57.663c-0.192,1.34,0.226,2.15,0.61,2.594
		c0.766,0.883,2.09,1.075,3.453,0.465l18.521-8.327c0.435-0.195,0.977-0.299,1.565-0.299c1.1,0,2.203,0.359,2.879,0.938
		l15.436,13.19c0.689,0.588,1.435,0.899,2.156,0.899c1.349,0,2.37-1.059,2.603-2.695l8.337-58.147
		c0.052-0.361-0.084-0.724-0.361-0.961C118.174,120.316,117.796,120.233,117.447,120.341z"/>
	<path fill="#231F20" d="M138.226,112.087c-0.075-0.352-0.322-0.642-0.658-0.771c-0.336-0.132-0.714-0.083-1.006,0.126
		c-3.476,2.479-7.234,4.543-11.173,6.134c-0.353,0.143-0.604,0.462-0.657,0.839l-4.527,31.573c-0.075,0.527,0.249,1.03,0.762,1.178
		c1.391,0.401,22.282,6.583,22.493,6.646c0.398,0.118,0.789,0.178,1.16,0.178c0,0,0,0,0.001,0c0.892,0,1.661-0.346,2.169-0.974
		c0.564-0.699,0.747-1.682,0.514-2.767L138.226,112.087z"/>
</g>
</svg>
