<?xml version="1.0" encoding="utf-8"?>
<!-- Generator: Adobe Illustrator 17.0.0, SVG Export Plug-In . SVG Version: 6.00 Build 0)  -->
<!DOCTYPE svg PUBLIC "-//W3C//DTD SVG 1.1//EN" "http://www.w3.org/Graphics/SVG/1.1/DTD/svg11.dtd">
<svg version="1.1" id="Layer_1" xmlns="http://www.w3.org/2000/svg" xmlns:xlink="http://www.w3.org/1999/xlink" x="0px" y="0px"
	 width="207.3px" height="207.3px" viewBox="0 0 207.3 207.3" enable-background="new 0 0 207.3 207.3" xml:space="preserve">
<path fill="#231F20" d="M77.845,144.712c-0.448,0-0.897-0.134-1.285-0.403c-0.818-0.569-1.164-1.609-0.85-2.556l10.353-31.158
	L63.415,92.469c-0.746-0.598-1.033-1.601-0.717-2.502s1.168-1.505,2.123-1.505h28.596l8.085-24.334
	c0.305-0.92,1.165-1.541,2.134-1.541h0.001c0.969,0,1.829,0.62,2.135,1.539l8.102,24.336h28.542c0.955,0,1.807,0.604,2.123,1.504
	c0.316,0.901,0.029,1.904-0.716,2.502l-22.589,18.104l10.379,31.18c0.315,0.946-0.03,1.987-0.849,2.557
	c-0.817,0.571-1.912,0.535-2.692-0.089l-24.426-19.551l-24.394,19.55C78.842,144.546,78.344,144.712,77.845,144.712z
	 M103.645,119.536c0.498,0,0.995,0.164,1.406,0.493l19.886,15.917l-8.468-25.438c-0.298-0.894-0.007-1.878,0.728-2.467
	l18.813-15.078h-23.759c-0.969,0-1.829-0.62-2.135-1.539l-6.478-19.456l-6.464,19.454c-0.305,0.92-1.165,1.541-2.135,1.541H71.233
	l18.864,15.099c0.735,0.589,1.026,1.572,0.729,2.466l-8.444,25.416l19.855-15.913C102.649,119.701,103.147,119.536,103.645,119.536z
	"/>
</svg>
