<?xml version="1.0" encoding="utf-8"?>
<!-- Generator: Adobe Illustrator 17.0.0, SVG Export Plug-In . SVG Version: 6.00 Build 0)  -->
<!DOCTYPE svg PUBLIC "-//W3C//DTD SVG 1.1//EN" "http://www.w3.org/Graphics/SVG/1.1/DTD/svg11.dtd">
<svg version="1.1" id="Layer_1" xmlns="http://www.w3.org/2000/svg" xmlns:xlink="http://www.w3.org/1999/xlink" x="0px" y="0px"
	 width="207.3px" height="207.3px" viewBox="0 0 207.3 207.3" enable-background="new 0 0 207.3 207.3" xml:space="preserve">
<path fill="#231F20" d="M116.514,69.094c6.55,0,13.406-3.1,18.809-8.504c4.426-4.425,7.348-9.898,8.229-15.413
	c0.951-5.96-0.635-11.509-4.351-15.224c-3.025-3.027-7.115-4.627-11.828-4.627c-6.549,0-13.404,3.1-18.81,8.504
	c-3.945,3.946-6.539,8.519-7.75,13.062c-0.524,0.736-0.839,1.63-0.839,2.601v39.151c-0.429-0.49-0.871-0.971-1.337-1.437
	c-4.951-4.952-11.242-7.792-17.262-7.792c-4.304,0-8.201,1.526-10.973,4.298c-6.935,6.937-5.399,19.338,3.494,28.234
	c4.952,4.951,11.244,7.79,17.261,7.79c3.284,0,6.326-0.894,8.816-2.546v59.949c0,2.485,2.015,4.5,4.5,4.5s4.5-2.015,4.5-4.5v-19.318
	c2.006,0.881,4.247,1.361,6.62,1.361c0.001,0,0.001,0,0.001,0c6.019,0,12.31-2.84,17.26-7.792c4.053-4.052,6.729-9.07,7.538-14.129
	c0.881-5.513-0.594-10.653-4.044-14.102c-2.771-2.772-6.668-4.3-10.973-4.3c-5.674,0-11.592,2.528-16.402,6.969V67.469
	C111.218,68.531,113.755,69.094,116.514,69.094z M134.664,43.758c-0.575,3.603-2.654,7.418-5.705,10.468
	c-3.673,3.674-8.325,5.868-12.444,5.868c-1.241,0-2.877-0.222-4.32-1.103l21.879-20.89
	C135.014,40.108,134.883,42.384,134.664,43.758z M114.927,40.194c3.675-3.674,8.327-5.868,12.445-5.868
	c0.998,0,2.254,0.139,3.457,0.651l-21.381,20.414C108.116,51.154,110.187,44.936,114.927,40.194z M92.273,93.572
	c2.683,2.682,4.51,6.03,5.015,9.186c0.129,0.812,0.218,1.991,0.006,3.203L80.581,88.455c0.278-0.024,0.547-0.039,0.794-0.039
	C84.971,88.416,89.045,90.343,92.273,93.572z M80.261,105.584c-4.914-4.915-6.584-11.599-3.897-15.03l18.41,19.283
	c-1.204,0.72-2.574,0.901-3.617,0.901C87.563,110.738,83.489,108.811,80.261,105.584z M131.507,135.843
	c-0.505,3.155-2.332,6.503-5.016,9.186c-3.228,3.228-7.301,5.155-10.896,5.155c-0.816,0-1.832-0.111-2.811-0.5l18.579-17.739
	C131.769,133.388,131.661,134.876,131.507,135.843z M114.479,133.017c3.229-3.229,7.303-5.156,10.897-5.156
	c0.893,0,2.027,0.136,3.091,0.626l-18.773,17.923C108.432,142.76,110.262,137.235,114.479,133.017z"/>
</svg>
