<?xml version="1.0" encoding="utf-8"?>
<!-- Generator: Adobe Illustrator 17.0.0, SVG Export Plug-In . SVG Version: 6.00 Build 0)  -->
<!DOCTYPE svg PUBLIC "-//W3C//DTD SVG 1.1//EN" "http://www.w3.org/Graphics/SVG/1.1/DTD/svg11.dtd">
<svg version="1.1" id="Layer_1" xmlns="http://www.w3.org/2000/svg" xmlns:xlink="http://www.w3.org/1999/xlink" x="0px" y="0px"
	 width="207.3px" height="207.3px" viewBox="0 0 207.3 207.3" enable-background="new 0 0 207.3 207.3" xml:space="preserve">
<g>
	<path fill="#231F20" d="M77.508,141.112c8.168-4.196,13.773-12.702,13.773-22.499c0-13.94-11.342-25.282-25.282-25.282
		c-13.941,0-25.283,11.342-25.283,25.282c0,9.7,5.495,18.138,13.533,22.376c-17.562,4.982-30.468,21.15-30.468,40.286
		c0,1.243,1.008,2.25,2.25,2.25h79.259c0.007,0,0.015,0.001,0.02,0c1.243,0,2.25-1.007,2.25-2.25c0-0.105-0.007-0.208-0.021-0.31
		C107.401,162.122,94.752,146.208,77.508,141.112z M45.215,118.613c0-11.459,9.323-20.782,20.783-20.782
		c11.459,0,20.782,9.323,20.782,20.782s-9.323,20.782-20.782,20.782C54.539,139.395,45.215,130.073,45.215,118.613z M28.347,179.025
		c1.166-19.568,17.456-35.129,37.312-35.129s36.146,15.561,37.312,35.129H28.347z"/>
	<path fill="#231F20" d="M134.781,21.86c-23.747,0-43.066,19.32-43.066,43.067c0,9.137,2.795,17.797,8.101,25.148l-0.006,14.222
		c-0.001,1.385,0.637,2.694,1.729,3.547c0.799,0.625,1.777,0.955,2.771,0.955c0.363,0,0.728-0.044,1.087-0.133l14.026-3.492
		c4.896,1.872,10.057,2.82,15.358,2.82c23.747,0,43.067-19.32,43.067-43.067C177.848,41.18,158.528,21.86,134.781,21.86z
		 M134.781,98.994c-4.615,0-9.09-0.906-13.298-2.692c-0.558-0.237-1.151-0.354-1.744-0.354c-0.463,0-0.925,0.071-1.37,0.212
		l-9.557,2.38l0.004-9.969c0-1.067-0.379-2.085-1.047-2.885c-4.615-5.993-7.055-13.168-7.055-20.76
		c0-18.785,15.282-34.067,34.066-34.067c18.785,0,34.067,15.283,34.067,34.067S153.566,98.994,134.781,98.994z"/>
</g>
</svg>
