<?xml version="1.0" encoding="utf-8"?>
<!-- Generator: Adobe Illustrator 17.0.0, SVG Export Plug-In . SVG Version: 6.00 Build 0)  -->
<!DOCTYPE svg PUBLIC "-//W3C//DTD SVG 1.1//EN" "http://www.w3.org/Graphics/SVG/1.1/DTD/svg11.dtd">
<svg version="1.1" id="Layer_1" xmlns="http://www.w3.org/2000/svg" xmlns:xlink="http://www.w3.org/1999/xlink" x="0px" y="0px"
	 width="207.3px" height="207.3px" viewBox="0 0 207.3 207.3" enable-background="new 0 0 207.3 207.3" xml:space="preserve">
<text transform="matrix(1 0 0 1 85.219 93.8765)" font-family="'ProximaNova-Bold'" font-size="25.0618">PDF</text>
<g>
	<path d="M160.895,121.29c1.193,0,2.339-0.474,3.183-1.318s1.318-1.99,1.317-3.184l-0.035-69.945
		c-0.001-2.484-2.016-4.498-4.5-4.498H57.689c-2.485,0-4.5,2.015-4.5,4.5v112.657c0,1.195,0.476,2.342,1.322,3.186
		c0.844,0.841,1.986,1.314,3.178,1.314c0.004,0,0.008,0,0.011,0l61.62-0.154c2.48-0.006,4.488-2.018,4.489-4.498l0.017-38.071
		L160.895,121.29L160.895,121.29z M119.329,112.279L119.329,112.279c-2.485,0-4.5,2.014-4.501,4.498l-0.017,38.083l-52.622,0.131
		V51.345h94.173l0.031,60.943L119.329,112.279z"/>
	<path d="M165.552,130.854c-0.696-1.682-2.337-2.778-4.157-2.778H134.39c-2.485,0-4.5,2.015-4.5,4.5v27.005
		c0,1.82,1.097,3.461,2.778,4.157c0.557,0.231,1.141,0.343,1.721,0.343c1.171,0,2.322-0.457,3.183-1.318l27.005-27.005
		C165.863,134.471,166.248,132.535,165.552,130.854z M138.89,148.717v-11.641h11.641L138.89,148.717z"/>
	<path d="M94.689,77.165h-7.816v16.711h3.558v-5.963h4.259c3.608,0,5.612-2.456,5.612-5.362
		C100.302,79.62,98.322,77.165,94.689,77.165z M94.188,84.782h-3.758v-4.485h3.758c1.403,0,2.48,0.852,2.48,2.255
		C96.669,83.93,95.592,84.782,94.188,84.782z"/>
	<path d="M109.126,77.165h-6.59v16.711h6.614c5.212,0,8.845-3.307,8.845-8.368C117.995,80.497,114.362,77.165,109.126,77.165z
		 M109.126,90.745h-3.032V80.297h3.057c3.408,0,5.212,2.28,5.212,5.211C114.362,88.364,112.433,90.745,109.126,90.745z"/>
	<polygon points="120.53,93.876 124.088,93.876 124.088,86.936 132.181,86.936 132.181,83.804 124.088,83.804 124.088,80.297 
		132.356,80.297 132.356,77.165 120.53,77.165 	"/>
	<path d="M147.013,60.545H72.382c-1.242,0-2.25,1.007-2.25,2.25s1.008,2.25,2.25,2.25h74.631c1.242,0,2.25-1.007,2.25-2.25
		S148.255,60.545,147.013,60.545z"/>
</g>
</svg>
