<?xml version="1.0" encoding="utf-8"?>
<!-- Generator: Adobe Illustrator 17.0.0, SVG Export Plug-In . SVG Version: 6.00 Build 0)  -->
<!DOCTYPE svg PUBLIC "-//W3C//DTD SVG 1.1//EN" "http://www.w3.org/Graphics/SVG/1.1/DTD/svg11.dtd">
<svg version="1.1" id="Layer_1" xmlns="http://www.w3.org/2000/svg" xmlns:xlink="http://www.w3.org/1999/xlink" x="0px" y="0px"
	 width="207.3px" height="207.3px" viewBox="0 0 207.3 207.3" enable-background="new 0 0 207.3 207.3" xml:space="preserve">
<path fill="#231F20" d="M174.841,127.723c-1.738-10.408-6.726-20.818-14.23-29.917c4.711-18.703,1.693-36.637-10.002-48.332
	c-8.003-8.003-19.062-12.234-31.979-12.234c-20.035,0-42.369,10.373-59.743,27.748C44.772,79.1,35.297,96.243,32.204,113.257
	c-3.202,17.618,0.764,33.05,11.168,43.454c8.003,8.003,19.062,12.234,31.979,12.234c11.275,0,23.277-3.285,34.714-9.254
	c9.936,6.456,20.939,10.109,31.206,10.11c0.002,0,0.002,0,0.004,0c9.929,0,18.473-3.295,24.705-9.527
	C173.881,152.375,177.027,140.815,174.841,127.723z M41.06,114.867c2.768-15.23,11.358-30.685,24.189-43.516
	c15.725-15.724,35.68-25.112,53.38-25.112c10.479,0,19.337,3.319,25.616,9.599c1.21,1.21,2.292,2.514,3.27,3.887
	c-4.931,1.2-12.541,3.389-20.415,6.946c-17.72,8.006-28.045,19.157-29.859,32.244c-3.969,28.458-9.835,35.407-46.789,52.109
	c-0.24-0.224-0.483-0.445-0.716-0.677C41.482,142.094,38.4,129.493,41.06,114.867z M54.416,154.16
	c36.644-16.761,43.138-24.917,47.281-54.625c3.232-23.306,36.736-33.067,48.266-35.751c9.562,18.894,1.333,48.485-21.23,71.049
	c-15.725,15.724-35.68,25.112-53.381,25.112C67.257,159.945,60.135,157.956,54.416,154.16z M141.272,160.802
	c-7.273-0.001-15.055-2.25-22.423-6.305c5.716-3.787,11.192-8.244,16.246-13.299c0.381-0.381,0.743-0.773,1.117-1.158
	c3.468,6.039,9.54,12.186,20.085,16.566c-4.108,2.746-9.213,4.195-15.022,4.195C141.274,160.802,141.273,160.802,141.272,160.802z
	 M160.197,153.288c-7.154-2.671-16.077-7.681-20.753-16.727c7.875-8.868,13.846-18.562,17.765-28.328
	c4.533,6.646,7.562,13.833,8.754,20.972C167.599,138.998,165.545,147.504,160.197,153.288z"/>
</svg>
