<?xml version="1.0" encoding="utf-8"?>
<!-- Generator: Adobe Illustrator 17.0.0, SVG Export Plug-In . SVG Version: 6.00 Build 0)  -->
<!DOCTYPE svg PUBLIC "-//W3C//DTD SVG 1.1//EN" "http://www.w3.org/Graphics/SVG/1.1/DTD/svg11.dtd">
<svg version="1.1" id="Layer_1" xmlns="http://www.w3.org/2000/svg" xmlns:xlink="http://www.w3.org/1999/xlink" x="0px" y="0px"
	 width="207.3px" height="207.3px" viewBox="0 0 207.3 207.3" enable-background="new 0 0 207.3 207.3" xml:space="preserve">
<path d="M159.244,60.576l1.206-7.977c0.196-1.297-0.183-2.613-1.038-3.607c-0.854-0.994-2.101-1.565-3.411-1.565H26.688
	c-1.345,0-2.619,0.602-3.474,1.64s-1.201,2.403-0.942,3.724l15.079,77.159c0.03,0.157,0.069,0.313,0.117,0.467
	c4.384,14.167,26.958,29.457,55.783,29.457c28.822,0,51.241-15.601,55.483-30.054c0.058-0.195,0.102-0.394,0.132-0.595l1.233-8.159
	c1.858,0.348,3.751,0.525,5.667,0.525c16.878,0,30.608-13.731,30.608-30.609C186.376,75.28,174.49,62.309,159.244,60.576z
	 M140.016,127.559c-4.311,13.754-28.005,23.314-46.765,23.314c-23.438,0-43.54-12.026-47.118-22.905l-13.98-71.541h118.616
	l-1.189,7.867c-0.001,0.01-0.003,0.02-0.004,0.029l-7.599,50.271c-0.005,0.03-0.009,0.06-0.014,0.09L140.016,127.559z
	 M155.767,112.591c-1.464,0-2.906-0.158-4.319-0.445l6.45-42.667c10.918,1.074,19.477,10.306,19.477,21.502
	C177.376,102.897,167.682,112.591,155.767,112.591z"/>
</svg>
