<?xml version="1.0" encoding="utf-8"?>
<!-- Generator: Adobe Illustrator 17.0.0, SVG Export Plug-In . SVG Version: 6.00 Build 0)  -->
<!DOCTYPE svg PUBLIC "-//W3C//DTD SVG 1.1//EN" "http://www.w3.org/Graphics/SVG/1.1/DTD/svg11.dtd">
<svg version="1.1" id="Layer_1" xmlns="http://www.w3.org/2000/svg" xmlns:xlink="http://www.w3.org/1999/xlink" x="0px" y="0px"
	 width="207.3px" height="207.3px" viewBox="0 0 207.3 207.3" enable-background="new 0 0 207.3 207.3" xml:space="preserve">
<path fill="#231F20" d="M174.718,51.719h-43.303c0.905-2.091,1.39-4.361,1.39-6.708c0-4.516-1.759-8.762-4.951-11.954
	c-3.193-3.193-7.439-4.952-11.955-4.952s-8.762,1.759-11.954,4.952c-0.066,0.066-0.126,0.139-0.19,0.207
	c-0.064-0.068-0.124-0.141-0.19-0.207c-3.193-3.193-7.439-4.952-11.955-4.952s-8.762,1.759-11.954,4.952
	c-5.038,5.038-6.212,12.486-3.549,18.663H32.602c-2.485,0-4.5,2.015-4.5,4.5v23.695c0,2.485,2.015,4.5,4.5,4.5h6.928v90.282
	c0,2.485,2.015,4.5,4.5,4.5h119.261c2.485,0,4.5-2.015,4.5-4.5V84.414h6.927c2.485,0,4.5-2.015,4.5-4.5V56.219
	C179.218,53.733,177.203,51.719,174.718,51.719z M110.309,39.42c1.493-1.493,3.479-2.315,5.59-2.315s4.097,0.822,5.591,2.316
	c1.493,1.493,2.315,3.479,2.315,5.59c0,1.868-0.644,3.638-1.826,5.055c-2.181,0.806-7.233,1.388-13.212,1.534
	C108.364,46.387,108.794,40.934,110.309,39.42z M85.628,50.183c-2.687-3.103-2.557-7.816,0.391-10.763
	c1.493-1.493,3.479-2.315,5.59-2.315c2.112,0,4.098,0.822,5.592,2.316c1.515,1.516,1.94,7.045,1.526,12.298H95.24
	C90.234,51.54,87.1,50.87,85.628,50.183z M158.791,170.196H105.91v-10.847h45.144c1.242,0,2.25-1.007,2.25-2.25
	s-1.008-2.25-2.25-2.25H105.91V91.762c0-1.243-1.008-2.25-2.25-2.25s-2.25,1.007-2.25,2.25v63.087H56.465
	c-1.242,0-2.25,1.007-2.25,2.25s1.008,2.25,2.25,2.25h44.945v10.847H48.53V84.414h110.261V170.196z M170.218,75.414h-6.927H44.03
	h-6.928V60.719h57.923c0.929,0.031,1.892,0.048,2.89,0.048h0.001c1.134,0,2.139-0.021,2.957-0.048h69.344V75.414z"/>
</svg>
