<?xml version="1.0" encoding="utf-8"?>
<!-- Generator: Adobe Illustrator 17.1.0, SVG Export Plug-In . SVG Version: 6.00 Build 0)  -->
<!DOCTYPE svg PUBLIC "-//W3C//DTD SVG 1.1//EN" "http://www.w3.org/Graphics/SVG/1.1/DTD/svg11.dtd">
<svg version="1.1" id="Layer_1" xmlns="http://www.w3.org/2000/svg" xmlns:xlink="http://www.w3.org/1999/xlink" x="0px" y="0px"
	 viewBox="0 0 50 50" enable-background="new 0 0 50 50" xml:space="preserve">
<g>
	<path d="M17.367,35.453c-0.149,0-0.301-0.041-0.432-0.123c-0.242-0.149-0.388-0.413-0.388-0.697V15.17
		c0-0.284,0.149-0.549,0.391-0.698c0.242-0.149,0.545-0.163,0.797-0.033l19.447,9.794c0.278,0.139,0.453,0.423,0.453,0.734
		c-0.003,0.31-0.177,0.593-0.455,0.732l-19.447,9.668C17.616,35.424,17.493,35.453,17.367,35.453z M18.187,16.5v16.809l16.796-8.35
		L18.187,16.5z"/>
	<path d="M24.999,49.999C11.214,49.999,0,38.784,0,24.999S11.214,0,24.999,0S50,11.214,50,24.999S38.784,49.999,24.999,49.999z
		 M24.999,3.278c-11.975,0-21.718,9.744-21.718,21.72c0,11.977,9.743,21.722,21.718,21.722c11.977,0,21.72-9.744,21.72-21.722
		C46.719,13.023,36.976,3.278,24.999,3.278z"/>
</g>
</svg>
