<?xml version="1.0" encoding="utf-8"?>
<!-- Generator: Adobe Illustrator 17.1.0, SVG Export Plug-In . SVG Version: 6.00 Build 0)  -->
<!DOCTYPE svg PUBLIC "-//W3C//DTD SVG 1.1//EN" "http://www.w3.org/Graphics/SVG/1.1/DTD/svg11.dtd">
<svg version="1.1" id="Layer_1" xmlns="http://www.w3.org/2000/svg" xmlns:xlink="http://www.w3.org/1999/xlink" x="0px" y="0px"
	 viewBox="0 0 50 50" enable-background="new 0 0 50 50" xml:space="preserve">
<g>
	<path d="M1.849,49.968c-0.49,0-0.96-0.194-1.304-0.539C0.197,49.083,0,48.611,0,48.12V1.848C0,0.828,0.829,0,1.849,0h42.375
		c1.02,0,1.847,0.826,1.849,1.847l0.014,28.729c0,0.491-0.194,0.961-0.542,1.309c-0.348,0.346-0.817,0.541-1.307,0.541l0,0
		l-15.227-0.003l-0.003,15.635c-0.003,1.019-0.826,1.845-1.844,1.848L1.855,49.968C1.852,49.968,1.852,49.968,1.849,49.968z
		 M3.699,3.696v42.572l21.613-0.055l0.003-15.64c0.003-1.022,0.829-1.848,1.849-1.848l0,0l15.225,0.003L42.378,3.696H3.699z"/>
	<path d="M33.351,50c-0.238,0-0.478-0.046-0.707-0.141c-0.69-0.286-1.142-0.96-1.142-1.707V37.06c0-1.02,0.829-1.848,1.849-1.848
		h11.094c0.748,0,1.42,0.451,1.707,1.141c0.287,0.691,0.128,1.486-0.4,2.015L34.658,49.459C34.304,49.813,33.832,50,33.351,50z
		 M35.2,38.908v4.783l4.783-4.783H35.2z"/>
	<g>
		<path d="M13.834,21.167v-6.859h3.209c1.49,0,2.302,1.009,2.302,2.212c0,1.191-0.82,2.2-2.302,2.2h-1.748v2.447H13.834z
			 M17.855,16.52c0-0.577-0.441-0.925-1.017-0.925h-1.542v1.838h1.542C17.414,17.433,17.855,17.085,17.855,16.52z"/>
		<path d="M20.27,21.167v-6.859h2.705c2.148,0,3.638,1.368,3.638,3.423c0,2.078-1.49,3.435-3.629,3.435H20.27z M25.122,17.732
			c0-1.203-0.739-2.136-2.139-2.136h-1.255v4.287h1.246C24.331,19.883,25.122,18.906,25.122,17.732z"/>
		<path d="M27.659,21.167v-6.859h4.853v1.287H29.12v1.438h3.322v1.287H29.12v2.847H27.659z"/>
	</g>
	<path d="M38.537,9.324H7.882c-0.51,0-0.925-0.415-0.925-0.925s0.415-0.925,0.925-0.925h30.655c0.51,0,0.925,0.415,0.925,0.925
		S39.047,9.324,38.537,9.324z"/>
</g>
</svg>
