<?xml version="1.0" encoding="utf-8"?>
<!-- Generator: Adobe Illustrator 17.1.0, SVG Export Plug-In . SVG Version: 6.00 Build 0)  -->
<!DOCTYPE svg PUBLIC "-//W3C//DTD SVG 1.1//EN" "http://www.w3.org/Graphics/SVG/1.1/DTD/svg11.dtd">
<svg version="1.1" id="Layer_1" xmlns="http://www.w3.org/2000/svg" xmlns:xlink="http://www.w3.org/1999/xlink" x="0px" y="0px"
	 viewBox="0 0 50 50" enable-background="new 0 0 50 50" xml:space="preserve">
<g>
	<path d="M20.993,50c-0.396,0-0.795-0.139-1.116-0.415C19.066,48.884,0,32.298,0,20.996C0,9.418,9.418,0,20.993,0
		C32.571,0,41.99,9.418,41.99,20.996c0,11.302-19.069,27.888-19.88,28.589C21.788,49.861,21.39,50,20.993,50z M20.993,3.415
		c-9.694,0-17.578,7.887-17.578,17.581c0,7.569,11.795,19.792,17.578,25.019c5.784-5.23,17.581-17.455,17.581-25.019
		C38.575,11.302,30.687,3.415,20.993,3.415z"/>
	<path d="M20.993,28.209c-5.28,0-9.576-4.296-9.576-9.576s4.296-9.576,9.576-9.576s9.576,4.296,9.576,9.576
		S26.274,28.209,20.993,28.209z M20.993,10.764c-4.338,0-7.869,3.53-7.869,7.869s3.53,7.869,7.869,7.869s7.869-3.53,7.869-7.869
		S25.332,10.764,20.993,10.764z"/>
</g>
</svg>
