<?xml version="1.0" encoding="utf-8"?>
<!-- Generator: Adobe Illustrator 17.1.0, SVG Export Plug-In . SVG Version: 6.00 Build 0)  -->
<!DOCTYPE svg PUBLIC "-//W3C//DTD SVG 1.1//EN" "http://www.w3.org/Graphics/SVG/1.1/DTD/svg11.dtd">
<svg version="1.1" id="Layer_1" xmlns="http://www.w3.org/2000/svg" xmlns:xlink="http://www.w3.org/1999/xlink" x="0px" y="0px"
	 viewBox="0 0 50 50" enable-background="new 0 0 50 50" xml:space="preserve">
<g>
	<path d="M22.012,50c-8.144,0-14.35-6.176-18.973-18.882c-2.143-5.885-8.662-23.791,8.22-29.937l3.011-1.096
		c0.72-0.267,1.514,0.109,1.778,0.829l4.119,11.319c0.263,0.72-0.109,1.515-0.829,1.778l-5.818,2.117l7.37,20.134l5.781-2.104
		c0.342-0.127,0.725-0.109,1.06,0.046c0.335,0.156,0.592,0.437,0.718,0.783l3.969,10.904c0.126,0.346,0.109,0.727-0.046,1.061
		c-0.157,0.333-0.437,0.592-0.783,0.717l-2.885,1.05C26.369,49.569,24.119,50,22.012,50z"/>
</g>
</svg>
