<?xml version="1.0" encoding="utf-8"?>
<!-- Generator: Adobe Illustrator 17.1.0, SVG Export Plug-In . SVG Version: 6.00 Build 0)  -->
<!DOCTYPE svg PUBLIC "-//W3C//DTD SVG 1.1//EN" "http://www.w3.org/Graphics/SVG/1.1/DTD/svg11.dtd">
<svg version="1.1" id="Layer_1" xmlns="http://www.w3.org/2000/svg" xmlns:xlink="http://www.w3.org/1999/xlink" x="0px" y="0px"
	 width="612px" height="502.2px" viewBox="0 0 612 502.2" enable-background="new 0 0 612 502.2" xml:space="preserve">
<path d="M510.3,204.4H352.5V46.6c0-25.7-20.9-46.6-46.6-46.6c-25.7,0-46.6,20.9-46.6,46.6v157.8H101.5c-25.7,0-46.6,20.9-46.6,46.6
	c0,25.7,20.9,46.6,46.6,46.6h157.8v157.8c0,25.7,20.9,46.6,46.6,46.6c25.7,0,46.6-20.9,46.6-46.6V297.6h157.8
	c25.7,0,46.6-20.9,46.6-46.6C556.9,225.3,536,204.4,510.3,204.4z"/>
</svg>
